<mxfile host="app.diagrams.net" modified="2020-11-30T12:42:29.557Z" agent="5.0 (Windows NT 10.0; Win64; x64) AppleWebKit/537.36 (KHTML, like Gecko) Chrome/87.0.4280.66 Safari/537.36" etag="I1zOjMIPDCR0FzQVurd5" version="13.10.2" type="github">
  <diagram id="1HbvbAI33iPZgwU_z9_h" name="Page-1">
    <mxGraphModel dx="1422" dy="762" grid="1" gridSize="10" guides="1" tooltips="1" connect="1" arrows="1" fold="1" page="1" pageScale="1" pageWidth="827" pageHeight="1169" math="0" shadow="0">
      <root>
        <mxCell id="0" />
        <mxCell id="1" parent="0" />
        <mxCell id="ZZ-KA2M3GGoIeQwi2uxn-40" value="" style="rounded=1;whiteSpace=wrap;html=1;" parent="1" vertex="1">
          <mxGeometry x="220" y="100" width="810" height="500" as="geometry" />
        </mxCell>
        <mxCell id="ZZ-KA2M3GGoIeQwi2uxn-1" value="Kubernetes" style="rounded=1;whiteSpace=wrap;html=1;verticalAlign=top;" parent="1" vertex="1">
          <mxGeometry x="650" y="240" width="130" height="90" as="geometry" />
        </mxCell>
        <mxCell id="ZZ-KA2M3GGoIeQwi2uxn-2" value="" style="aspect=fixed;html=1;points=[];align=center;image;fontSize=12;image=img/lib/mscae/Kubernetes.svg;" parent="1" vertex="1">
          <mxGeometry x="690" y="270" width="50" height="48" as="geometry" />
        </mxCell>
        <mxCell id="ZZ-KA2M3GGoIeQwi2uxn-4" value="Helm Chart Library" style="rounded=1;whiteSpace=wrap;html=1;verticalAlign=top;" parent="1" vertex="1">
          <mxGeometry x="650" y="362" width="130" height="90" as="geometry" />
        </mxCell>
        <mxCell id="ZZ-KA2M3GGoIeQwi2uxn-3" value="" style="shape=image;html=1;verticalAlign=top;verticalLabelPosition=bottom;labelBackgroundColor=#ffffff;imageAspect=0;aspect=fixed;image=https://cdn3.iconfinder.com/data/icons/travelling-icon-set/800/helm-128.png" parent="1" vertex="1">
          <mxGeometry x="690" y="392" width="50" height="50" as="geometry" />
        </mxCell>
        <mxCell id="ZZ-KA2M3GGoIeQwi2uxn-6" value="Helm Chart Repository" style="rounded=1;whiteSpace=wrap;html=1;verticalAlign=top;" parent="1" vertex="1">
          <mxGeometry x="450" y="362" width="130" height="90" as="geometry" />
        </mxCell>
        <mxCell id="ZZ-KA2M3GGoIeQwi2uxn-8" value="" style="shape=image;html=1;verticalAlign=top;verticalLabelPosition=bottom;labelBackgroundColor=#ffffff;imageAspect=0;aspect=fixed;image=https://cdn3.iconfinder.com/data/icons/travelling-icon-set/800/helm-128.png" parent="1" vertex="1">
          <mxGeometry x="490" y="390" width="50" height="50" as="geometry" />
        </mxCell>
        <mxCell id="ZZ-KA2M3GGoIeQwi2uxn-9" value="Code Repository" style="rounded=1;whiteSpace=wrap;html=1;verticalAlign=top;" parent="1" vertex="1">
          <mxGeometry x="250" y="240" width="130" height="90" as="geometry" />
        </mxCell>
        <mxCell id="ZZ-KA2M3GGoIeQwi2uxn-11" value="" style="shape=image;html=1;verticalAlign=top;verticalLabelPosition=bottom;labelBackgroundColor=#ffffff;imageAspect=0;aspect=fixed;image=https://cdn4.iconfinder.com/data/icons/ionicons/512/icon-social-github-128.png" parent="1" vertex="1">
          <mxGeometry x="290" y="270" width="50" height="50" as="geometry" />
        </mxCell>
        <mxCell id="ZZ-KA2M3GGoIeQwi2uxn-12" value="CI Pipeline" style="rounded=1;whiteSpace=wrap;html=1;verticalAlign=top;" parent="1" vertex="1">
          <mxGeometry x="450" y="240" width="130" height="90" as="geometry" />
        </mxCell>
        <mxCell id="ZZ-KA2M3GGoIeQwi2uxn-14" value="" style="shape=image;html=1;verticalAlign=top;verticalLabelPosition=bottom;labelBackgroundColor=#ffffff;imageAspect=0;aspect=fixed;image=https://cdn4.iconfinder.com/data/icons/logos-brands-5/24/jenkins-128.png" parent="1" vertex="1">
          <mxGeometry x="490" y="270" width="50" height="50" as="geometry" />
        </mxCell>
        <mxCell id="ZZ-KA2M3GGoIeQwi2uxn-15" value="Image Registry" style="rounded=1;whiteSpace=wrap;html=1;verticalAlign=top;" parent="1" vertex="1">
          <mxGeometry x="450" y="120" width="130" height="90" as="geometry" />
        </mxCell>
        <mxCell id="ZZ-KA2M3GGoIeQwi2uxn-17" value="" style="shape=image;html=1;verticalAlign=top;verticalLabelPosition=bottom;labelBackgroundColor=#ffffff;imageAspect=0;aspect=fixed;image=https://cdn4.iconfinder.com/data/icons/logos-and-brands/512/97_Docker_logo_logos-128.png" parent="1" vertex="1">
          <mxGeometry x="490" y="150" width="50" height="50" as="geometry" />
        </mxCell>
        <mxCell id="ZZ-KA2M3GGoIeQwi2uxn-18" value="Demo Service" style="rounded=1;whiteSpace=wrap;html=1;verticalAlign=top;" parent="1" vertex="1">
          <mxGeometry x="250" y="362" width="130" height="90" as="geometry" />
        </mxCell>
        <mxCell id="ZZ-KA2M3GGoIeQwi2uxn-20" value="" style="shape=image;html=1;verticalAlign=top;verticalLabelPosition=bottom;labelBackgroundColor=#ffffff;imageAspect=0;aspect=fixed;image=https://cdn2.iconfinder.com/data/icons/nodejs-1/128/nodejs-128.png" parent="1" vertex="1">
          <mxGeometry x="260" y="392" width="50" height="50" as="geometry" />
        </mxCell>
        <mxCell id="ZZ-KA2M3GGoIeQwi2uxn-21" value="" style="shape=image;verticalLabelPosition=bottom;labelBackgroundColor=#ffffff;verticalAlign=top;aspect=fixed;imageAspect=0;image=data:image/png,iVBORw0KGgoAAAANSUhEUgAAA1wAAAOECAYAAAC1iDCGAAAgAElEQVR4AeydB3cUV7Zwvz/0bGZszwy2Z+aNcc5h3rPHY6LBYIxFjmPjBMbYYBsEiCQJRAYRRAYjohBB5CAhCQWUc+xuYdL51m1eN0IodKvrVtysxZIQre6qc3fVPfuGU/+vra1N+EsMYAAGYAAGYAAGYAAGYAAGYMB4Bv4fQTU+qMSUmMIADMAADMAADMAADMAADCgGEC5m+JjhhAEYgAEYgAEYgAEYgAEY0MQAwqUpsIxoMKIBAzAAAzAAAzAAAzAAAzCAcCFcjGbAAAzAAAzAAAzAAAzAAAxoYgDh0hRYRjMYzYABGIABGIABGIABGIABGEC4EC5GM2AABmAABmAABmAABmAABjQxgHBpCiyjGYxmwAAMwAAMwAAMwAAMwAAMIFwIF6MZMAADMAADMAADMAADMAADmhhAuDQFltEMRjNgAAZgAAZgAAZgAAZgAAYQLoSL0QwYgAEYgAEYgAEYgAEYgAFNDCBcmgLLaAajGTAAAzAAAzAAAzAAAzAAAwgXwsVoBgzAAAzAAAzAAAzAAAzAgCYGEC5NgWU0g9EMGIABGIABGIABGIABGIABhAvhYjQDBmAABmAABmAABmAABmBAEwMIl6bAMprBaAYMwAAMwAAMwAAMwAAMwADChXAxmgEDMAADMAADMAADMAADMKCJAYRLU2AZzWA0AwZgAAZgAAZgAAZgAAZgAOFCuBjNgAEYgAEYgAEYgAEYgAEY0MQAwqUpsIxmMJoBAzAAAzAAAzAAAzAAAzCAcCFcjGbAAAzAAAzAAAzAAAzAAAxoYgDh0hRYRjMYzYABGIABGIABGIABGIABGEC4EC5GM2AABmAABmAABmAABmAABjQxgHBpCiyjGYxmwAAMwAAMwAAMwAAMwAAMIFwIF6MZMAADMAADMAADMAADMAADmhhAuDQFltEMRjNgAAZgAAZgAAZgAAZgAAYQLoSL0QwYgAEYgAEYgAEYgAEYgAFNDCBcmgLLaAajGTAAAzAAAzAAAzAAAzAAAwgXwsVoBgzAAAzAAAzAAAzAAAzAgCYGEC5NgWU0g9EMGIABGIABGIABGIABGIABhAvhYjQDBmAABmAABmAABmAABmBAEwMIl6bAMprBaAYMwAAMwAAMwAAMwAAMwADChXAxmgEDMAADMAADMAADMAADMKCJAYRLU2AZzWA0AwZgAAZgAAZgAAZgAAZgAOFCuBjNgAEYgAEYgAEYgAEYgAEY0MQAwqUpsIxmMJoBAzAAAzAAAzAAAzAAAzCAcCFcjGbAAAzAAAzAAAzAAAzAAAxoYgDh0hRYRjMYzYABGIABGIABGIABGIABGEC4EC5GM2AABmAABmAABmAABmAABjQxgHBpCiyjGYxmwAAMwAAMwAAMwAAMwAAMIFwIF6MZMAADMNAtA4FAm/ha/dLU0CL1Nc1SVVov5UW1UnK9WoquVcr1K+WSf7FMrp0rlUsniuTU/mtyeOtl2bUyS1IXZsrauUdlxcyDsuyr/RI/cZf8HLddfhixRb4btEm+fH+tTH5rlYx9JVlGPbc8/Hfk35fK0L8khP8OeWqh9H98vnz0X/OCf9X36mftX6N+p/17qPdU760+Q32W+kz12eoYln61X1bMTA8emzpGdazqmNWxq3NQ56LOSZ2bOkd1ruqc1bmrGKhYqJiQSJFIwQAMwAAM9MQAwkWiRcIAAzDgcQaUUNXXNklZYa3kXy6Xq6dvSNbBPDm+O1vSN12UnSuyZNOC47Jy1kFZ/MU+mTMqTWYM3iRffrBOJr21Ska/mCgjnl0iQ55cGBaikBg59as6F3VO6tzUOapzVeeszl3FQMVCxUTFRsVIxUrF7Orp4mAMVSwbaptFxbanjpj/J0YwAAMw4G4GEC6PJ1pc4O6+wGlf2rc9A/W1zVKSXy1XThbL0e1XZEfyaVkz54gsnLxHfhq5Tb4duFH+879rwhL16d+WyNA/L5IB7WaWnCpQuo5bxUbFSMUqJGdfvL82GEsV0/njd0ryjHTZvChTflt/Xs4cype8i2VSWVovbcgYMkoOAgMw4AkGEC5A9wTo7ZNOvkdC3MJAaKlfc1OrNNY1B5e6VZc3SGF2hZw+kCs7krMk8dt0mf3JFpn0VorEPZ8on/1jmYz46xL5pG+CfPynRTLojwuk/2P3l+npkhIvv6+K7cA+8cHZP7X8cfgziyW09FG1yewRWyXp2wOyIylLstLzgm2n2lAtW1RtqtpWLV1kpoz7llvuW5wHLHuRAYQL4UK4YAAGHMCASrhV8q32EKl9RZdPFsmJvTmyI+l0cH/U3M/TZNo/18gnTycgUP+3z8uJoqcETbXh1H+uEdWmau+bauPMPTly/liB5F4sCy79VDKGhJG4ejFx5Zzh3okMIFwOSLScCBbHzA0RBmJjQMmVWv53MbNQDm6+JKmLMiXxmwMyNy4tWAQi7oVEGfTEAtfsmXKiHJl5zGrpolq2OOXd1cFZsSVf7JP1vx6TvWvOSdahvKCENyBhDB6R08AADNiSAYQLMG0JJsl6bMk68XNe/Oqqm+RSZmGwWl7CtL3yTf8NMvW91TL25eRg8QbkimWPHQVPLVVUS0OVfKvCHtM/XC+/jNkhWxafCC4pDe4To4+jj4MBGIAByxlAuIDQcgiRA+fJAW0WfZv5fH5RUqVKi6s9VlmH8mXrkpOyaMqeoFgNfnKBDPxDfLBABXuqkKuOchXpvxU7ajZMsaQkfdyrK4KzomvnHglWUiy4WhFkULGomORajv5aJmbEDAZgIFoGEC6Eiw4XBmBAAwNqf40qfpBzrkRO7MuR7Ymng3I1/V/rgjNWSBVSFalEGfU6xZwqda9mwhZN3SNpy09Jxs6rwf2AaiDA7w9wL9BwL4g2MeP1JPMw4D4GEC5urnSwMAADBjGgnrt0IaNAdqdkSdJ36cG9NmpZ4Mj/XkppdQcXsjBKeOz2Purh0apAx8Q3VsrMj1Nl6fT9sm3ZqeByxKqyeu4LBt0XSJ7dlzzTprRptAwgXNxQ6VRhAAaiZEAtxVJFLUKClbowU374ZIuMf21FUK5U+W+eXcUMlt0Eq6fjUQKmHhWgHhugliKqxwmoYi0XjxcGWW9upER9tEkWrycxhwEYUAwgXFEmWlw4XDgw4D0GlGCp5YH5l8uDFeE2J2QGS3armaueklj+H/FyAwPDn10s3w/dLGov2Kn91+4/vLmkTlpb2AdGn+C9PoE2p82jZQDhQriY3YABGOiEATWarwTr2I4rsu7nozJv3M5gcQs1A+CGBJpzQAR7y4Aq8KKWIc4ZlSZr5hyRYzuuBsvSq1nfaJMQXk/iCgMw4AUGEK5OEi0vNDznyA0OBh5loKXJFxy535GcJXM+Sws+82jk35eKWmrV2+SU30Ns3MyAujbUNaL2Kv706TZRy2uvni4WNWDBPebRewwxISYw4E0GEC6Ei04RBjzJgBqNry5rCJZoVyP0qmqb2rcy9M+LZNAfFwhVBBElN4uSjnNT14wqR69mgeOeTwyWoz+w4bwUXC0PLsllBsybiSaCQbvDAHu4PJloAj43P68yoEbdC3Mq5eT+a7Lul6MyY/AmGdY3gdkrKgjCgEYGVCVEda2pa+7E3hzJv1QmjfUt9L8M9sEADHiGAWa4gN0zsHtVMrx+3r5Wf1CyDmy8KIu/2Cdff7QhWIWNGSxmsHTM8vCeXXOlrjklX1+8v1YWTt4ju1edkbxLZdLS7KMfIheBARhwNQMIF4C7GnCvy4YXz189vLW12SfFuVWyI/m0zP50a3CpoEr02IvVdTKMKBAbMxlQ8qVml8e8lBSc/UpdeDy49FBduzyAmVUYXuy7OGd3c49wIVwIFww4ngGVpJUX18rFzELZMO9YcAO/2ktiZgLJZyEsMBAbAwP7xMvEN1Nk5ayDcv5YgZQW1ASfd0ci6u5ElPalfb3AAMJFsu34ZNsLFyrn+GiHFPAHpKK4TjJ2Zcv6X4/J7BFbg8uVSHpjS3qJH/GzAwNq9kvt+1Jl549uvyo38qqY+SJfIV+BAccygHABr2PhRUIelRAvxKShtim48T7pu3T5dsBGUQ8fHkDZdmbzNBZ9sIOAePUY1LX96d+WyFf/Xi/qmldFNxrrmum3yF1gAAYcxQDCBbCOAtYLQsE5PiySrS0+qalslKunbwRHu4Ol2/+SIGr5kVeTUM6bWSgvMqCu+aF/ub/vK/HbA3IhoyD4aAf1/Dzumw/fN4kH8YABezGAcCFcdFQwYDsG1HLBytL6YEK1dcnJ4Oj2oCcWIFjM4sAADIQZUM/LUw9cVvs2zx25LmWFNSw7pD+zXX+G+NhLfKxqD4SLmxM3JxiwDQNqpDr3QqlsWXJC5oxKk9EvJrJckAQ7nGB7cVaHc+55NlNVHx313HKZNWyLbFpwXK6cKhb1zD2rEis+lwQbBmCgIwMIF8k2nRIMWM6A2pPx2/rz8tPIbcES7kOeWkiSjWjBAAxEzcCQJxfK2JeTg/eSAxsvsN+L/s3y/q1j4s2/vSljCBc3I25GMGA6Az6fX8qLauXc0euSPDNdRjy7JOrEipH/nkf+iREx8joDn/RNkEVT98rpA7nBMvPqQegkvN5MeGl32t1KBhAukm06HxgwjYGG2ubgcp8dSadl5sepMvTPixAtZjFgAAa0M6Bmzb/+aL1sW3ZKLhwvFHUvsjL54rNJ/mHAWwwgXCTbdDowoJ0BVWUwfdNF+WX09uCDTQc/SQEMr888cP7MvlnBgCq0Mf61FfJz3HZJT70otZWN2u9/JNbeSqxpb9q7MwYQLpJtOhsYMJwBVWWwqaFFCrMrgpvYp7y7WtSDTPs/RpJpRZLJZ8IdDDzMgLoXqXvSpLdSZNXsQ5J/qUwa61tE3bs6S5b4GUk0DMBALAwgXCTbdC4wYBgDfl8guE/i+O5sSZi2Rz5+iiWDJLoPJ7rEg3jYkQFVbGPeuJ1ybMdVKc6tEvZ6kVzHklzzu/DTkQGEi2TbsGS7I1z82zs3HPVw4ryLZbIl4YTMGrY5OHJsx6SKYyLZhwEY6I4BNev17cCNsjH+uGSfuSE8VNk7/Rg5C22tkwGEC+FCuGCg1wwEAm3BSoOLpuwJLs1Ro8TdJTP8H8kuDMCAExhQ+0wnvL5S1L1NVVNV9zqdyRjvTXxhwN0MIFwk23QiMBAVA63NPikrrJGj26/IzCGpMvAP8ezNosocog0DrmRA7fVS97ivP9oQLPxzI7+aWS/6zKj6TETK3SIVafsiXNw4uHHAQEQMNDe2Su6FUtm65KRM/3C9DHqCSoNOGKnnGJlRggFjGFAVDqe+t1pSF2ZKzrkSaW5qjejeGWlCxutIzGHAvQwgXCTbdBgw0C0Dfp9fLmUWyoqZB2XaP9cER3tJ4IxJ4IgjcYQB5zEwsE98ULyWf/2bZKXnUmCDPrTbPhSJcq9ERdO2CBc3Cm4UMPAIA6o0cmNds5w5nC9zPkuTkf+9VNToLsmh85JD2ow2gwE9DKilhp/+bYnMGbVdzh25HrxnUlae5DqaJJzXeocXhItk+5FkmxuAd24AHdva7w9IeXGtHN52Wb4fupllg+zLQbJhAAYiYEANSH3Tf0PwYcqlBTXi8/npW8mvYAAGwgwgXMAQhqFj8s2/vSNealS2JL9adq86E5zRUhW6GBXXMypOXIkrDLiXAbW3VT0aY0dylhRdq+RByuRY5FgwEGQA4QIEbgYeZ6C6vEG2J52WL99fG3x+lqrKRUJIDGAABmCg9wwM/UuC/Od/1gQLbFSW1tPPeryfZQDbOwPYXbU1wsVNgI7Agwyo0u4FV8tlzdwjMvrFRPZnRbBkiOSz98knsSN2XmVA7fMa/WKSrPv5qFy/Uk5lQw/2t10l4PzcWxKGcHHxI1weYqClyfd/pd1PBJMAryZBnDcCAAMwYDYDcc8nyob5GZJ9tkTUYzZIuL2VcNPe3m5vhMtDyTYXu7cv9oLsClkz50iwtDsVB0k2zU42+TyYg4H7D1Ge8s4qSfnhkOReKEO6yMFgwCMMIFweaWhky5uypaoOlhXWBJezTHh9pVAMg6SXpBcGYMB6BlRxjXGvrggu676RV01VQ3IxxMvlDCBcLm9gRMubotXc1BrcL6BGUdVzYkiwrE+waAPaAAZgoDMGhj+7WNRDlPMulrHUkJwM8XIpAwiXSxsW0fKmaKlnv6hOO3VhpqhlK5117vyMpA8GYAAG7MfApLdSZOP8jOA9nOd4ebMPJ3dzb7sjXAgXoykuYaC2qklSF2XK1PdWy5CnFiJbVB6EARiAAYcxMOTJhcF7uBKvmopG+meX9M+IlHtFKtK2Rbi4mLmhO5gBtUersqRO9q09J1PeXc0eLYclV8wy2G+WgTahTezAgNrjNfHNlOADlMuLakXd6yNN7HgdyT0M2I8BhMvByTYXlP0uKLPaJOAPiOqED26+KF/9e70MeHw+I9nIFgzAAAy4jIH+j88Pznilp16U8uJaUfd+s/oZPse7OQZtb3zbI1wIFzdvhzHQ1NAiR7dfkTmj0mToXxJIsFyWYNlhdJ1jYJYHBuzFgLrXz/ksTQ5tviQNdc302w7rtxEY4wXGaTFFuLhouXE7iIGinEr5ZfR2Gfn3paJGPkmK7JUU0R60BwzAgC4G1D1/xLNLZO6otOAD7J2WcHK8SIeXGUC4HJRsexlUL597S5Mv2Lkmz0iXYX2Z0dKVzPC+JMowAANOYUDNeKlS8jlnS0T1EV7uIzl3RM4JDCBcCBc3apsyoNbqqwdibl1yUia+sVL6P0Yy5JRkiOOEVRiAAd0MqD5BPTx5S8IJKcyuYH+XTftyJ8gAx6hfWhEuLlCEy4YMNNQ0y94152TG4E2iygTr7rh5f5JDGIABGHAmA4OfXCDfDtgYrFbbUMv+LuRBvzwQ4+hjjHDZMNkG5OhBdkPMAoG24NIQtUTk20GbZOifFzGrRUEMZBsGYAAGemRAzXapZYbffLRBrp4uluamVlF9ihv6Rs6BdnQDAwgXwsUN2QYM+Fr9knu+VFJmH5LhzyzusXNlJNqZI9G0G+0GAzCgm4FP+iZI0nfpkn22RFTf4oZklXNAupzOAMJlg2Tb6RBx/LHdCKvLGyRt+SmZ9s81MrBPPLLFaDYMwAAMwEBMDKhnM059b7VsW3pSqkrrkS5yPRiwmAGEy+IGQFZikxUnx0+NPJ47el1+/HQrz9MiuYopudI9Ys77MysDA85kQC1NnzVss5w6kCutLVQzdHLOwLE7O19EuBAuRj1MZqCl2ScFVytk0ZQ98vGf2KdFIufMRI52o91gwBkMqP1dqviSeoZjwZVyaW1GvJAXZ8uLE9sP4TI52XYiJByzMTcmtYG54kad7EzOkvGvrWBGg1ktGIABGIABUxmY8PpK2ZGcJWVFtRTVIP9jwN1EBhAuE4ONuBgjLk6N45lD+TLnszQeXkyCZWqCxSyEM2YhaCfaySwGVDXD2cO3yOkDuSTc5IAwYBIDCJdJgXaqJHDcsUmi3x+QytJ6Wf/rMRn1j2XS//H5JNsIFwzAAAzAgKUMqL7os38skzVzjwRXXqi+iv4+tv6e+BG/7hhAuBAubrKaGKirbpKDmy8GK0WpNfRmjV7yOcQaBmAABmAgEgZU3zTlnVWSvumi1FY2kg9oyge6S8T5P2+IGsLFxcUN1mAGfD6/XM26Icu+2s/yQUaxEW0YgAEYsD0Dapnh0i/3S/aZElF9GBLgDQmgnc1rZ4TL4GQbeM2D146xbmpokd0pZ2TKu6t5phZJlu2TrEhGwHkNMyUw4A0G1HMg1bO7diaflsa6ZqSL/BAGDGQA4TIwmHYUAI7JHAFUZXavXymXWcO2yKAnFpBoI1swAAMwAAOOY0AtMVR92Pcfp0r+pTJpaaKEPHmUOXmU2+OMcCFcjGDEwIAq9V5Zcr/U+9hXkh3XuTJy7Y2Ra9qZdoYBGIiWgdEvJsq2ZaekvJgS8m6XAc5Pv1QiXDEk2wCqH1C7xzjn7A35OS5NPumbgGwxmg0DMAADMOAqBob1TZA5o9LkUmYhg7PkizAQAwMIVwzBs7sMcHx6hFDNajXUNgcfHqkeYEypd0aOox055vUwAwMw4BQGVB837tUVwT6vvraZByaTNyJevWAA4epF0BAZPSLjhLiq6k3njxbIzI9TZQDP1HLVSK5Tkh+Ok0QdBmDACgZUUY1ZwzYH+0BfK5UMnZCzcIz2yVcRLoSLkYoIGaipaJC9q8/K6BeTEA2WDcEADMAADHiSgbjnE2XP6rNSw3O7yJ8izJ8QvzZBuICFG0YPDKglhAVXK2TR1D3yydPs1bJiZJXPZEQfBmAABuzDgOoL4yfukryL5Swx7CGHQDbsM8tkZVsgXFwoCFc3DDTWt8jRtCvB9etqOQUdvn06fNqCtoABGIAB6xhQy+rHvJQkh7Zc4rld3eQRVib5fLZ9ZA/h4iJBuDphQO3VUs/VSp6RLoOf5LlaJDXWJTXEntjDAAzYmQH13K7lX/8m+ZfLRfWdJPn2SfJpC/u0BcLVSbINoPYB1Iq28PsCcnjrZfn6ow0y6I/Ilp07eo6NRBQGYAAGrGdA9ZVf/Xu9HN52WVQfakXfzWd6O3eze/sjXAgXN8Z2DDQ1tEjqwkz59G9LpP9j1ndiJBK0AQzAAAzAgBMYUH3myL8vlY3zM0Qtx7d7AszxIWhmMoBwtUu2zQw8n2WvC12VuL1yqjhY8pa9WiQ3TkhuOEY4hQEYsCMDam/XzCGpcvF4obS2+BAv8kwYaKNKIRBwIwiOxO1be06mvLOKohiUeYYBGIABGIABAxiY8PrK4KNUmO2y1wAzA/7WtAczXAiHp6WzrKhWVs46KMOfWUwHa0AHa8fRVo6JWQAYgAEYsIaB4c8ulpQfDklZYa2ncw0kxxrJsVPcES6Ey5M3QbXM4cKxAvl2wEZRFZbojK3pjIk7cYcBGIABdzOg+ljV117IKBC1fN9OSTDHggiZxQDChXB57uZXV90ku1PO8BBjZrQQbRiAARiAAZMYULNdqu+tqWj0XN5hVlLP59hXIBEuhMszN75AoE2K86pkxcx0+aRvAp2sSZ0so9fuHr2mfWlfGICBSBkY+peE4DO7iq5ViuqTEQRi4BUGEC6EyzM3vJxzJTJj8CYZ8uRCZAvZggEYgAEYgAELGFB98HcDN0p21g3P5B9ekQrOs2uBRrgQLtff8Bpqm4MPY1TLGXi2FiOxkY7E8jpYgQEYgAE9DKi+WBWrOph6UVQfTaLedaJObNwRG4QL4XLtjU4tVyi5Xi2rfjxMFUILRjFJVPQkKsSVuMIADLiFAbW8f8XMg3Ijr4olhuSjrs1HlTQjXADuWsDzLpbJ7BFbZMhTLCF0S+fMeZBowgAMwIC7GFBLDH/4ZIvkXih1bT7CLJU7ZqliaUeEC+Fy3Q1OlZ09sTdHJr6ZIv0fn88afWa3YAAGYAAGYMDGDKi+etJbKXJiX460tlA6PpbEnt+1p9whXAiXq4SrurxBNi3MlBHPLqFztXHnygi1u0aoaU/aEwZgwAgG1F7rjfMzpLqswVW5CRJkTwkys10QLoTLNTe1iht1kjBtrwz98yJkC9mCARiAARiAAQcy8PGfFsmiKXuksqTONfmJmYk9n2VPuUO4EC5X3NDyLpbLnFFpMrBPPB2sAztYI0ZGeQ9G2GEABmDAHQyovlz16apvRyDsKRC0S3TtgnAhXI6+mbU0+SRzd45MfnsV+7UQLWQbBmAABmDAJQyE9nVl7MyW5qZWR+cqyEl0cuLGeCFcCJdjb2L1Nc2yI/G0jPgr+7UY1XXHqC7tSDvCAAzAwMMMqH1dactPierz3ZiIc07ekDGEC+Fy5A1M7ddKmX1IhvVNYDTTJaOZJBkPJxnEg3jAAAzAwH0GVF+f8sMhKS+qdWTOglR5Q6q6a2eEC+Fy1M0r9DDjeeN28nwtRAvZhgEYgAEY8AgD6nldv4zezkOSyVsdlbeGJAzhAlzHgOvz+SX7bElwvxajfoz8wgAMwAAMwID3GFDP2Lx6ulhUThBKZvnKDJLdGUC4EC5H3LCaG1vl+O5smfLuakYzPTKaSSLlvUSKNqfNYQAGImFAFcrK2EUxDbtLBsf3QIQRLoTL9sKlqhPtXnVGxryUJP0fozOKpDPiNXACAzAAAzDgVgZULqBygl0rs0QNyJLYP0jsiYU9Y4FwIVy2vlHV1zbLul+PinoQols7Ds6LpAgGYAAGYAAGomdgyFMLZcWsg9JQSwVDRMueohVqF4QL4bKlcAX8ASnOrQo+bZ6HGUffCdFxEzMYgAEYgAEvMKByhMX/2SvFeVWiCmuFEly+Egs7MYBwIVy2uzmpG2b+5fLgU+YHP7mAmS32bMEADMAADMAADHTJgMoV5oxKk7yLZUgXea3t8lolfggXYNoOzOLcSpn+wXoZ+If4Lm+uXhi14xwZnYYBGIABGICByBhQOcMX76+VwpxK2+U1dppp4VismflDuBAu29yYWpt9kpWeF9wISwcTWQdDnIgTDMAADMAADDxgQBXTyDqYJy1NPtvkN0iONZJjp7gjXAiXLW5IqhLhoS2XZMLrK6lEyLIRZjZhAAZgAAZgoFcMqAqG419bIembLlLBkBzXFjmuEj+ECxhtAePOFVkS90Jir26ujOw9GNkjFsQCBmAABmAABubJ5/2Wy/ak09JGIQ1b5Hl2mm2y4lgQLoTL0guxsa5ZNieckE/6JiBbjGbCAAzAAAzAAAwYxsCwvgmycUGGNNRRNt4KyeAzHyylRLgQLkuES1UirCytlxUz02Xon3nGFqORjEjDAAzAAAzAgPEMqOd4Js9Il8qSOioYkvNakvMq8US4gM8S+GoqGmTpl/uRLUYyDRvJJFExPlEhpsQUBmDADQwo6VLP6qoub7Ak52Gm58FMj1djgXAhXKbffOprmoMPNOYZW3TkbujIOQc4hgEYgAH7MzDoiQWyYNJuqatuMj3v8apkcN4PROYJ65IAACAASURBVBPhQrhMu/EE/AEpyqmUOZ+liXoyPB2U/Tso2og2ggEYgAEYcAsDKvf4aeQ2KbhaISonQQgeCAGx0BsLhAvhMu2Gc+1cqcwesRXZYhkhsg0DMAADMAADljAw4PH58sMnW0TlJEiGXskgvg/ii3AhXKbccAqulsv0f62T/o/Pt+QG65bROc6DkWYYgAEYgAEYiI0BlYtM/3B9cKYLKXggBcRCXywQLoRLq3CpKfurp4vvy9Zjsd0g6WCIHwzAAAzAAAzAgBEMqAckf/Xv9ZKddYPlheTCWnNhJbIIF5Bpg8zn88vZw9dl6nurmdVi6QgMwAAMwAAMwIDtGJjy7mrJOpgnKmdhhkffDI/XY4twIVzabjDnjl6XL/+1Tgb0YRmhEaNxvAejujAAAzAAAzBgPANqYDjrUJ62fMjrssH5M8PFxaVJOC+fLJavPtwgI/++TIY/vVjUJlU6CeM7CWJKTGEABmAABmAgdgYmv71KLmYWkhdqygu9Ll3McAGWoTcXX6s/ODWvZOvz55bJ588tD/4d8ewSCmawlATphgEYgAEYgAFbMqD2dE18Y6Wc2JsjKpfxuiBw/sYur0S4EC7DbiqqQMbJfdeCM1uj/vFAtkLSNfyZxSwvpKO1ZUfL6HDso8PEkBjCAAy4gYEJr6+UjJ1XKaRBfmxYfqzkFeECKMOAOp2eJ1++v05G/eP+rFZItEJf1c+DywvZ04V0IJ4wAAMwAAMwYFMGxr6SLCqnYZbH2FkeL8cT4UK4Yr6hqJmts4fz5ZuPNnQpWw9J1zOLWV5o007GDaOTnAOj7DAAAzAAA7EyMPHNFDl1IJeZLvLkmPNkZriAKGaI1DrnE3uvyZcfrAvv1wrJVXdf1Z4uCmnQIcbaIfL7MAQDMAADMKCLgbEvJ8uxHVfZ00W+HHO+zAwXEMUEUVZ6rnz90caoZCskYveXF8azpILZLhiAARiAARiAAVsyoPZ0ndyfG1Ou5OWldJz7/WWZCBfC1eubiHo6+7cDeidbSrrCe7ooGW/LTkbXiCHvy2g0DMAADMCAkxiY9FaKXD5Z1Ot8CelgLxjChXBFfQPx+/xy8XihfD9ks8T167xARmgWK5KvlIyn43VSx8uxwisMwAAMeIsBVTJ+yrur5cyhfPH5KBmPQEYvkAgXwhWVcAUCATl/rEC+H5Laq2WEXQkYJeO91XmRrNDeMAADMAADTmNASVfWwTwKaZA7R5U7K0FFuIAmKmhyzpbIrKGbDZWth5YXUjKe5YXsY4ABGIABGIABmzIw9b3Vkn22JKrciRmh6GeE3BYzhAvhivimUXytSn4auc1w2QrNegX3dFEynk7Wpp2s00ZiOV5mD2AABmBADwNf/Xu9FFytiDh/cps8cD7RCyTChXD1eMNQz9nKv1Quc0alGbJnKyRYXX2lZLyeDoKOl7jCAAzAAAzAQOwMqD1d0z9cL2rVj8qREJDoBcRrMUO4EK4ebxTFuZUSP3G3xPVL1Da71VG+KBkfe4dAp0oMYQAGYAAGYEAPA/0fny+zhm2RgqvlPeZRXpMLzvdRAUW4EK5ubxT1Nc2SMHWvjH7ePNlS8kXJeD0dBB0vcYUBGIABGIABYxgY8Ph8+fHTrVJX1dRtLoWAPCogXosJwoVwdXmTqK1slOQZ6TL6hSTTZrYemel6ZomoUSQ6B2M6B+JIHGEABmAABmDAOAYG9omX+Am7pLqsQQIBxMJrIhXp+SJcCFenwlVVVi8pPxySMS9ZJ1sh+aJkvHEdA50ssYQBGIABGIABYxkY9MQCWfLFfqksqes0p4o0Ked17hVWhAvheuTm0NTQKut/OSYTXl1h2cxWSLYeWl7YJ56ZLir4wQAMwAAMwAAM2I6BoX9eJMkz06WxrvmRvAqRcq9IRdq2CBfC9dCNQT3YeGfyaZnw6kpbyFZIvCgZb+xoHKObxBMGYAAGYAAGjGVASVfqokxpY2nhQ7llpFLi5tchXAhX+KJobfbJb+svyMQ3UmwlWyHpUl9VyXj2dBnbQdDhEk8YgAEYgAEYMIaBYX0TZOeKLGluag3nV24WCc4tstk7hAvhCt4QlGxl7LwqX76/1rayFRKv+3u6WF5I52hM50gciSMMwAAMwICRDMQ9nyjpqRelpcmHdJFnBxlAuAAhCMLF44XyzYCNtpctJV3hkvF9qF5oZAfBe5FwwAAMwAAMwIAxDIx/dYWcOpCLcJFnI1xMg7YFS5iWFtTIVx+ul7h+yx0hXGHpemYxywvZOG27jdMkK8YkK8SROMIADDiZgf6PzZPRLyZJUU4l5eKRLmGGy8MQqAIZ6kbw06fbHCNaoWWFoa/Dn1ki6sGDTr4pc+wkFTAAAzAAAzDgTga+eH+t5F0sk4A/wGyXh3NuhMvDjV9WUCuLp+219MHGIXGK5evwpxfLAErGI53M9sEADMAADMCAzRgY+Id4mTMqTYrzqhAuD+fcCJdHG7+xvkVWzjokY19OduzsVkjSwnu6mOmio7VZR8uItTtHrGlX2hUGYCAaBgY/uUASpu2V+lqe0eXV7TwIlweFq7XZL5sWZsro5xMdL1sh6VJfKRlPBxhNB8hr4QUGYAAGYMAsBgb2iZfVPx2hXLwH824lmQiXxxpelX8/uPmyTHh1hatkKyRe90vGs6fLrA6EzyFZgQEYgAEYgIHIGPj4T4tkd8oZpMtjuTfC5bEGVxs2sw7mBSsShgTFbV/DywspGc/yQpYXwgAMwAAMwIDNGBjzUpIc350tPp+fPV0eysOZ4fJQY+deKJWZQ1IdVf69N0IYlC5KxtPJ2qyTZQQ4shFg4kScYAAG3MyAKhc/5Z1Vkn3mBuXiPZSDI1weaezyolqZMTjVlcsIu5IytaeLkvF03G7uuDk3+IYBGIABZzIw6a0UKcmvZpbLI3k4wuWBhq4ua5DEr37zlGyFJIyS8c7siEggaDcYgAEYgAG3MzBv3E6pKK5FujyQiyNcLm/khroW2bwwU8a/6vzy7yGJiuZreE8XJeNZYsgSQxiAARiAARiwEQNDnlwoKbMPSQPl4l0vnQiXi4VLlX/ft+68THwjxZOzW+3FjJLxjJS6faSU84NxGIABGHAeA8P6JkjaslNULnRxPk6VQhc37s2bN+X0gdzgxsz24uHl7ykZ77yOiOSBNoMBGIABGHA7A2pQ+PiubNfP8nj1occIl0uFS8lWwZUKmTFok+dnttoLZnh5ISXjWVJioyUlbk8kOD+SZRiAARjomYFJb62SvEtlSJdLc3OWFLqsYZVsVZc3yOL/7JW4fokI13PLH4oBJeN7vunTMRIjGIABGIABGDCXgf6Pz5c5o9KkvLgO6XJZbs4MlwsbtLayUVbOOiijn0e22s9udfyekvHmdiR03MQbBmAABmAABrpnYGCfeFk8bW9w4NzLy+/ceO7McLlIuvy+gOxMOi3jX1v50KxOR9ng3/dnvSgZ3/2Nn46R+MAADMAADMCAuQwM/fMi2Rh/XFpb/Mx0uShHR7hc0phqKWHWoXyKZHRYQtidXIb3dFEynj1d7OmCARiAARiAAZswoFbhnNx3DeFySY7OkkLXNORNuU6RjF7P6g1/ZomotdOM4pk7ike8iTcMwAAMwAAMdM7ApLdSJO9imQQCbYiXC/J1Zrgc3ohqZqu8qE4WTtpDkYwoZrc6znxRMr7zGz4dIXGBARiAARiAAfMZUAPBs0dslZLr1QiXw3N1Zrgc3oBKthrrW2RT/HEZ/2pyr2d4OsqHF/8dXl7YJ56ZLpssqaCDN7+DJ+bEHAZgAAbsw8CQpxZKyuxDUl/bhHQ5PGdnhsvBDaiEK2NXtkx6IwXZimF2KySYlIy3TydDh09bwAAMwAAMwMA8+eTpBDm09TLC5eB8nRkuhzfe9UvlMvmtVciWAbIVki71VW1WZU8XHT0dPQzAAAzAAAzYgQElXTlnS9jP5eC8nRkuBzaemtkqLaiRX8fslLh+Dz/Yt7048H3vY3N/TxfLC+3Q0XAMJDwwAAMwAANeZqD/Y/NkxuBNUnStkpkuB+btzHA5sNGUbNVVNcm6n4/JuFfYt6VLKh/s6aJ6oZc7Oc6dJA8GYAAGYMAODAx5cqEkfZcutVWNSJcD83dmuBzUaEq21MON0zddkons29K+lJI9XXSyduhkOQY4hAEYgAEYUAwM65sge1afFV8rD0VWs0ZO+otwOaTBlGypv9lZN2TyWxTJ0DWz1dn7qud0DeA5XVRvpHojDMAADMAADFjMgNrycPF4oaNkw0lipOtYES4HCVdlSb38ErdD+8xOZ9Lh9Z8Nf3qxDKBkPB2txR0to9yMcsMADMAADHw3aJOUF9UiXQ7J4ZXEIVwOaCw1s9XS5JPUBZky5qUkhMvgqoSRyGR4TxczXUgX0gUDMAADMAADFjIw6IkFsnLWweCzWHXNyPC+xi5ZRLhsLlyhfVuHt1ymBLwFotVRxigZz8gio8swAAMwAAMwYDUDw59dLHvXnJXWFh8zXTbP5ZnhsnkDhfdtnSmR7wZsZGbLBsKlBOx+yXiqF1rd2fD5JDwwAAMwAANeZmDSWylyMZP9XE6YjWOGy8bSFVpKOH/CLmTLJrKlhCu8vLAP0uXljo5zJ9GDARiAARiwmoGZQ1KlqaGFWS4b5/PMcNm4cZRsBfxtsiP5tIx+PhHhspFwhaXrmcXSnz1drOO3cB2/1R09n0+yCQMwAAPWMqCqKKcuzAw+NsgJMz1ePUZmuGwoXfdlKyDHd2fLlHdXI1s2k632+7rUni5Kxlvb2dDZE38YgAEYgAEvMzDy70vlyLYr4vPxfC67Ch3CZTPhCu3bKr5WJXNHpUlcv+UIl42FK7ini5LxzHIxywUDMAADMAADFjHQ/7F58vVH6yX/cjlLC22W14cEEOGyWcMo4WpubJV1c4/JmBcpAd9+Nsmu34f3dLG8kM7Wos7WyyO7nDszGzAAAzAwTwb9cYEkfZdOqXib5fUIlw0bRMlWW9tNOb47R8a+nMzMls1ntjoKICXj6fTp9GEABmAABmDAKgYGP7lADm+9JIGAsc+QCkkDX3sfV2a4bCJeoaWEhdeq5KsP1yNbDpOtkHxRMp6O1qqOls+FPRiAARiAgTEvJ8v1KywttJscIlw2EK6QbNVVNUnyjHSqEjpUtpR0hZcXUjKe5YUsL4QBGIABGIABkxkY2CdeFk7eIzUVjeznskGOHxI/hMsGjaGEy+8LyKEtl2TyWynMbjlYuMLSRcl4OlmTO1lGthnZhgEYgAEYUAx88nSC7Fl1VnytVC0MCY/VXxEui4UrOLvVdlOunCqW6R+sQ7YcLluhpYXqKyXj6fhIfmAABmAABmDACgbiXkiUc0evs5/L4jw/JHoIl4UNEVpK2FjXIvPH70K2XCRbIfEaTsl4ZrqY6YIBGIABGIABCxiYNWyz1Nc2s7TQwlwf4bI4+CHZUl9/23CBfVsulK3w8kIlXZSMp7O1oLO1YlSVz2Q0HwZgAAbswYDaz7UjOQvhsjjnV9LFDJdFjaBES5WAzz5bIl//ewOzWy4VrvBM1zNLpD/ShXQhXTAAAzAAAzBgIgPjXl0hl08Vs7TQonyfGS4LAx+a3aopb5QlX+yXuH6JCJfLhUuJFyXj7THix8gr7QADMAADMOAVBtRg75xRaVJxo46ZLgtzf2a4TA5+SLZaW/yyf915mfQGVQlDs0Bu//qgZHw8o3smju55pVPlPEkgYQAGYAAGOmNgWN8E2ZF8WlqbfUiXyXk/M1wWBTwkXEU5PODY7YLV2fkFpYuS8QgnwgkDMAADMAADJjIw9pVkyb/MA5FDAmT2V2a4TBSvkGw1N7bKgom7WUbogWWEnUmX+pkqGc+eLkYiOxuJ5GdwAQMwAAMwoIOB2cO3SFNDC7NcJub+IbFDuEwKeki2Av6ApG+6KGNeSkK4PCxcSrru7+lieaGOToX3JFmBARiAARiAgYcZGPTEAtm96oz4fTwQOSRCZn1FuEwQrpBsqa+5F0pl1sebkS2Py5YSrgd7uuazrMLEZRV0wA93wMSDeMAADMCAdxiY+t5qyTlbwiyXCfl/e5lDuEwIeEi46qubZNXswzL6BWa3ulpq57Wfs6fLO50cCQ1tDQMwAAMwYDUDA/8QL8u+2i91VU1IlwkOEJIuhEtzsEOy1RZok+O7smUiVQmZ3etkdm/4M0t4ODKzXMx0wgAMwAAMwIB2BlTVwoOpl8TvDyBdmj0A4TIhwCHZUl/VM7dmDWUpoddmsKI53+FPL5YBfdjTZfXoH5/PCDQMwAAMwIDbGVBLCytLeDZXSIh0f2WGS6N4tReutGWnJK7fcmZ3OpndiUZK3Pza8J6ux9nT5faOjvMjmYMBGIABGLCSgf6PzZO1c48yw6XRA9pLHMKlKdAh2VLBvpBRINPeW41sIVsRMUDJeDphKzthPhv+YAAGYMAbDIz6xzI5eyhfAoE2xEuTD4SkC+HSEOCQbKmvVaUNsmjKHonrlxhRsu3mGRzOLfIZzvsl45npotP3RqdPO9POMAADMGA+A+p5oD+N3CblxbUIlwYfCMmW+opwaQhwSLh8rX45sOEChTKY2YpatsPLC/sgXXTC5nfCxJyYwwAMwIA3GPikb4LsTM6S1mYf0qXBCULShXAZHNyQbKmvN3Kr5dsBG6JOtpkJinwmyM2xomS8Nzo7khraGQZgAAZgwEoGJr6xUgqzKxAug50gJFvMcBkc2Pay5fcFJPGbdGSL2a2YGVB7ugZQSEN7mVwrOzs+m2QLBmAABmDASgYWTNotamVWe0nge+P2tjHDZaB0tReuS5mFMu7VFTEn226eweHcIp/Jo2Q8HbGVHTGfDX8wAAMw4G4GPv7TIjl39DrCZaAXtBdWhMugwLaXrdqqRlk4WRXKiDyhRj6IVXcMhPd0MdPFTBcPBYUBGIABGIABgxlQZeJ//HSrVJc3IF0GuQHCZXAg28uWWkq4b+05mfh6CrNbLCc0nAFKxrt7hJERZNoXBmAABmDAKgaG9U2QHUmnWVposCco8WKGy4CghoWr7abkXSyTWR9vNjzR7m72g//z1uwYJePpjK3qjPlc2IMBGIABdzMw9b3Vcu1cKc/mMsAPmOEyMIhh2bp5U1qb/bL+1wwZ/TzP3EIC9UlgeHkhJeNZUmLwkhISKXcnUrQv7QsDMNATAwP7xMuKWQeluamVpYUG+gIzXDEGs71wqdmtSW+ylBDZ0idbodhSMp5Os6dOk/+HERiAARiAgd4w8MnTCZJ95gbCFaMjMMNlUADby1ZjfYv8/Pl2lhKyb8tUBigZT2fam86U34EbGIABGICB7hiYMXiTNNQ2I10GOQMzXL0MZHvZUgZ7eNtlmfDaSlOT7dBsB1/1zyjZOcaUjKfT7K7T5P/gAwZgAAZgIFoGhv4lQfavPy8BfwDp6qUrMMNlQODaC1dpQY38OmYnZeCZ3bJEuMN7uigZz54u9nTBAAzAAAzAgAEMqDLxapbrRl4VwmWANzDD1YsgtpctX4tfdqeckXGv8JBjO88CeeHYhj+zRPojXXS0BnS00Y6E8npGz2EABmDAfQwMeXKhbFt6UlqbfUhXL3yBGa4YgtZettT3+ZfK5Zv+Gy2Z2fCCRHCO0S2XpGS8+zo8khjaFAZgAAZgwCoGJr6ZItfOlyJcMbiDEi9muKIMYEfhWvvzUZYSspTQNsIdXl7YJ56ZHmZ6YAAGYAAGYAAGYmJALS1M+i4d4YrSF9rPbiFcUQavo2wV51bLxNcpA88sVHSzULrjRcl4RkKtGgnlc2EPBmAABtzHwLC+CVKYXYF0RekN7aWLGa4ogtdeuJobW2XJl/ttM7OhO4nn/e0lVZG0hyoZz54u93V8JDO0KQzAAAzAgNkM/DJ6u6hHILWXCL5vizgeCFeEwtVettoCbZK5J0emvLMK4WI5oa0ZuL+ni+WFZndMfB7JEAzAAAzAgJsY+PRvS+To9iuUiY/QGzrKKMIVYeDaC1dVab0kTNsrcf0SbZ1sRzILwmucN3MVTZs92NM1P6Y13G7qNDgXkiAYgAEYgAEYiI4BtWJm7udpUnGjLuJZnY7S4eV/I1wRCFd72QoE2iRj51WZwN4tZNMhs3vs6YquU6ETJl4wAAMwAAMw8CgDai/XoS2XxO/jYcjRyiPC1YNwtZct9X1VWYP8OGIrsuEQ2YhmNsjtr1XP6RrAc7qY6aNiFwzAAAzAAAz0koHpH66XyhJmuRCuHgQq2gB1FK6DqZck7nmWErpdTtx6fsOfXiwDKBlPR9vLjpYR30dHfIkJMYEBGPASA2rgdt/acywrjNI3mOHqJmAdZau+plm+H5LK7BazW45lILyni5kupAvpggEYgAEYgIFeMDDl3dVSV9WEdHXjEB0neBCuboLVXrgC/jbZmZwl415Odmyy7dZZG84r+sIflIxnRNZLI7KcK7zDAAzAgHEMDH5ygWxJyBSfz490deMR7aUL4eoiUO1lS31fcLVSZg3djGwxu+UaBu6XjKd6IZ2wcZ0wsSSWMAADMOANBqa+t1ryL5UhXF14RHvZUt8jXF0Eqr1wtTb7ZEfiaRn/CrNbzCZFP5tk15iFlxf2QbpIELyRINDOtDMMwAAMGMPAkKcWyqYFx6W5qRXp6sIl2ksXwtVJkNrLlvq+MLtSZgzc5JqZDbsKAMdlvsxRMt6YjocOnDjCAAzAAAx4jYHJb6+S61fKEa5OXKK9bDHD1UmAOsqW2ru1YX4GssVSQlczoPZ0UTKeZMFryQLnC/MwAAMwEBsDKT8cEr+f53J1FKyO/2aGq4N0dRSu8uI6mfLOKlcn28wsmT+zZMeYUzI+tk6HTpv4wQAMwAAMeI2BkX9fKqWFNcxydfAJhKubgHSULfXvrYtPIlvMbnmCgfCeLkrGUya4F2WCvZZkcL4k1jAAAzBwn4H1vx5DuLrxC5YUdghOR+EquFoh33y00RPJth1nXDgma2beKBlPEkESAQMwAAMwAAORMjD+tRWSf5m9XB1ntdr/myWF/yddHWVLVSbcvCiT524xu+VJ4aZkPB1tpB0tr4MVGIABGPA2A4OeWCCrfjwkLVQs7HKmD+HqQrjyL5XLrI957hazTNbMMlkd9/DyQkrGs7yQ5YUwAAMwAAMw0AMD6rlc186VdCkc7Wd7vPg9wtXWJo/MbrX4ZWdSlox5McmTsxtWJ/t8vj0kj5Lx3h6xZMSa9ocBGIABGIiUgYF/iJfNCZnS0uRDujpsWVKCiXB1IlzFuVXy5QdrkS2WE8LAc8uFkvF0uJF2uLwOVmAABmDAuwyMfjFJCq6yl6uzGTzPC1fH2S31byoT2mOGhZku+7QDJeO924GSPNH2MAADMAADkTKw7pejzHAxw9X2CAQdhaumolGmf7CemQ1mt2CgHQPhPV2UjGcdfw/r+CPtlHkdCRwMwAAMuI+BMS8lSVVZwyP5dmezPl76madnuDrKlmr43Sln2LvVLtFmlsk+s0x2aIvhzyyR/kgX0oV0wQAMwAAMwEAnDAz64wJJW3ZKAv4A0tVupgvhunkzXDSjtKBGfhy+hZkNhAsGumGAkvHuG5FklJk2hQEYgAEYMIqBL95fKzfyqxAuhOvRyoTKxA9svCATX08h2e4m2bbDLAvHYO2sW3h5YZ94Rvc6Gd0zqsPifUh+YAAGYAAGnMjAJ30TZNfKLPH5/EjX/0mXZ2e4Oi4nrCypl4WTdiNbyBYMRMAAJeNJApyYBHDMcAsDMAAD5jDw46dbpbyoFuHysnB1lK22QJtk7MoWtdGP2RNrZ0+Iv7Pir0rGs6fLnM6LJIE4wwAMwAAMOIWBQU8skENbL7OXC+F6sHeruaFVfh2zA9mKYGYDIXKWEJnRXvf3dLG80CmdIMdJwgYDMAADMGAGAzMGb5LGuhZmubz44OOOs1vq35cyi2TsS8kIl8uFK378btk477jlf9f9nCHT3lvjGt4e7Omaz56uDnu6fonbIStmHtL+V33OsL8keCb+ZsSUz9DPbdK3B+Xrf28whVt1z036Nl1Wfn+Yv8TAVAbMEBu7foaqWHju6HWEC+G6KX5/QBKm7XVN8mvGjIZTP+NYWra0+W9Z/9f3uxxYf0nink90DXfs6ep8tPTCsSJp8/2u/e/5o0XBJdF27XSNPi4zYspn6Oe2tbFNNi88aYpwJX93UBprfNbf/+3QB3EMpnJg9P3Pae839/M08VM8QzxVNKOr2a0p7652TeLrVBky47hP7skTu/y5feuOLJi4x3Xcqed0DeA5XeEEMjurzBTkrp4ulbGvJIc/12kdcrTHa0pQ+RDtEVD3we3LskzhNmXW4eDAh/aT4gOIQIcIRHt/c9vrR/59qZw/WuD5WS5PC1drs1/W/XxMRr9AsQwzhMfqz7CTcMk9kZysMpn+wXr3SdfTi2UAJeODSSTC1fnMX6wJRYd8hn86NAIIl0MbjsOOKgKx3u+c/vsD/xAvyTPSpbmp1dPS5Rnh6mx2K/9yucwautl1Ca/VYmPXz7eVcInIzcCt4Oiu2/YPhvd0MdMlCBfCFVVm5rEXI1wea3CPnq7ThcmI45/63mq5dr4U4Wpr9yRkt37fUbh8rX7ZlXJGRr/I7JZdBcno47KbcKm+p66iReIn7Ja4fu6rfkjJ+HkIV4ciIkZ03Oo9+OOOCCBc7mhHzqL7CBh133Py+wzsEy9bEk5IS7PPs9LliRmujrKl/l1RXCc/frqN2S2XVyZsL212FC51m76ceUOmvOPOfYT3S8Z7t3ohM1zMcHWfinn7fxEub7e/V87eyaJk5LF/+f5aKSusQbjcOrOlzqsz4Tq+O4cHHXtItpR42VW47ty+K+t/yXCl/IeXF/bxpnQhXAiXV5LK3pwnwtWbqPE7TouAkdLi5PdSJeIPb7uMcLlVuDqTLXWuv47e7soEt/2MDt8/vEzPrsKlOo/q0iaZMSjVlUx6uWQ8woVwOS05NPN4ES4zo81nGXOvuwAAIABJREFUWRUBJ0uS0cf+7YBNEgi0eVK6XL+ksDPhunyySMawd8uVyX13kmln4bp7956cSS+QKW+vcm27qD1dXisZj3AhXFYleU74XITLCa3EMcYaAaOlxcnvpyoWnj/mzRLxrhauzmRLFctY+f1BVxYp6E42+D/7LikM3cxbGgOy+scjrh4MGO6xkvEIF8IVur75+mgEEK5HY8JP3BcBJwuS0cfe/7F5smjKHmn1YPEMzwlX/qVy+W7gJtfOIiBWDy8jbB8PO89whbqY4pwaUVPu7Y/bTd+H93R5pGQ8woVwha5tvj4aAYTr0ZjwE/dFwGhpcfr7TXwzxZMl4l0rXJ3Nbvn9AdmRlCVjX052bULrpuTc6HNxgnDdu3tPjqVly+gXEl3NqFdKxiNcCJf70kfjzgjhMi6WvJN9I+B0QTL6+Ac/uUBSF2aKz+f31F4uTwmXKkdJsYyuZ4CMFhy7vZ8ThEt1Gapq4cKJe1wtXIoNL5SMR7gQLvumgdYfGcJlfRtwBPojYLSwuOH9ZgzeJDfyqhAuN1Qs7DjDpc7p9IE8mfjmStcnsnYTHbscj1OES93+c8+Vy/QP1rua1fDyQheXjEe4EC796ZxzPwHhcm7bceSRR8ANgmT0OXzSN0EydmVLwB/wjHS5coaro2ypf7c0+WTFzHRXJ7B2ERu7HoeThOv3ttuyM/GMqwtoKE7cXjIe4UK4Ik/LvPdKhMt7be7FMzZaVtzyfoum7pGmhhaEy8mzXJ0JV3FupYx7jb1bdpUhM47LScKlOqX6qlZZPHWfxD3v7v1cqu3dWjIe4UK4vJhgRnrOCFekkeJ1To6AWwTJ6PP4+KlFUnClAuFyqnB1JlvqZ9uWnGR26znv7t9SSb3ThEt1MFdOlsi0d9d4gl03loxHuBAuJyeKuo8d4dIdYd7fDhEwWlTc9H7rfz2GcLlJuOqqm2Tm4FRPJK1mzBQ59TOcKFwqIdk4L9MT7Ib3dLmoZDzChXDZIeGz6zEgXHZtGY7LyAi4SZCMPpcp76ySuqomT0iXq/ZwdTW7lbEzWya+nuKJpNWpMmTGcTtRuNRNv6G6VWZ9vNkz/A5/Zon0d4l0IVwIl5GJm9veC+FyW4tyPp1FwGhJcdP7DeubIIc2X0K4nDbL1ZlwNdW3yNLp+yWun7eX05khNHb/DKcK19279+TswQKZ8vZqD0nXYhngguqFCBfC1VkCxs/uRwDhggQvRMBNgmT0uajB1V/H7JCG2mbXS5drZrg6ky31s+wzJfLtgI2eSVTtLj1WHp9ThUt1SK1NbbJ2zjHXVy0M8RFeXtgnXoy+wZv5fggXwuWFhLK354hw9TZy/J6TImBmn+PEz5r4ZopcPlmEcDlllqsz4fL7A7Jv7TkZ81ISwuXxghkqkXeycKnOpTinRmYM3OQZlt1QMh7hQriclBiafawIl9kR5/OsiIATJcjMYx70xAJJW35KfK1+V0uXq2e4Kkvq5ZcxOz2ToIZmB/ja+fJRpwvXvXsimbuvydiXvfV4A1Uy3ql7uhAuhMuKBM8pn4lwOaWlOM5YImCmvDj1s2YOSZXyolqEy+6zXJ3NbqmfXcgolPGvrkC4mN0KMuB04VI3fJWgJEzd5zmmhz+j9nQ5b3khwuVs4bpz+67kna+Q07/l81dDDE7syZVFk/easmz4p5FpkrEjx/Pt+Hvb7VjcIeLfVcWezh0u9Hy81b3DqRJk5nEP/fMiOXMoH+FyqnCt/vGI5xJTZrc6n91yw5LCUE+Xf6FCpn+w3lNsP9jTNd9RnRfC5WzhavPdCgrBiL8uEf5qiMGzS2TIUwtNuaYHP7kw+IB1r7djfWVrqCvR+lXJ1oTXVnLd/HWJKXybKUe6PivxmwMIl52Fq6vZrebGVpn81ipPJaXIVtey5SbhunXzjuxbfV7GeWxpoRP3dCFczhaugO93mTtqOwnTf+lpR12JG+/bdXvVljdrFa3Qm6uZHSW3tEXXbUFsHo7N8GcXS2N9i2uly/F7uLoSrqNpV5AtlhI+xIAblhSGOrP6qlZZ8p/9Evd84kPn6AXpVs/pGuCQ53QhXA93qEYlGKHrQPdXhEtP+xnFAe8TffsgXNHHDM7Mi9mBTRcRLrvOcnUmXK3NPlk0ZY/nElEvJNuxnKObhEslmldPlsh//rnWk5wPf9oZe7oQLj0dtW7RCr0/wqWn/UhgrYsrwmVd7OG+59j/NHKbNDe1ulK6HD3D1ZlsqZ/lXiiTr/+9wZOJaCxC4vbfdZtwqQIamxee9CTn4T1dNp/pQrh67mB7k4SEhEj3V4RLT/v1ps35HWPaAuEyJo7wqCeOY19JluyzJQiX3Wa5OhOuQKBNdq7IkvGvUJ3Q7QIV7fm5TbhUstna2CY/DNviSelS7W/3kvEIl55OWbdohd4f4dLTfiSr1sUV4bIu9nDfc+xVEZ0tCSck4A+4TrocO8PVmWypn1WVNbCckL1bnQqIG4Xr3t17cv5woUx9Z3Wn5xytlDrx9fdLxtuzeiHC1XMH25skJCREur8iXHrarzdtzu8Y0xYIlzFxhEd9cZzzWZpUltQhXHaZ5epKuK6cLJYv/teb+1qcmCybecxmCFdjjU8yd+eKr/mm7lww/P7qs9bPzZAxLyZ5UrrCywv72E+6EC49nXIYfs3fIFx62o9k1bq4IlzWxR7uI4t93AuJcv5YAcJlZ+Hytfpl14ozEtfPe5XbzBQXp36WGcJVXlAvMwanyrWz5ZpTwXZvf0+kJLdWZg317tJCu5aMR7gi62CjTUTa0a/1W4RLT/tF29683rh2QLiMiyVc6omlqkK8dclJaW3xuUq6HLmksKvZrdrKRvlxxFZPjvI7VYLMPG4zhKvqRqNMe2+NbFl0Um4GbmtNBju++cl9eTL+VW/vXVR7uuxUMh7h0tMhd2Rf178RLj3tR6JqXVwRLutiD/eRx376v9ZJTUUjwmX1LFdXwpV9pkTGvOTNZVVmiotTP8sM4VKd2YxBqfLdwE1iVscWSjZv/X5Hln35m+cHHOxUMh7hiryDjSYZCTGv+yvCpaf9omlrXmtsG5jVL/HgY2PbzWvXwaAnFsjlk8UIl12Fa2N8hueTTafKkBnHbYZwNVS3ys+jtgcfSHxse7bufPCR9y+8Ui3T31/n6esgvKfLBiXjES49Sccj4Gv6AcKlp/28ljza6XwRLpi2E4/dHcuqnw4jXFYKV1ezW431LTx7i+qE3YqGGcLVXB+QxdP2BY9jxqBN0ua/pSkV7Pxt1bO50jdeknE8FsEWJeMRLj3JTef0G/9ThEtP+3WXZPF/emOOcOmNL/waF1+1RaKpvsU10uW4PVxdCdeZg/ky8fWUbhNuM2ZR+Izltm0DM4RLVQxMmXU4GIOxLyVLxvYckXvGJ4LdvaOaZVs+/TcZ/TzFY6wuGY9wGdf5tk9kuuPfyP9DuPS0X/u25HtzY4xwmRtv+O59vIf1TZBT+68hXFbMcnUlW22BNln3yzEZ/QL7txC+roXPDOFSM1qp8SeCwhXXb7nET9gtTbU+I3PAiN4r+3Qpj0d4brmElxdaVDIe4ep9Z9tdohLRRWDAixAuPe3XXdvyf3pjjnDpjS/8GhffgX3iJXlmumseguyoGa6uhKuypF7mfp5m25kVJKhrCTIzNmYIlypcsSv5TJjFyW+tksxd1+TePXOnudTSwq0Jp8LHYWac7fZZVpaMR7iM63zbJzIGuFREb4Fw6Wm/9m3J9+bGGOEyN97wHVu8vx24USpuuOMhyK4QrlO/XZNp764muWQPV7cMmCFcd+/clQPrLz50HKqIRmVxY0QJnpEvuhm4JT+O2PbQsdhNhsw8HitKxiNcsXW2XSUrRl4n3b0XwqWn/bpqV36uP94Il/4Yw7FxMf7sH8vk+O5sVywrdIxwdTW71drsl62LT/KwY2SrR7EwQ7jUTNaRrVcfOpYxLybJb+suipIxM/+oSbULx4oYjGh3bZhdMh7hMq7jbZ/EmHUdIVx62q99W/K9uTFGuMyNN3zHFm/1XM21c49KS1Or46XL8cKlphrnjdv5UIJr5qg5n2WP5YKRtIMZwqUSwczduaIkq/0xff3hBqmraDErTwx/jr/lpmz89biMYX9jsD3Ce7pMKhmPcMXW2XaVrIQB1/wNwqWn/bpqV36uP94Il/4Yw7GxMZ41bLOUFdYiXGYVz+hqhutq1g2Z+AbVCdsn93zfuQSaJVxZv12XCa+teEi4VJus/zlD7tw2d5ZL5aOl+XXy06fscWx/XQx/Zon0N0G6EC5jO95QIqPZs8Jvj3Dpab9QO/LV/PgiXObHHM5ji7mqVngxsxDhMkO4upKtQKAtuJywfSLF953LBnFZLmYJ1/kjRTLl7VWPCNeUt1eL+j+zC2io7FFJIAMTD18bZpSMR7hi62i7SlTCRqT5G4RLT/t11a78XH+8ES79MYZj42O87tej4vcHHC1djlhS2JVw+Vr98v3QzY8ktsjFw4kl8bgfD7OE68qJEvnif9Y+wmVcv0RZNHmP1FqwtPD3m7cl6dv0R47Jy2yElxf2iRddHSTCZXzHq9rKrD8Il57203W98b49txfC1XOM4Mh+MZr2zzXS2uJHuHTPcnUlXCX51TK6w14ZLyeQnHv3ommWcF07UyZqz1Zn7aGenK4KaKjy8Wb/Kc2rky/fX9fpcXV2rF74me6S8QiXno7brGsH4dLTfiS01sUV4bIu9nDf+9gP/EO8FOVWIVw6hasr2VI/353y4HlHXkgOOcfuhaqn+JglXPkXK+W7AZu6FJtp762R/AsVZuWM4c9R+8eObsuWCa+t7PLYeoqhW/9flYzXsacL4ep9B9tdchKGWvM3CJee9uuubfk/vTFHuPTGF371xTdt2SmEywrhUssJ542nOqFbE2Ad52WWcBVcrpIZg1K7lZoFE3ZLm/+W5nTx0bdvrPFJ4jfpMvqFxG6PT0f87f6e9/d0Gbu8EOHS0/k+SraenyBcetqPpNS6uCJc1sUe7mOL/axhW6S1xedY6bL9Hq6uZriKcirlqw/XkzS2e8aQ3RNaq4/PLOEqulot3w/pfm+hKhuvZpvUs7LM/KM+79qZcpn+AddORx4f7Omab9ieLoQrtg62qwTFrGsG4dLTfl21Kz/XH2+ES3+M4VhPjMe+kiwFV8sRLh2zXF3Jlvr54W2XZRLl4BHOKITTLOEqzqmRH4Zu6bFtvv94sxRl15iVO4Y/Ry0t3JV8VuL6xbZEs6OwuOHfRu/pQrj0dLxhmDV/g3DpaT8SUuviinBZF3u4jy32nzydIL+tP49wmSlcLU0+WTnrEAljFLLhhmQ41nMwS7hK8mpl9idbexQuVbUw+duD0lwf0Jw2Pvr2qmjHTyO29XiMscbcqb+vntOlnnAfaweJcMXWwXYV/0eJ1vMThEtP+3XVrvxcf7wRLv0xhmM9Me7/2DxZ/J+90tzY6kjpsvWSwq5muIpzq+Snz0gWnZrMWnXcZglX2fX6iGVGzdJm7Lgmd+6Y/0Dki8eKRRXwsKo97P65w59eLANiLBmPcOnpePXo1aPvinDpaT8SUuviinBZF3u4jz32X3+0QQqzKxAuI2e5upIt9fOzh6/L5E4eLGv3BI7js3YJm1nCVV7YIHNGpkUsMjMGpkp9Veuj2Z7mn6hkMnXBCQpodDFTHN7TFcNMF8IVewfbWZKi+dIIvz3Cpaf9OmtTfmZOrBEuc+IMz3ri/OnflsjJ364hXGYIV2uzT7YtO8Vywi6SRKSua6kzS7gqixvl51HbIxauz/stl1U/HLHk2VwVhQ3yS9wOrqdurqdYSsYjXHo63bARaf4G4dLTfiSj1sUV4bIu9nAfe+zVssIN8zNEbS0y0jnMeC/bLinsaoarprJRfh1DOXjEqmux6io2ZglX1Y1G+fnzHZEL13PLgwVgsg5cl3t3TS5bKCLqcye/uSqq4+0qxm79+f2S8dHv6UK4Yu9gO0tSNHtW+O0RLj3t11mb8jNzYo1wmRNneNYX55kfp0p1eQPCZYQldiVb6uc38qpk8lskh25NbHWel1nCFfUM13PLRRXQ+HX0TlG/a/af39tuy8qZhxCubma5wssL+0QnXQiXnk7XrGsE4dLTfiSj1sUV4bIu9nBvTOyHP7vYkfu4bDnD1Z1wZey8SmLYTWKoU1ic/t5mCVdFUYPM/SyKJYX/155jX0qW7ctOy00LHoisRO+L/13LtdXNtdWbkvEIlzEdbMdEBeHSE9eOcebf7oszwuW+NvXadaqWFR5Ju8IMl+4ZrmVf/UZS2E1S6HQp0nn8pglXlEUz2p/zpDdTRFUPNPvP3Tt3JXPXNZnw2kqurx6uL7WnK9KS8QiXnuTGrOuDGS497ee1BNFO54twwbSdeOztscRP3IVwxSpc3c1uqU1yX77PKHz7BJ3vI9/LZZZwlRfUR1WlsGMb/jhim/iab5qVU4Y/p6nWL0nfHpTRzyciXT1IV6Ql4xEuPclNGFrN3yBcetqvt0kWvxd7eyBcsccQDq2P4ZiXkqS5yVnP47LdksLuhOva+VKZ8OoKksEeksGOCTz/vi9lZglX8Dlcn8bwnLh+y2XvqvOmF9C4d08k92y5fP3vDVxjPVxj4T1dPZSMR7j0dMyaPSv89giXnvYjYbUurgiXdbGHe+Ni//GfFknOuRJHzXI5Srh2rciSMS8mkQz2kAwiWJ3PepklXKX5daJmqWJph68/3CDZp8vknrIgE//cvXNP9q2+IGNe4DqLpP16KhmPcBnXwbZPVsy6JBAuPe3Xvi353twYI1zmxhu+9cR70B8XyNYlJxGuWJYVdjXDpZ6/tWjKHp4XhGz1WmRME668Ovlx+NZeH6dK9OP6LZfF0/ZZ8kDkm4HbUZe1j0RO3Pqa7krGI1x6OluES09cSQ7dH1eEy/1t7IXrWBXOmPNZmqOex2WrGa6uZEv9vCinUr7/eHNMSaxbEz7Oq/MZrY5xcZJwqWNXBSzSN16S27fumJVfhj/nyokSmfbeGq63CAY4wssLOykZj3DpSW7CoGr+hhkuPe3nhYTQrueIcMG0XdmM9rimvrdaCq6UO2aWyzHCdXLfNZny7moSwAgSwI6iwb/N3cNVasAMV6jNpn+wXiqLzH82V5v/lmxZdFLiKKAR0T2nq5LxCJee5EazZ4XfHuHS037RJla83rh2QLiMiyVcWhvLkf+9VNSjomJZVWfm7zpCuPy+gGxbejL4cNhQIsrXyGZ1iNODODlthivUdgsn7pGbgVvhJNCsb6pLmiR+/G6uuygGOTqWjEe49HTIZl0DCJee9iNRtS6uCJd1sYd7Y2Pf//H5snbuUfG1+h0hXbYRru6WE9ZUNMrSL/dHNNIcSlL5+kA0iIVzZ7hU241/ZYVkbM8RVdDC1D/3RM4eLJApb6/i2otCutqXjEe4jO1gQwmLWdcBwqWn/ULtyFfz44twmR9zONcX81/G7JDqsgaEK5qpuu6EqzC7UmYOSSXpiyLpQ7IeFU6nznB93m+5/DRim5Tk1pqVZ4Y/5/e2W7J69hGuvSiuvfCersfnC8Klp6MNA6r5G4RLT/uRgFoXV4TLutjDvfGxV/u48i+XIVxGCdeFjEIZ9wrP30KiHpWoaGLiWOF6brmMfiFR1v18THzNbZpTzEffvq6yRb7613qkKwrpUlwOf2aJ5JwpezSgGn5y9XSpjH0lWbzSoWsIYadviXAZnyB5hVG7nifCBdN2ZbM3xzXkqYWSdTBPAoE220uXLZYUdje7pfZv7Ug8TbIXZbIXjYh45bVOFi7VRhNeWyEn9+aZ/2yuu/ckc/c1mfj6Sq7DKK/D3PMVnSbyRv8Q4TI6ovffD+EiOe1NEmjn30G4YNrOfPbm2FIXZYrPZ/99XLYXLvX8rYWT95DoRZnoeUWiojlPpwuXOteZg1OlscanJ7vs5l2b6/2yYsYhGU3VwqjuRfkXEK7edKA9/U43qBr6XwgXyWlPLDrt/xEumHYasz0dr3oeV3NTKzNckSwr7G6Gq7GuRaa8kxJVkhNNEs5rY1um56T4uUG4VLxVufZ7d80toHHv3j3JPVsu33y0kWsxisEPhEtPcmOoVXXzZgiXnvbrKYHi//XFHeHSF1u4tSa2qjx8Q00TwhWrcF3NukGCF0WC5yQBMvtY3SJc6oHEqnrgXQukSz2IeezLyVyTEV6TCJeeDrgbRzL0vxAuPe1HYmpdXBEu62IP9/pif/lEEcLVk3B1N7ul/m9nchbJXYTJndkC47TPc4twqaqF88bukqob1jwQef64XVyTEV6TCJeeDtZQq+rmzRAuPe1H4mldXBEu62IP9/piv2XxCYQrVuFaMGk3yV2EyZ3TBMjs43WNcD23XMa9nCy7ks/K7223u0kX9fxXTlaZTHlnNddlBNclwqWng9VD9qPvinDpaT8ST+viinBZF3u41xf7n0ZuQ7hiEa66qib2jESQ1JktLk79PDcJl2qDqe+uluuXKh/NEjX/REnejuVZMuaFJKSrh+sT4dLTwWpGPPz2CJee9iPxtC6uCJd1sYd7fbEf/9oKqa2y9z4uy6sUdrek8PLJYpnyLiPpThUcux2324RLxXfuqO3ib7kZThDN+qa6tEkWTNwjcf0Ska5upAvh0tPBmsU5wqWn/Ug8rYsrwmVd7OFeX+xV4YwLGQW2nuWyVLi6ky31fwc2XJAJr/HsH7uJi1OPx43CNebFJPlt3UW5c/uuWTlo8HNU1cJzhwtlGgMi3QonwqWngzULdoRLT/uReFoXV4TLutjDvb7YD/1LguxOOYNwdbWssDvhagu0ydq5RxhB72b03KniY9Vxu1G4VCzVs7msWlq49qej3QqHVW1tl89FuPR0sAiXnriSELo/rgiX+9vYi9fxgMfnS+K3ByTgD9hWumw7w1VT3igLJlIwwy6JoxuOw63CpZb1Lf/qgDUPRK7zy9cfbkC6uhgYQbj0JDcIl564ejFR89o5I1xcO25lfvbwLVJVVo9wdTbL1d0MV+6FUpk5JJVErotEzg0CZPY5uFW4VBzHvbJCDqVekbt3zF9aeGJPrkx6k4eTd8YzwqUnuUG49MTVrYkY5/WAF4TrQSzgwl2xUDUfss+WIFwdhas72VL/l5WeJ5PfWoVwIVyGMeBm4VLJvpppsuLZXC0NAVn5/SGJe54CGh2lC+HS06EjXHriSgLq/rgiXO5vY69exyP+ukQy9+QgXNEIl1qDuW/tefZvIVuGyZZKhN0uXOocV35/WG7fMn+WK+98hcwYuMnQ9uooL078N8KlJ7lBuPTE1auJmpfOG+Hi2nEr7/0fny/bE0+Lz+e3pXRZtoeruxmuhtpmWTEzneQN4TKUAS8I16Q3UiRje47cMXlpoUqAD2+5KuNfWWFomzlRstofM8KlJ7lBuPTE1a2JGOf1gBeE60Es4MJ9sVg0dY/U1zQjXO1nuboTrqrSelFPjW6fuPD9cuIRo4B6QbjUdTLn0zQpza8zKycNf06g9XdZOHEPnLbjFOHS06GHodP8DWXh9bQfia51cUW4rIs93OuP/Vf/Xi/lRbUIV6TCdSO/Wia/zf4tJNNYyfSKcI19KUk2Lzwpbb7fNaejj7593oUKmcK1G5ZOhEtPB/soeXp+gnDpaT8ST+viinBZF3u41x97tY+rMLsC4YpUuM4fLZC4fsYm28gL8fSKcCnW1QPDLxwt0pOFdvOut36/I3tSzsvYF5PD0uHlaw/h0tPBdoOgof+FcOlpPxJP6+KKcFkXe7jXH/v+j82TM4fyEK5IhWvniiyStXbLkrycsBp57l4SLhW3GYNSpbkuYGgCGsmb1ZQ1y6LJe6la+NxyQbj0dLCRcGjEaxAuPe1H4mldXBEu62IP9+bEfsviEwhXpMK17KvfEC6Ey3AGvCZcqkz79mVZcvvWHSNyz4jf497de3L+aJH8559rDG9DIwXcjPdCuPR0sBHDGOMLES497UfiaV1cES7rYg/35sR+3ridCFekwvXtgI2eT9TMSAa99hleEy7VvurZXNmnSmNMO6P/9Vs3b8u6ucc8fx0jXHo62OiJ7N1vIFx62o/E07q4IlzWxR7uzYn9hDdTEK5IhKumslHGvJTk+UTNazJkxvl6UbhUXOMn7Jbq0qbeZZwx/JaqWvhtf28PniBcejrYGLCM6lcRLj3tR+JpXVwRLutiD/fmxH7wkwtEuUR757DD97Z7DtelE0Uy5kWEywwB8dpneFW4xr6ULHtWnjN9aaHKbE/uy5NJb6Z4dgAF4dLTwUZlTTG8GOHS034kntbFFeGyLvZwb07sB/4hXs4fK0C4QpbZ1XO49q87L6OfT/RsguY1CTLzfL0qXCrGX/zPWrmRWxtD6tm7X21tapPVs49IXD9vXtMIl54Otnc0Rv9bCJee9iPxtC6uCJd1sYd7c2I/4PH5sjM5C+HqSbiSZ6ZTEp6CGVqE28vCpaRLVQ68GbgVfdYZw2/cuydScLlKZg3doqVNzRT23nwWwqWng40Byah+FeHS034kntbFFeGyLvZwb07sVWn4hP/sQ7i6E67mxlaZOyrNk4lZb5I5fie6Z4t5XbjGv7pCDqy/ZPrSwnv37snRtOzgs8G8xizCpaeDjcqaYngxwqWn/Ug8rYsrwmVd7OHevNh/03+DNDW02Eq6bLWHq/R6jXz/8WaEixkuLQx4XbiU7MwcslmuX66KIQXt3a/6W3+XxdP2aWlXO0ucWcKVk1UmSqi90qH3jsLofwvhMi9B8gq7Vp8nwgXTVjNoxudPeXe1FOdVIVxqlquzPVxXThXL9H+t81xSZueE0U3HhnAtl9EvJMnan46Jr/lm9NlnjL9RdLVaJr+5ylPXt1nClXuuQqa9t0b6Pz7fE9IVI4oR/zrCRXJqRnJo5mcgXDBtJm9WfdbYl5PlQoa9CmfYaobr2I6rnq5o5ia5seO5IFz3l2COfSlJMrbnRJx0GvXC27fuym/rLopP8TrbAAAgAElEQVS6EdqRDx3HZJZw5Z2vkK//vUFGPLvEE9JlFJM9vQ/CRXJqVcKo63MRLpjWxZad3nf4s4slPfUiM1ydzXCpn+1IOs0zuFhOqC0ZR7ge7Hmb/sF6qats7SnfNPz/6ypaJGHKPonzSCVSs4VLSePwZxbLgD7xrp7pMhzMLt4Q4SI5tVMSacSxIFwwbQRHdn+PQX9cIKkLMyUQaLONdNlmhqulySdr5xzRlmzrGL3mPR8k8E6IBcL1cHtt+PW43Lp5u4tUU8+P7929JxeOFskX/7vWE9e6FcI16h/LZfjTSrrcu7xQD52PvuvtW3ck68B12Zl8hr8xxkDtz3Yzk3ZPQEPHh3AhXCEW3P418ZsDoorxhYr1Wf3VNsJVXdYgCdP2eiIJc4KcuPEYEa6HhUvt+Tn9W76oKoJm/rn1+x3ZvOCEJ563Z4VwqWs3KF3PLHbt8kIzeb17567cuc3fWGOw/pcMUaPObk/y7H5+CBfCZXdGjTq+OaPSpLK0HuHqWDSjKKdSZg/35rN63Cg3djwnhOth4VJt9POo7VJeUG9m/hr8LH/L7/L9EPdXJLVKuELX3/Bnloh6CKRRHZhd3sd0YPnAmCOwYV4mwvVf1if7CJf1bWCX+6jbj+OL99fK9SvlCFdH4co+UyL/+Z81zHCxh0sbAwjXo8I15sUk2ZpwUn5vM3dpocre1FKtSW+kaGvvkHRY+dVq4VLnfn95obv2dMWc/fMGpkcA4bJHoo9w2aMd3C47djg/tVf88skihKujcJ05lE/BDGRLa/KNcD0qXCohn/L2Krl2ttz0BMzfclPW/nRU4volam13rwtXeE+Xi2a6TIeVD4w5AgiXPRJ9hMse7WAHIXH7MQx6YoGc2JuDcLUXLr8/IPvXnXdt0mVlwsdnP5AMhOtBLDpyMXv4Vmltaos5qYr2DW5cq5GfRmyTz/t1fWwdj9VJ/7bDDFcoXm4qGR8tZ7ze+gggXPZI9BEue7SD22XHLue3MzlLfD6/LaTLFkUzWpv9smFeBsLFDJdWBhCurqVm7EvJsjPpjOlVC+/evRd8JphblxbaSbiUeN0vGe/8PV3W6wNHEG0EEC57JPoIlz3awS5C4vbjWDnroKgq6FZXKFSfbwvhampolSVf7NOabIdGefnaddLt9tggXN23/TcfbZScrDIRc4sWSqD1d1n25W+uvP7tJlzh5YUOLxkfbbLP662PAMJlj0Qf4bJHO7hddOxyfr+M3iGN9S0IV2hZYUNts/zwyVZXJlxulxgnnR/C1b1wjX4+URK/SZemWr/p2VlpXp1MetN9BTTsJlzqenVDyXjTAeUDY44AwmWPRB/hskc72EVI3H4cqlJhfU0zwhUSrtrKRpn8lvuSLSfJiBeOFeHqXrgUA0q69q0+L2qpn5l/1LOO0jdekvGvrHDVwIsdhSt0ras9XU4tGW8mm3yWMRFAuOyR6CNc9mgHt4uOXc5v+LOLpaaiEeEKCVdJXrXEuXTTfCi54WvPyb7uGCFckbWBeiCyFc/maqhqlSXT9ruqaqGdhUtdb04tGW+MAvAuZkYA4bJHoo9w2aMd7CIkbj+O/o/Nk6JrlQhXSLjOHytw1ai2bnHg/SMTh45xQrgij1vydwflZsDcZ3Pdu3tPLh4rli/fX+ea+4HdhSu8p8thJePNFAU+y5gIIFz2SPQRLnu0g9tFx07nd+ZQHsIVEq796ykJ31EO+HfkchBprBCuyGOq9lMd3nJV1FI/M//cuX1X0paeFvVA5kjb1c6vs7twhWLntJLxZjLJZxkTAYTLHok+wmWPdrCTkLj9WHatzEK4QsK17udjrkiuQskLXyNP7M2MFcIVXbv8MGyLFF2tlnvmbueS1sY2Uc8FM5MNXZ/lFOFS5++kkvHGKADvYmYEEC57JPoIlz3awe2SY6fzS56ZjnCFhGvBpN2uSK50JW28b3Si0FW8EK7o4jj6hURZO+dYsGy7mYmZ+qxzhwtl4hvOL6TjJOEKLy90QMl4s3nk82KPAMJlj0Qf4bJHO9hJSNx+LD+N3IZwKeFqa7sp3w3ehHDx0GPtDCBc0QmXEtcJr62U80cKY8+2onwH9WwuJXtdybNTfu4k4VIxdUrJ+Chx4uU2iADCZY9EH+GyRzu4XXLsdH5T3lmFcCnhqqtuki/+Z63jEyunJIBePk6EK3rhUrx89a8N0lDdanrKVlZQLz+P2u7oCqZOE67Q/cHuJeNNh5EPjDkCCJc9En2Eyx7tYCchcfuxxD2faItncf2/trY2S8wvtJywOLdKpr67GuFihks7AwhX74Rr9AtJkhp/Qm76b8WcdEXzBupZYMd35jj6GX1OFS4lXnYuGR8NR7zWHhFAuOyR6CNc9mgHt0uOnc5v5H8vlcIc60vDWy5cV04Vy+S3VmlPtkMjt3ztXdLthrghXL1v+y/+d52cP1Ik90yuoOFvuSmJXx9w7P3BycIV3tNlw5Lx9lAIjiKaCCBc9kj0ES57tIOdhMTtx6JWbFzIKLBkcqn9pJblwpW5J9sVm+PdICRuPweEq/fCFdcvURZM2C3VpU3R5FiGvLb6RqNMeceZs+BOFq7Q/WD4M0ukv82kyxCweBNTI4Bw2SPRR7js0Q5ulxw7nd8nfRPkSNplhGvvmrMy/tVkx45gh5ISvvY+mTcrdghXbG2kpGvb0tNy+5a5z+ZSD0Q+uOmyjH9lhePuE24QLnV92q1kvKmmwIcZEgGEyx6JPsJlj3awk5C4/ViGPLVQdiSeRrhSF2S65iGnZokDn9M7cUC4ehe39rxNfnuVXL9UaUgCFs2bNNb4ZOkX+x1XQMMtwhVeXtgnXuzQOUfDDq+1RwQQLnsk+giXPdrBDvdRrxzDoD8ukFWzD3lbuNTaxuQZ6Y5LotonoHwfexJvVgwRLmPaauGkPaY/m0vNcl06fkO++td6R81yuUW41DVqp5Lx9lAIjiKaCCBc9kj0ES57tINXZMcO59n/sXmycPIeCQSsKRIY2sdl6R6uxroWWTRlj6MSKLPkgM8xRg7axxHhMiam415ZIbuSz8rt3+9Ek2/F/Nq7d+4FP3fsS85Zguwm4QpdS2oDstV7umKGKYo3uHP7rty+dYe/McZg3c8Zokaa7ZCAefkYEC6Ey4v8q4cfN9Q1WzrLZalwVZbUy6+jtyNclIQ3hQGEyxjhUon3dwM3Se7ZctOrFrY0BGTuZ865Z7hRuFT739/TZd3ywih8KaaXKtE6uTdPti05xd8YYzBjUKoM6DMf4fovaxN+hMva+HtRduxwzt8N2iTlRbXeFa6ia1Uye8RWU5Lt0OgsX41Lup0WS4TLuLYf/XyiJH93UFob22JKaHvzy5cyimXCaysdcd9wq3A92NNlTQLdG2568zsB3+8yd9R2JMFiSbBDwuaWY0C4EC63sBzNeXzx/lq5fqXcu8J17VypzBi8yRGJk9PkguN9VC4QrkdjEgsn415OlmNp2SL3epPK9v531AOYN83PFPX0+FiO34zfdatwqdhZuaer9/RE95sIF8lpNEmdE16LcMG0Ezg1+hgnvbVKrmbd8K5wXcgolOkfrLN90mRGYsZnGCsDncUT4TI+xlPfWS1VN8x/NldFYYP8/PkO2xfccbNwha4x9ZyuASY/pys6ber9qxEuklOjEz+r3w/hgmmrGbTi80e/mCRnD+V7V7hOH8iVKe+sQrjYw2UKAwiX8cKlns21evZR06sW3r1zVzJ3XZMpb9v7/uEF4VLiNfzpxTLAxJLxvVeo6H4T4SI5tSI51PmZCBdM6+TLru898u9LJXN3jneFK2NntmP2YoRGc/lqfNJuVkwRLj1tp2a5Tu3LM72ARqD19+A+MrP46c3neEW4wnu6TJrpik6bev9qhIvk1K4JZG+PC+GC6d6y8//ZOw+vOK5s3c8/9GZ875159419w9wr5zDO4yhZjrI9NkLJyjlaGUWQRBIgchJZCBASUYAAgcg5Z2hEkG1J+61dcqNWq5uuqq6qrvCxFqtTdXXVPl9Vfb/a5+xj5O999f/OUn5irXWB62pcjSHGYcgxWviOOubem7gCuNRrk8PfpVJPy6jm47nGh+7SxnciNcmQytGeVYDLHhutSsbLRyhp3wRwwZwa2WS62nYAFzTtShdmf4+7vWeEV1gTuGZn5ig9pEK3RsluIPConknXOrYALvXakrsWRh8pontzv0pztAosXZBQR2teDdPlucRqwMXH9KOS8epWL1RANqJWAeCCOTWbEQVwQdNm07TY/Uk4U0Izd2d9Bl0+m4dreuouxZ8s1qVJ0hoE8HvqgYBjbAFc6sZ53evhVFfcLcrIKrnQ1Ogsnd+aq8tziRWBa6F7oYpzLimpn8XWBeCCORVr5oyyHIALmjaKVpXezos/F9DUxLT1gGti1EYX9xfo0iQ5mnQ8V9ekaxlfAJf6bXn4+xTiyYm1/Hv44CHVl/XQjk9idXc+sSJw8TGtdsl4rfQF4II5Vdr0+Xp9AC5o2tca9NXvB23JofERm/WAa3RwkoI25+jOIGkJAPgt9QHAMcYALvXj7f9iCCWcKqV7879p5YmF33nw4CHlRFbT6lf01bXQqsBlP+54TJcaJeO1EheAC+bUV+ZQrd8FcEHTamlL7+s94pdKw30T1gOuod5xCliVBuBCSXjNNADgUh+42Ghv/yiGbhd1EUOQln+cWQvwT9dMT3aoWOzR6sDFsVGjZLxWugJwwZzq3URK3T4AFzQtVTNmWX7fV4nU3zVqPeDq7xqjg98m68ocLWac8Jk2Zl3NOAO4tGlDLqBxZn02TY7MaOWLF36nobxXVwU0AFy/dy/keboULBm/0OAqPwFwwZyaxWza9wPABU3btWC1x20fx1Bv+4j1gKu3bYT2fB4P4EKGSzMNALi0AS6G5pUvhFBm+C3N5+b6Zf43SjpTRv4vhGimq8VuEgC4HmtOyZLxKnPWwuoBXDCnZjOlAC5o2myaFrs/G96OoK7mIesBF+/0tg9jdGGKFjNM+OyxYTJ6LABc2rbl2tfCqad5dMG8avVkqHuKjvunk98SbffX1fEB4HqyDZQqGa+VlgBcMKdizZxRlgNwQdNG0arS2+n/Ugi13xmwHnC1NwzQ+rciAFzIcGmmAQDXk+bXFSAo/d6Fbbk0Palt1cIH9x8Qt7UeJkQGcD2pOaVKxgO4YBqVNmNWWR+AC8eOVbTuvJ/f/VcQtdT2WQ+4Wm/30xqdVRRT2mxifU+aLV/HA8ClfXuseyOcriXWa15AY372FwrfW0A8nsyXugNwPa05JUrGA7hgGp3NFF6L0wSAS1ycoCfzxenL/3uGmm71Wg+4Gqp6fGqEfGnC8NtPmzAtYgLg8k3c9yyPp5aaAc3Hc02NzggVE7XQlrvfAHC515w3JeMBXOYzQzC42rQpgEubOEPP+ovz0j8GUF1Zp/WA61ZhG4AL3Qk11QCAy735dQcMSr0ftqeAZqfvaeWTF37nekqDT6sWArgW15zckvELDazyE4zh0p9pgpH1rk0AXN7FD/ozdvzKc5utB1zFGQ2amm2ljCPWs7iB0nN8AFy+a7s1r4ZR+ZVWle3x06vnubmCd1z12bkGwLW45hbGdEksGf90S6vzDoDL2OYK5vjp9gNwPR0T6MQ6MSlMqbMecF2Nq/WZCdIzFGDbFjdo3sQHwKVebMW0y66lcaTVxd5uvx8+fEhNVf20+zPfTEEB4BKnuRXPBdFSCdBlb1+1HwFc1jFiVjHdWp2Db+a20rf/GURWiSv20xjnisyLldYDrvTQCgAXuhRqqgEAlzjzKwae5Cyz8oVgivy5kObu/qK2T35i/ffvP6Dc6FqfdC0EcInXnJSS8U80sIovAFzGMFEwu+LbCcAlPlbQlflilXimxHrAlRJUpqnZlmMQ8R3xZskIsQJw+b49N78XRRW5rfTg/kMVbfLTq7aNzdLJNZman3MAXOI1t9C98JmTHu+KP93C6rwD4DKf4bK6iQZwQdNWPgaij123HnDFnSjS3PwYAQqwjeINmtRYAbjUi63YtuDJiI+vTKeRfps6DnmRtbZUD9Dql0M1Pe8AuKRpTmzJ+EWaWdGPAFwwp2YzpwAuaNpsmpayP+H7860HXJGHCjU1PmINIZaTZpCMFC8Alz7alqEr/kQJ/fbrfUXNsaeV/fbrA7p8voL8XwzR7NwD4JKnOS4Zv9iYLk9trdTnAC6YUylmzgjLArigaSPoVK1tPL8j13rAFbo7TzPTYyQowLbKM2hi4gbgUi+2YuLvuMzqV8KoqbJPKV8sej3DvVMU4J9OPy7RJhYALvlxfjSmy3X3QtEN7uWCAC6YU7WMn6/WC+CCpn2lPT387un1WdYDrvPbrgC4UDRDUw0AuOSbX0dYUur5ybWZNDU666Ullvb1B/cfUHlOC216N0oT7QG45Gvu8ZiuE0+N6ZLW6vKXBnDBnOrBJCq5DQAuaFpJPRltXcf806wHXKfWZ2lieJQyh1iPfOOkl9gBuPTVhmteCaPMsCrNuxbem/uVog5ep5XPB6t+DgJweac5d2O65COUtG8CuGBOjWYoPW0vgAua9qQRM39+8Ptk6wHX8ZVpqpsdvRh9bId3pkup+AG49NEOju254+NYqi/toYcPtK1aODE8Q7uWqT83F4BLGc3xPF3LHObpkoZN8pcGcMGcms18ArigabNpWsr+7Pk83nrAdfDbZAAXuhRqqgEAlzLm1xGYlHh+dmMO2cbn5Ltimd8sTm+i1a+oW7UQwKWc5lY8G0jLfi8ZL7PJJX8NwAVzKsXMGWFZABc0bQSdqrWN2z6Kth5w7f08QVOzrYQxxDqUM0++iCWAS5/tt+qlUCpIrJdshr39wt3JeQrZqW7xHgCXcppbGNP1pxPeNr3o7wO4YE7VMn6+Wi+AC5r2lfb08Lsb3o2yHnDt+CQWwIUMl6YaAHApZ36VBuaN70RSX9u4aCOsyIIPidpuD9K+LxJV0yGAS3nNccl4rf4AXDCnejCJSm4DgAuaVlJPRlvXmlfDrAdcWz+IVs3kKG0GsT7lTZMvYgrg0m87+j0fTME784izTlr+3f/tAV2NuU1rXw9X5XwE4FJHc1ppBMAFc2o0Q+lpewFc0LQnjZj585UvhlgPuLb845IqBscXRh6/qY6pUjquAC59t9P6NyPoRmoDMQRp+cfjx06vz1blfATgUkdzWukDwAVzajbzCeCCps2maSn7w3Nwzs/P++T/D7764U3vRKpicJQ26VifOobJF3EFcOm/LQ98nUy9rRp3LSSijvphWv2y8gU0AFzqaA7ABdMoxWRh2cd6AXA9jgV0Yb1YfP8/530CW8xaPgOu9W9FALgwhktTDQC41DG/SsNz+N4C4rmytPx78OAhZYRUEhfwUHJ/AFzqaE4rbSDDZT1DZnYTDuCCps2u8cX279v/DLIgcL0J4FLS2GFdno0dgMtzjPSgI4aeWwUdWnnqhd9hI3JidQaAywA3ghYaTeUnAC6Y08XMmxE/A3BB00bUrVLbvOK5QOsB19o31BmkrgfDiG3Qp7EHcOmzXVwdL4e+S6GxgWmV7fSTq39w/wHdvNJKm9+LUgy6WmsHn/wRlV61VA+QlSq/qhTGp1YL4II5Vcro6WU9AC5oWi9a9MV2rPjrWesB1+pXwxQzNa4MG94zjrnWqq0AXMbRhP+LIRQXUKJ518Jf7v1GcQHF5P9CiCLnJy47r8UfgEudKAO4YE59YQrV/E0AFzStpr70vu6v/v2M9YDLX+GxElqZdvyOcUy7c1sBuIzVdlvev0RV+e3EmSct/8YHpxWbm6vt9pAmmw7gUifMAC6YU70bSKnbB+CCpqVqxkzLf/7nU9YDLq6F72yI8dpYhtho7QXgMp6+AlZl0PjQXXXc9CJrLc9uoVUKVC1srwNwqXGeWKTpFP0IwAVzaiazyfsC4IKmzaZpKfvz2b+ctB5w+S0xnvlTwzhgndrpAMClXayV0jV3LcwIrVLURItZ2YztHoXszPP6plDHHQCXUlpwXI+YNlRiGQAXzKkUM2eEZQFc0LQRdKrWNi790wkAl+PFFM+NZ4yN0GYALmPqijNNLTXajIVyNOndTaN04Oskr6Cr886w4ypVe44uheqEFsAFc6qW8fPVegFc0LSvtKeH37UkcKFLoTHNrxHAyt02ArgMqrklF+j0T9k0OTKjjqt2s9b7vz6g/Pg6+umNi7Khq7NhxM3alX0bwKVsPO1rA3DBnOrBJCq5DQAuaFpJPRltXZbsUoiiGQY1vwaYowfAZT5trXs9nHJjaum3X+7bvbAmj9MTc3R2Q7Zs4OpqBHC5Ox69eV+TxiciABfMqdEMpaftBXBB0540YubPLVk0A2XhzWeKvTFQWnwXGS5ja273snjiea0ePtTKbj/6nZ6WMVrzqrx5AzvQpVA2rC52TtBKAQAumFOzmU8AFzRtNk1L2R9LloXHxMfGNr+LmSG9fgbgMr7mgjZfoZmpea389sLvcOGOVS9Jr6zKXf20+EOXQnWiDOCCOZVi5oywLIALmjaCTtXaRktOfLz+zQhV7nzq1exju3xv9gFcvm8Db48Drlp4PaVBHXe9yFrHBqbp5NpMyeeshpu9i6xVuY8AXMrF0nFNAC6YU7WMn6/WC+CCpn2lPT387ornAq1XpXD9WwAub80nvi8NIABc0uKlV33t/iyehronHX2x6s8f3H9IlXlttPm9S5Kgq7aoS/Vt4x8AcKkTZgAXzKkeTKKS2wDggqaV1JPR1vXtfwZZD7g2vRMpybjo1fxhu4xj4gFcxmmrxY6rlc8HU9iefOK5srT8+/WX+5R0pkxS10KGNC3+AFzqRBnABXNqNEPpaXsBXNC0J42Y+fPv/+e89YBryz+k3SlezIDhM3MYabXbEcBlHp1sfDuSitOb6P5vD9Rx2m7Wyl0LD65IFn2zqCyr2c2alH0bwKVsPO1rA3DBnJrNfAK4oGmzaVrK/vy45IL1gGvrB9GiTYvaRhzrN48RX6wtAVzmaueD36bQUJe2XQvZiHPWiseSLaY1+2c3LjfavbuqjwAudcIL4II5lWLmjLAsgAuaNoJO1dpGngN4fn7eJ/9/8NUP7/gkVpRhsRsXPJrLLPuiPQFc5tIQdy2MOVpEDx9oWyeeTXj43gLyWxLs8RxWkFCvDgk4rRXA5RQQhV4CuGBO1TJ+vlovgAua9pX29PC7a14N8wlsMWv5DLj2fp7g0az4wpTjN81lyh3bE8Blvrb1ez6Y6kt7iLRlLuptHaMDX3vuWpgTVaOQ9V98NQCuxeMj91MAF8ypHkyiktsA4IKmldST0da14d0o6wHXwW89mxVHs4zn5jPLWrcpgMucGjrml0Yj/Ta5nlrW93779T5x9uqnv19c9MZR6vmbstYv9UsALqkRE7c8gAvm1GiG0tP2ArigaU8aMfPn2z6Kth5wHV+ZtqhR0dqM4/fMacYd2xXAZc42Xv1KGKUFV9Iv934T56IVWmp6co4CN+WQ3xL3ceUuj1r8AbjUiTKAC+bUbOYTwAVNm03TUvZnz+fx1gOuU+uzAFz/696oOYICnisTJwCXMnHUox63vH+Jbhd1aT6eq69tnDYsMqdgyM48dUjAaa0ALqeAKPQSwAVzKsXMGWFZABc0bQSdqrWNB79Pth5wnd92BcAF4NJUAwAu8wIXQ+CJ1Rk0OTKjkNUWv5r0kEq3VQtPrcsSvyIvlgRweRG8Rb4K4II5Vcv4+Wq9AC5o2lfa08PvHvNPsx5whe7O09Rs6/GuPLZJWwAAcGkbb631vfKFYMqOqF7EPqvz0Wj/NB1fme7yfHbouxR1ftRprQAup4Ao9HJ+5hc68uNl0oNRwDbAKCuhAQAXdKSEjoy6jtPrs6wHXJGHCl0aFK1NGn7P3CbcsX0BXOZva57fr7t5VCG7LW41D+4/pIqrbbTp3ainzml7lsfT/fvqT84M4BLXVlKXmp/9lU6uzaSlfzoB6Po/MKpGNZmO2w3ggo4d9WC15+d35FoPuOJOFD1lThzNMZ6b3xxr3cYALvNriufGOrMhm6ZGZ6V6a6+W/2X+N0o4WfJU18Kdn8bR7PQ9r9Yt5ssALjFRkr4MA1fQ5iv07X8E0TJAF6DTBNAJ4AJwWQ2yHPc3fH++9YArJagMwIUxXJpqAMBlfuBiiOdS7fnxdfTrL/elO2wvvjHQMUH7vkh8QtPbP46hiaG7XqxV3FcBXOLiJHUpO3CxrlY8G0jLnjkJ6DABdDgaMKs9B3ABuKymecf9jT523XrAlR5a8YQx0Trbgd+zhvl2bGcAl3XanCdW72nRtmvhw4cPqTi96YnzGndx5EqGav8BuNSJsCNw/fA/v0MXMl2ATgNDJ4ALwOUIIFZ7nnimxHrAlRdf+4QxcTTGeG4dY6xlWwO4rKMr7loYvP2q5nNz2Q06/z5rm8d1NVX2q0MDDmsFcDkEQ8Gn9vZ0PE9x90KM6YJpNapRBXBBu0bVrhLbnRVRaT3gKs5sAHChS6GmGgBwWQe47Aa5PKeFOPOk2d9Dorbbg7Tjk1hB2+vfjKDKvDbVfx7ApU6IXQEXa2vFc9y9EIU0lDBAWIe2AADg0jbe0Le+4l2YWmc94Kq+3q6p2bYbMDxaz3Tb2xzAZb22P/B1MvHYKi3/7s39Sqnnb9Lql0Np7WvhVJh0R/WfB3CpE2J3wLXQvRDQhe6FButeCODSFwAAyLRtj5t5LdYDrsaqHgAXMlyaagDAZT3g8n8xhOJPlhBDkJZ//e3jdODrJFr1cihlhFap/tMALnVC7A64+CaOAF3PBaJ7ocGAw+oGF8ClrcG3ut70tP9L/xhAdWVd1gOu1tv9tPqVME0Ntz3TgUfrGW9ucwCXNdudu/WVZbfQAw3mw3K0/cXpjbTm1TCKOVZEpHKvRgCXY+SVe74YcNmvIygZDwOrJ1PpaVsAXNCrJ42Y9fOv/v0MNVX3Wg+42hsGaf1bEQAuZLk00wCAy3eKk9kAACAASURBVJrAxcb48PepNNw7pZwTF7EmNuvH/NIodHe+6iXqAVwiGkTGImKAi/WFkvEwsUYxqQAuaNUoWlV6O7/7ryBqqe2zHnB1NQ/Rtg+jNTPb9ruReLSu6QZwWbft/Z4PpoSTpTIst3dfqS3qotBd+XR3ct67FXn4NoDLQ4BkfiwWuBbGdKFkPMZ06byLJYALwKU0yBhlfdzFv/1Ov/WAq7dthPZ8ngDgQoZLMw0AuKwLXHyjhSdEbqzoIy2LFvLYsZ6mUbo3/5tMyy/uawAucXGSupRY4LLfyFvxHErGG8V8WXU7AVwALqtqf8M7kdTVPGg94OrvGqND36VoZrbtF0SrPHKxAJ4DaNfSONr3ZaIwgH/v54m089M42vh2JK18/tE8QVaJB+8ngMvawPXjkgsU4J9OYwPTUn237pcHcKnTRFKBi88zKBkPQ6tnQwvggj71rE81t237JzHU2z5iPeAa6h2ngNXpAC4FM1w82SoD1sX91yj3Ui3dutZBbMS6G0eot3WMOhuGqbmqnyrz2iknsoaCd+bRtg9jiLtbWQG8AFwWB67/vUBrXwujzLAqzasWqoMDj9cK4HocCyWfyQGuhe6Fz5xE9zqdd69T09zpdd0ALgCXXrWp9nbt+yqR+rtGrQdco4NTFLT1iiWMvhYws/OTWMqNrqW+9nG6OzVPDx4sXhbtwf2HZBufo+6mUcqNrqFN70SZvi0AXAAuPha3fxRDrbWDqlcOVNL4e1oXgMtThOR9Lge4WGMoGQ9Tq7Z5lLt+ABe0KVc7Rv/eUb/LNNw/YT3gmhi10cX9BaY3+WrD1o6PYygr/JYATw89QJY7y8HfmxqdpZSgm7T1g2jiTJna2+2L9QO4AFx23Z1YnUEzNnULWbg73tR4H8ClRlSJ5AKXXWdcMn4pCmkg06ejTB+AC8BldHCSu/2c5GH2mJ+f98n/H3z1w9NTM5RwqsSUxt5+sVXzkbsBcqnrR0UAFs9mibUiv/36gG4Xd9ORHy6bsl0AXAAux2MyP76O5N6kEHtMabUcgEudSHsLXKy3R2O60L1QrknC95QFBACXsvGEPo0Tz4ifC8g2edcnsMWs5TPgmp2Zo/TQClMae0dTp8Zzhq1TazOp886wKhXXuhpH6MTqTNO1DYALwOV4PO5eFk+sdTP8AbjUaUUlgOvxmK4TyPToKNNjVaMM4DIOIFhVo2rtd+LZEpqZmbUecN27d4+uxtdapmCDo9Hz5jl39zuxJoP628dVuzv/8OFDocgGQ52ZCmoAuABcjsfeyheCKXxvgTDmUR27rt1aAVzqxFoJ4GLNYUwXTK5aJlLqegFc0KJUzZhh+c+eOUkZ4RU+gy2fZrgYuIrSG2jta+Gmy6Q4mjqlnx9ckULDvVPquAuntTLUHfdPJy6nrfR++GJ9AC5ztKOS2ln7ejhdS6yn336976R+Y70EcKnTXkoBl12zPE/XMozpQqbPh5k+ABeAywwAJXUfvv7rWcpPrLUucN282kI8EZn9YoTHxQ3xxneiqL60Rx1n4WatbOR43i4ztA2Aa3F9maGN5ezD/i8ThYyum0PAEG8DuNRpJgbxyrw2ygy/pcx/WBWlnrtJSWfK8O8hBv4vhQLMVAAzABeASyqsmGH57//7HBVnNloXuGqLO2jbRzGmMPNyjJ6U73DXvuTAcvpl/jd1nIWbtXJRgYzQSlO0EYALwOXqmONuuhf3XVNlPKSbw0rxtwFciocUK/RxBPYsTwBwAbigARU0YAaAkroP/i+FUGVBq3WBq+lWL+35PN4UZt6VkVPyvWM/ptFA54RPLoHjQ3fp+ErjT1IN4AJwuTsmV70cSrcK2lUbF6n2gQvgUjvCWL/WEdj9WTzMtgpmGxkuZLikwooZll//VgTdqei2LnB1Ng3RwW9TAFz/u7gRXvNqGOVE1dCD+w+0vuYJv3f/twd0I9X44+0AXIvrzB2MWOV9Hh/pq5sa3h7YAC5vI4jv6y0Cu5YBuNQwugAuAJcautL7Ord8cIna7/RbF7iGesbp+EpzzvmkpEndtTTO52NM+trH6dB3xoZjABeAa7HjcvXLoZR8tozmZn7Rm/f0uD0ALo8hwgIGi8DOT+OQ4UKGCxpQQQN6hyM1to970w10jVoXuKbGp+nMhixkuDxkuM5vu0qcZfLlHw8ejz5yg1Y+H2zY9gJwAbgWAy7+bPN7UVRX0k08NYKR/gBcRmotbKuYCOwAcKkCG8hwIcOlBtDofZ2Hvk+hyTGbdYFrfv4ehe3NJz+TlB33ZObkfl6c3iTm+qT6MuU5LfTT3y8CuDxEurdljA6uSDZsnOTq1CzfO/RtCk0M3/XQyvr6GMClr/bA1ngfge2fxKoCHHo3hmpvH4ALwKW2xvS2/qV/DBCSO/Nz89YFLp6LK+F0Kfm/GAJzukiWq7d1zPurlwJr6Gkepa3/iDZsWyHDhQyXWCi8fKGCHjwwTpYLwKXACQ6r0FUEuIKx3oybGbYHwAXgMoOOpezD8n89RREHr/kUtnw+8TEDV07ULVrzaqhhTbxYAyd3OS5ZfW/uV11cCGds94j71cvdF19/D8AF4BKrQb6xwBBjlD8Al1FaCtspNgLbPgRwSTGVYpcFcAG4xGrFLMt98ZfTdDn4JoCrJKuR1r1h3G5qYg2c3OXWvxkh9vqk+nI8rOXA10kALg+RRpdC44Md3+g4uyGbJoZnPLS2Pj4GcOmjHbAVykVg6wfRyHCpUDABwAXgMgtIid2Pb/56lq6n1QO46su7iaFCLpCY/Xt8p11Pf0d/TDNsWyHDZXwQ0vJ45+kYsiOq6Zd72k42Lud4B3DJiRq+o+cIbPkHgEusoZSyHIALwCVFL2ZY9tv/CKLakg4AV3fLEG18J9KwJl5tA7jl/Uu6uiYe/cG4ZfwBXAAuqccrd6FtrxvS1THoamMAXK6igveMHIHN719ChgsZLmhABQ2YAaKk7MP3fztHnU2DAK7xERsxVEg1QlZZnqsC6ulv/1foUuipPdCl0ERgt+QCnVmfrfsy8QAuT0clPjdaBDa9B+CSYirFLosMFzJcYrViluX8ng+m8VHfloTXRdEMLg2/54sEANciVQpnp+/p4lppG5+jHZ/EGratkOEyEQgtcryocTPmekoDPbiv36qFAC5dnCKxEQpGYNO7UchuqJDdAHABuMwCUmL3Y8M7kT7PbukCuLhS4en1mYY18WqYO+d16qVLU0f9EHE3D+ftM8prABeAS65W9yxPoK7GEQXtpLKrAnApG0+szfcR4KEGYg0VlhMPEQAu8bGCrswRK570mIHH1/9/8NUGMGjZ/2OO3zCsiZdr4KR8Ly+uzvdXPyK6cbmR1r0ebti2AnABuKQcd47L8lyB0Udu0IxtXhfHovNGALicI4LXRo/AhrcBXGoYfgCXOSBCDW2YdZ1he/N9Dlu6yXDlxtYY1sQ7mjK1np9el0W//nLfp9fPX+Z/o4j914jLZau1n2qvF8AF4PJGYzyesiy7hR7cf+DTY9HVjwO4XEUF7xk5AuvfikCGC10KoQEVNGBWsHK3XxnhFQAue4arpqjDsCbeGwMn9rs8AWTzLd9OwtpxZ5j2fZFo6HYCcAG4xB5z7pbb+0UCDXZN6s7HArh01yTYIC8jwNPFuDNQeF9+lgYZLvmxg+6MGbvKglYAlx24elqHyW8JzKA7k7fqpVBKDiz32XxAnF3LiaqmVS+HArhEmAhUKTT3sRxzrIju6yzLBeAScWBiEUNFYN3fLwK4VMhuALiMCQ2APXnttvSPAbooCa+bLoWjg5OY/NhD1bW9nydQZ4NvBu0P904R39l3B4RGeR8ZLnODkFY63PBWJNWXdOvKvAK4dNUc2BgFIrDuDQCXGiYbwCXPuKvRFlin+m3Bkx6PDEwiw2XPcE2M2ujAN8ad30kTo7fkAl3cd41mbNqWiP/tl/t0cf81+tEEGUgAF4BLqWP1yD8v66prIYBLAYePVegqAmtfD0eGCxkuaEAFDVgJ9LZ+cIl4vl9fFQh0/F1dVCmcmrhLQVtyDJ9BUcrMuVsPdy0sTL6j2SSs9397QOXZLcS/626bjPQ+gAvApZReuXttStBNmp/9VRcmFcCli2bARigYgTWvhcFsq2C2keFSP6tiJaDR+74eW5lGk+PTAC57huuubZZiA4pMYeqVMnTu1rPtoxi6XdytOnQ9ePCQ6kq6afeyeNO0C4ALwOXuuJLz/tZ/RFPDzV4iHcyHDOBS0OljVbqIwJpXAVxqmFkAF4BLDV3pdZ3h+/NpemoGwGUHrtnZOboSU20aYy/HvIn9DhcX2fdlIt0p76UH99VxerzehvJe2vd5gqHLwDvHFMAF4HLWhLevj/x4mebnfJ/lAnDpghGwEQpGYPUrochwIcMFDaigAb3CkRrblR5WQTMzswAuO3DxI5dt9H8pBNDloXiG3SDu+DiWynNa6Nd7vyl4iSO6N/8bVeW306Z3o0zXFgAuAJf9+FHyMeviLeLut778A3D5Mvr4bTUiwF3Z1TBgVl8nMlzIcFnlGFj+b6eoNKdRF7ClmyqFDFyNVT205R/mM/lKGjvndXG1tJyoGpoYnvH6evfw4UMa7Z+mzPBbtOkdc7bDua25wv7xPqr5H3O0iDa/d8l0wOqsP7x+BLDc1jyeS01NeVp3xM+FtP7vEZbRnKd4WP3zjNAqQZNJZ8rIqP/fPBsI4FIhuxH5c6Emmji5NpO++MtptKEKbWgVYPJ2P/2eD6a6sk4Al2N2i593Ng3SwRWoVCjVxK59LZzObsimmuudxBUF5fw9uP+AynJaKGBVOq19Ncwypk1qrLE8MmTQADRgBA388D8XaMWzgbTsTydgeGF4oQFowJIa4AqFbfX9AC5n4Brum6Czm7Jh9kV2KXS86PstCSbu737kh8tUktFEQ92TND0xR/fmfhW6OnH2iv+4EMZvv94XKqvZxueov32criXW06HvUoVJjTH5NMyko67wHHqABoytAZ6DZimgy5Jm09vsAL6ProdG18CRH1NpsGccwOUMXFxFJOpwIYBLBnA5miKGr43vRBKn8xNOldLVmNtUdLmRSrOa6XpKA12JqqG4gGIhm/XT3y8i3l7G2zH2eG5sc4r2Q/uZUQMrngukZc8g02V084jtBwBBA9I0ELzzKtkm7wK4nIGLB5SlhdxE4QwAACAQGoAGoAFoQCENLHQvBHQh04WuddCARTSw/F9PUeKZEpqbmwdwOQMXv76edoeQdcFdZjPeZcY+QdfQADTgKw0I0PVcILoXWsRsIhMiLROCeJkvXiv+I5DyEmp1A1u6qlLIwFVf3k08sa+vLkr4XRgiaAAagAagAbNqgMd0oZCG+cwlgAFtCg08qYFVL4dSbXEHgItJz1WGq7dtRJjU16wXO+wXjBw0AA1AA9CALzUgVC985iS6ViHbBQ1AA6bVwMZ3I6m7ZQjA5Q64eHDbkR9SkeFSqO++Ly/q+G2YSmgAGoAG9KeBhTFdqF5oWrOJbMeT2Q7Ew3rx2Lk0lqYmpgFc7oCLs17h+/IJ5cn1d5GGcUKbQAPQADRgHg2gZLz1TCjAA21uBQ0s/WMABW7O1hVs6W4MFwNXbkwNrXw+GFkuZLmgAWgAGoAGoAEVNYCS8TDgVjDg2Edr6ZzHqaaHVwC4mPIWy3DVl3eR/4shuMiqeJHFXWrz3KVGW6ItoQFoQK4GFroXomQ8uhdiPBM0YBINfPYvJ6mmqB3A5Qm4RoemMBcXYAvADQ1AA9AANKCBBlAy3lp3/5HtQXubXQOf//kUjQ5OArg8ARd3K9y9LA4XWg0utHLviuJ7uKMODUAD0IC5NICS8TDiZjfi2D9raPynNy/qDraYff5gByCtH12Vhbe/d35HLoALwAUNQAPQADQADWioAZSMt4YhBXignc2sgRNr0gFcjlBnhytXjxnhlbjIaniRxZ1qc92pRnuiPaEBaECOBhbGdKFkPMbzmGQ8j5nBAvvmGpyTAssAXGKBiwe7oTQ8DIMcw4DvQDfQADQADXingRXPBdFSQBegC9AFDRhMA1wSvqKgBcAlFri6W4dpw9sRyHIhywUNQAPQADQADfhAAygZ7/ruObIKiAs0oF8NfPdfQdTRMADgEgtcQ73jdOifKbjI+uAiizvD3t0ZRvwQP2gAGjCDBha6Fz5zEnf5DXaXH0CgXyBA26jbNts/iaH+rjEAl1jgmhi1Ufi+fAAXgAsagAagAWgAGvCRBlAyXl1zCPON+EIDymrg7KZsGh+xAbjEAtfc7BzlXKomvyXBuND66EJrhju02AdkGqABaAAa8F4DXDIeY7qUNYYw2ognNKCsBvgclRZyk2ZmZgFcYoGLKxdW5LXQ+rcwjgtmwXuzgBgihtAANAANeKeBR2O60L0QJllZk4x4Ip5KaeDb/wyikqxGXcIW848u5+Fi4Gqp7aN9XyYiw4UMFzQADUAD0AA04GMNPB7TdQJjujCmCxqABnSngY3vRlJjVQ+AyzG7xc9dzb/l+N7IwCSdXpeJi6yPL7K4K+zdXWHED/GDBqABs2gAY7qQjVAqG4H1QEtKa+DnFUk03DcB4JIKXPNz8xR99DqtfB7juMxyscZ+wHhCA9AANGB8DfA8XcswT5fu7vArbWCxPkCRUTTA56PgXVeJa0A484ZeXuu2SyFnu/Liamnta+HIciHLBQ1AA9AANAAN6EgDK54NpGUoGQ/oQtc6aEAHGvjq/52lzIhK3cIWQ5+ugau+rIs2vhOJi6yOLrK4O238u9NoQ7QhNAANeKuBhTFdyHTBcOvAcBslE4PtVCdr+P3fzlFtcQeAy1U6z3G8lrvnY0NTtPPTOAAXgAsagAagAWgAGtChBlAyXh0DCWOOuEID4jWw5rUwGhueAnDJBS4GsdPrs3CR1eFF1tu7o/g+7rBDA9AANGAODTwqGY/qhTDI4g0yYoVYKamBQ9+n6Bq2dN+lkIErI6wCwAXgggagAWgAGoAGdKqBhe6FzwC6lDSRWBegBBoQp4HkoDIAl6vsFr/nrhuh8/sNFd24yOr0Iou70+a4O412RDtCA9CAtxpAyXhxxhAGGnGCBpTXQH15F4DLW+CaHJ+mDW9HALoAXdAANAANQAPQgM41wGO6UDJeeUMJk46YQgOuNfDPv52jiRF9j98yRJfCu7YZOoVxXDAZOjcZ3t4dxveRYYAGoAGzaAAl410bQxhmxAUaUF4Dh/+ZSrapu8hweZvhmp2do7SQmwAOAAc0AA1AA9AANGAADSyM6ULJeJSMR8l4aEBlDSSeLaGZmVkAl7fAxWO6aoo7aPWrYbjQGuBCa5Y7tNgPZBugAWgAGvBOAygZr/zdfGRIEFNo4LEGvvjLaaosaNU9bBmiSyEDV0fjIO37KhHABeCCBqABaAAagAYMpAGUjH9sDmGUEQtoQFkNbHw3klrr+gFc7rJb/L5zNcLFXo8MTNK5rVdwkTXQRRZ3hr27M4z4IX7QADRgBg0sdC9EyXh0LVO5axlgRlmYMUI8j/mn0XDfBIBLKeCanZmjlHNl5LckGNAF6IIGoAFoABqABgykAZSMt54RNoJZxzYaW5dL/3SCoo9ep5m7+h+/ZZguhZz9KrvSRBveicRF1kAXWTPcncU+IMsADUAD0IAyGkDJeGMbXAAK2k9PGvj+b+eoKL3BENktQwFXZ9MQ7f8S47hw4Vfmwo84Io7QADQADWivAZSMh2nXk2nHthhXjzx+q/3OAIBrse6E/NliY7ZcfcbzcZ3ZmE1+S7S/QOCijJhDA9AANAANQAPea2BhTBdKxmNMF8Z0QQMyNbD0jwF0+IdUmp6aAXApDVwMYRlhleT/Ygi6FaJbITQADUAD0AA0YGANrHguiHgMBjIMxs0woO3Qdr7SwPJ/PUXJ58oMA1uG6lLIwNVc00trMR8XTIaBTQbukHt/hxwxRAyhAXNoACXjYdh9Zdjxu8bW3lf/foaabvUCuDxlt+R0KWTg4m6F2z6MBnAAOKABaAAagAagAYNrYKF74TMnkemS2bUK4GBscED7yWu/VS+H0vTUXQCXWsDF0BW88yousga/yOLutDnuTqMd0Y7QADTgrQZQMl6e4YRRR9ysrIFTP2UaCrZ82qVQbparOLMBwAXgggagAWgAGoAGTKQBLhmPMV2ACCtDBPZdnP65YEZhaj2AS0x2y74MZ6yk/ne3DNH6NyNwoTXRhdbbO6T4Pu6yQwPQADRgfA08GtOF7oUw3uKMN+JkzTit+I9A6mgcBHDZYUrMo1TY4uVHBycpYFU6gAvABQ1AA9AANAANmEgDj8d0oXohYMKaMIF299zu+79OpJGBSQCXGNByXEYqdN21zVLK+XLMx2WiiyzuTBv/zjTaEG0IDUADSmgAY7o8G06YcsTIqhrg7oRxJ4sNNf+WnXn+YH/iq0epwMXLV19vpw1vo1uhEhc3rAMmCRqABqABaEBvGuB5upZhni5Ub0T1RmjAQQPf//c5Ks9tNlx2ixnLkMDV3TJMh/+Ziq4kyHJBA9AANAANQAMm1cCKZwNpGUrGw3A7GG6rZnaw34+ymjs+jTXk+C3DAte0bYbC9xegW6FJL7J6u9OK7cHdf2gAGoAGtNfAwpguZLoAXYAuy2uAq5gGbskh26Sx5t+y9yD0eYaLN0ROt8LClHr66Y2LuLMJ6IIGoAHFNeC35AKtfD6Y/F8MoVUvhQr/j54/+XrlC8Hk93yw4r8Pc6+9uUfM9RtzlIzHmCVkeKCBb549S7mxNYbsTqiLDJdc4OpqHqIdn8TC6MBsQwPQgGwNMERtejeSdi+Pp6M/ptLpnzLp/LYrdPFAPl06WkgJp4spOaiUkoJKKP5UESWeLaHkc6XCf8KZYoo5fp0iDxZQ8K5cCtycTSfWpNPB75Jp59JYYZwpAxmMvH6NPNrGOG3zqGQ8qhcCPAAeVtXAqldCqaNhAMBlT5nJeZST4Zq5O0cn1mTAzMBsQwPQgGgNcDZqy/tRdHJtOsWdLKK8hBq6mddE9RWd1Nk8QIO9ozQ+NknT09OS/qembDQyNE59ncPUdqePbpe1U1luI+XGVVNswA06vSFTgDBkw4xj8AFj+mqrhe6FzwC6rGq4sd/Whs0D3yTR3elZAJcc0LJ/Rw5w8XeyIqtEGy1cPPV18UR7oD200IDfkkfdArd+GC1krcqvNlF7Qx/1d4/Q2OgE2WzSwEoqiNlsNhobmaCBnhEB6KqL2oTs2FG/VFrzaigJXRKXQAtaaAG/YXydoWS8tQ03gMva7Z96odywsMW8o4sxXLwhcqCrp22EVr4QAuhChgMagAYea2DJBVr3Rjjt+TyeLh0pFLJNcrJWUuFK6vK9ncNChu3c1hza/VkcrX4l9PE+oD0RC2jArQZ4TBdKxlvbfAO+rNX+n/3LSepqGQJw2TNV3jzKAa6Zu7N04KtEtydl3NE0/h1NtCHaUIoG1r8ZQYFbsik39ha1N/TTtMoZLKmQ5Wr5yYkparndQ+lhN4kzXzyuTMo+Y1kcI1bUAErGW8twA7Cs3d6b348ydHdCw2e45ubmKfVcOcwJ7oRCAxbXAGeHTq/PpPKrjdTfNULclc8V3Oj5PR4Hdi3lNq1/E9VXrQgQ2Gdp4Lwwpgsl4y1fLhwwZn4YiztRRLOzc8hweZPZcvyunCxXQ2UPysNb3GzDqEgzKqaJ15ILtPa1MDqzIYtqS9tpdGjckKDlCIElWQ204a0I3EDAOQ0aEKkBlIw3v9kGUFm7jbkcfG1Jh6FhS1cZLt4YOcA12DOOaoUiL0ymMdrYX8ubsTWvhAll3LnK4OTklOGyWY6Q5fgcwGXRmwc4p3l1TkPJeGsbcgCZudt//9dJ1N85CuByzFB5+1wOcHGJyORzZcIkpQAKmBVowPwa4L7cqRfKqLOp3/AZLUfY4ucALvPrF+co5dt4oXshSsaje+H/MTd8WA0uuThO9LHrND01A+DyFrIcvy8HuPg75VdbhMlLcSFT/kKGmCKmetLA3i8SqPpGK42PSp8ryxlu9PgawIXjTU/Hm5G2BSXjARpWgxEr7O8//+c8lWQ1Gh62mHV0UxbeDl5yoGuod5yO+l32qkuCkS4s2FaYMqtpYNO7kZR4tpiG+kZV7z44NWmj0eEJYRLk/q5h6usapp72oSf+ezuGhLm8hvrHhGW50qASAAfgwrFttWNb6f1FyXiAlxVAxCr7uHt5PPHQITsjGPnRFMA1PzdPMcdvYE4ujAMAdJtQAzs/jaXCy3Wk1lxaPDFxW30f8aTI+Yk1lBZaTpeOFtL5bVfozIZMOvVTBh33T3viP2B1Gp3dmEUhu69S9LFCSjlfSlfjq6k0p4HuVHQSA5kcCANwAbiUBhArrg8l4wFdVgESM+8nz70Vti+f5gxendAOiaYALs6KVRW00rrXUU7ZihdX7LN5TerBb5OpsqCZbFPKlnnnLokVBc2UFFhCgZuz6ecVSbT5vShh8mG/JfLiueqlENr4TiTtWR5Hx1ZepuCduZQZUUH1NzuJoU5MBgzAJS/2OAcgbo4aWBjThZLxGNOFMV2G1cDXfz1L5VebTZHdYujSHXDxRsnpVjg1MU07Po1FhsOEGQ7HCymeW8NY+b8QQqfWZVBzTY8isMXzcnE3webbPZRyrpT2f51IP/39IjEkyQUsT1r0WxIsAByXed+zPJ4iDhZQbWkbDQ2M0cS46y6IAC5r6NuTdvC5MjpY8VwQLQV0GdZwmzl7g33znIVd81oYTY5PA7jsKTI1HuUAF38n4VQJgAvABQ0YXAMrnw+m89uvUF/nsKis0GKZIwatge4Robtg4JZsAbB8aWZXvhBCXPiDx6PVlLQ9GpNmm17YTwCXMkbbl22M39ZXG6JkvGdjC/OPGOlRA1GHC00DW6bKcDFwNd3qJf+XQmC4DW64YVj0ZVi0bI+VLwRT0JZs6ukYWoCQxYBqsc+4G9+11NsUtDWHNr6tv8mEt7wfRaF7rtKNuysOHQAAIABJREFU9Hri4hu8LwAu62pfy+PMSr+10L3wmZPI9KB7HTRgEA0s/7dTVF/eBeBSI6vluE65Ga7RwUn6+dskABeACxowoAa4ax93I2xv6KNph6zPYlDl7rP2O30UsjuXuDufns2l3/PBtPHtSDruf5mqCluoKKNe99us53hi2wCsrjSAkvHI4Ogxg4Ntcq/LbR/H0MjABIDLEY7Uei4HumbuzlJmeCXx2AlXJ128h4sxNKBPDfAxe2JNOnU09XuV2eJuiJeDy2jTu1Gqjc1SS0OrXwkV5hPkcWVq/QbWq0/9o120aRcuGY8xXe5NLgAAsdGDBniy45RzZXR32viTHTsyki6LZvAGygEu/s6dm9209YNLMCwGzHDAdGhjOvQY513L4qi5tkc2bE1N2aihqkso1Y4bLtbVkR61jW3Slx4fjelC90I9GGtsAwDPlQb8Xgim6hvtpspuMdfoFrjkQtdw3wSd2ZAF4AJwQQMG0cD6Ny9SUeYd2bA1OT5FZVcahe7EXHADBldfBhftgfbQkwYej+k6gfE8BhnP48qU4z3zwtrhf6bSUK85Jjs2RIZLLnDxJMgZYZW0+pUwGC+DGG49XYyxLdqawzWvhAoTDfO8WO7GYy32/uTkFGVGVApd8ZDZ0rbtcKwg3kbVAMZ0mdesA8SM3bZf/OU0JQWVmmayY1MDF3crbKntox2fYE4uo14Msd3WMHL+L4ZQ+L48GuwdlQVbI4PjlBFegTGbuLGCm2vQgCwN8DxdPF4EJt3YJh3tZ572W/VKKDVW9ZiuOyGDl+m6FDJw3bXN0tmN2bJOwDD71jD7aGfft/O+rxKo5ba8cVvD/WNCcQyevBht6fu2RBugDYyqgRXPBtIylIwHdKJ7pS40wN0JbVN3AVyOqTGtnsstnnHj8h0YMdz1hAZ0qgHu/sfzT/HExIt1GXT12fjYJKWH3SQe+2VUk4ftBqBAA/rQwMKYLmS6dGG4ka0yT7ZKTlvmJ9aaErZ0n+HiDZQLXLbJu7T+TX3PwYMLrj4uuGgHbduBYStk91WaGJ+SDFtcjbDwch3GaOoUpHEsaXssId7KxRsl461t9OXAAb6jrGb4GJwcnwZwaZXRcv4ducDF34s6XIg74DBm0IDONLD7szhqqu6WDFs22zTdLm2nzf/AtA8w2soZbcQSsbRr4FHJeIzpAkgoCxKIp7h4huy6alrYMkSGy5ssV21xB619LRyGW2eG235xw6P1jM6aV8PocnA5cbdAV90FF3uvtb6Xjq9KIz+Ufsc5Dec0aEAFDSx0L3wG0AVIEAcJiJMycfrq/52lqmutAC7nrJPWr+VmuYZ6JyhgVTouTCpcmABL1oMlJdr80PfJ1Nk0IBm2hgfG6NLRQuLKhkpsB9YB/UID0IArDaBkvDIGGiCCOErRwN4vE6i/cxTApTVgufo9OdA1NztHV6Jvkf9LMGmuLix4D4ZDSw2seSWM8pNqJcMWdyUsTK0jzo5pub34Le+PDx6vt/KFEIf/YPpxiffrRdsghmprgMeToGQ8oEEKNGBZeXpZ/m+nKC3kJs3MzAK4XAGQ1u/JAS7+Dtfz3/1ZPIwaslzQgI818PM3ScSZqsW6Dbr6rLdjiHjcl9oGC+uXZuL9llwgLsu//6tEOrEmnc5ty6GInwso/mQRxZ9+9J94toRSzpct/CefK6W4EzcofH8eBW7OpiM/ptL2j6KRufTxsamV9lc+H0wb3oqg7R/H0K6lscJxve/LBLL/7/0igXZ8HCNUIOVltdoud7+DkvHyDDTAA3GTooF1f79IdWVdpoYtZiZdz8PlCHVygWtqfJrOb7tCbA7cnVTxPmIDDaivgbz4GsmwZZuyUczx6zh2dWLI2QTv+Tyeoo4U0tX4Gqq63irMpdbdNihMYD02MkHTtulF25krTY4Oj1N/9wh1NPVTfUUnlV5ppKTAEjq28jIymW7amrOFG9+OJO6We377FQFaIw8WEP8H78qlgNXptOOTGNIDqNjPp9wF+OB3yRR15BplR1VSaXYD1RS3CW3eUNVFjdXd1Fzb8/i/pofuVHRSdVErlV5pEKZ/OL8th3Z+GuuTa/jCmC6UjEfJeMzTpYoGlv7phDA2e3LMBuByhB5fP5cLXUXpd2jd65izx34RxKP6cIEYPxljvoPd1zW8qBF3ld2qvtFKW1CV0GfAyQVK1r0eTnu/iKeE08VUV95BQ32jQtETBidXbSbrPdu0ME3AyNA4tdX3UVZEJR34Jol+euOiboukMExsei+Ktn0YLfp/3RviizjxTUIu+rR7eRzFnrhB9Tc7aKBnhEYGx4nBdnyU/yeFf37NsRvqH6OOxn4hfpxB0vo8tOrlUCEmZzdl0bWU2wJQDw+OPdLLpM0jjDtrZ3JiSthX3q/bZe0CuO1aFqd5MSyUjEfGRkrGBsuK18vXfz1LBUm3TQ9bhspw8cbKBa7x4Sna+3mC5hcfrS92+L0nTT7ioY948Bie9PCbxObJ2VAt9pq7H4bsuaqrO/ZW0RSb/W0fRdO5rTl0Pa2OxjlzNb145krpzxkiyq400oUdV2jrB/qbCmD/14nUVNMjKS7J50pEXYdWvxJGJ9dlCNDCgCs1toN9oxS0NVvUbymh6bWvh9NRv8tC19GW272St1fK/jF8FSTVUsCqNFr/VoRmYwJRMl68iQZwIFZiNbDh7QgaG5oCcPk6o+X8+3KBi7+Xcq5cs4uPEhcwrEMfsIB28L4duJsTZ0akmCoulFF5rRnZLTfdy9TUJY/LCt+fT7eut8oacyelncUsy5mbm3lNQjc6NvZq7ruUdasFXDs+iaW00HLq7ZSeEbbHUyvgWvlCMB36LpnyEmqoq2WAuAuwfRvUfOTzA4/tvJZ6WwAv7m4ppe3kLLvQvRAl41XpWibWoGM5c8FcbMANS8CW4TJc3mS5upuHac2r+rlYyznh4zvem3/EUPsYXtiZK9m4c7epsH15pIWRgiYeaYLN85EfUqgst5GGZBQ3UdtgD/SOCtk2vRRQURq4OKvIBUiqCltkzVPnGH8tgGvjO5GUFlIuTPOgaPdSCZlU/l0Gr4TTRZp0M0TJeHOZfcCbb9vzy7+cofY7AwAu5+ySXl7LzXJNT81Q+L581e+Cwbxpb+gRc/3GfP2bF6kw9bbku96Nt7pJT9kMM2uMiyxs/yiGrl+uoykeZyPB8PpiWR67xNUQudqdL0vMKwlcDLun1mVQf7f8rJZjW6gJXDyujCtMtjX06UYrNptNGON23P+yJhUvUTLet0YdoGSO+J/dlE1TE9MALr0AlvN2yAUuXs/Nqy3E5SfNbJ6wb/qFDyu2zZ7l8dTZLH2i4/hTRThONehOyHObBW7KEgoScDctR9Ou5+c8vovndNu9PN5nWVClgEuArZ8yqLt1ULH4qwVcW96PopRzZcSFMPSoj/aGPgrdc1UT6ELJeHOYfsCbb9rxm7+epeLMBuL5cp19vllfG6YsvGMDyIWuvo5ROu6fBiOngZGzIlxgn5+G3eCduZKzJlwynMd9IZ5Px1PJmDBspZwvpZ72IeIMgR4N9GLbNDE+RbUl7cIcTkrGRey6lAAu7kbIxSaaaroVbQM1gIvnzuJs9eiw9gVUFtOB82ecJYw8dE116FoY04WS8RjThZLxkjXA04t0twxZBraYYSwFXLOzc5QWUkFculbsRRXLqWv6EF9zx7coo16ykS9Kr8cxquZNkd8nLM5LrPF6rJCz2dX6NWflWut76eC3SZpXs1QCuLh0O0Oj0sUmlAQuhkKejJi7+UqtNKq1Huy/x+XzLx0tpNWvqH+tX/FcEPFcQsiU+CZTgrgbL+5f/Pk0JZwpoZmZWQCXYzZJr8/lZrla6waIuznB6Jvb6KN9fd++fGODjZ/dBIl5nJqcogs7cn3WTczsuuEiJDyPUXHWHZqclFamX0z7caZsdGhcmAR5sHf0iUcuhKJWcYW2O310cm06+b8Qotm53VvgWvVSCBVn3pF0fIhpA15GKeBivfAcejwHmNjf1styPK0ETwrNXTbVPq5RMt54ph+g5rs246E9zTW9loItw2a4eMPlAtfszJxQPIPv2ql9Esb6EWMra4AnrpVqvni814GvE3FsqpTh4vmsSq80KJap4MwMjz3isu3ZUVVCtTiuLnl++xU6t+3Jfx5bE3fiBmVGVAiVEDua+pUDMNs03anopH1faDfforfAdX57Dk2qVKREKeDa+3m8MD0D3wiReiw7L8+w3dU6SJUFzcL4u4yLFcK8XSnny4RHrnjI5eX5cz4PKAHn3W1DmnQ5Xehe+MxJZLrQvQ4aWEQDS/8YQGc2ZtFd2wyAS68ZLeftkgtc/L368i7V+3db2Whj3wGarIHoo9clm7TSnAba9G4UgEsF4OKbTHnx1cRjn5zNsNTX46OTQvlyhisuZc7FFHhMmMcbWUsuCN28Nr8XRXu/SKALO68I2Taea0vqNjgvzwad9bPqRW2yXN4AF08qXV/RKWmfecLfupudVJLTIIBJQXItlWTfoYaqLhobnXxiXUoAF08qLGRCJU5Y7twuvN3XUm5T0NYc2vdVgjC3Hs/1tvrlUOJJ0e3//i+G0Lo3woXPH2kjlyrym4kLpDivU8rr0uwGQZtqX5dQMt53GRNkq4wT+8/+5SRV32i3HGwZOsPlTZaLv3vcPx2mTgVTp/ZFDes3BsxxVySez0mKMeLxIYlnisnvefW7AFlNR6teChWyS94Ux+D26WkfpNzYW8TAwN33vJ0njQGNu3xxkZSr8dXU1zksuciKo8Z4/5LOlmhyQ00ucHFbXA4p9wi+XJyiubZHyAge/C6ZVr8SJuzXI0AJFuLGsbODyom16VSQVCtMQNzXNUxBW7NlX+N4G7MiK2UX8mCo54qBKRfKhPL9Qrc+ib1KWBu8b9ylkfeLwW1aRiVNBraE08WaaILPK1wyHmO6jAMAgDVt24rnUZybmwdwOWeR9P7amyxXaVaTZidgq5k77K8xoEjNdlr/1kVqqumRBFz93SMUuEW+SVRzf4y8bgbYwE3ZxCbcEU6kPOfxMJxROfRdspCRUCMeDHDH/C4Lkxt7k/FiaAtYrf4NNbnAtf+rBKEqobv4c6aOQSvm+HXiLqBSY80Zx9QLZXTkh1TJ3+XfYjgK2X2VxkblZZaG+kYp+1IVcXdEb4Hcvu+s4dDdV4Vuo3K6NzbX9NCBb7TrqvxoTBe6FwJmtIUZvcd7+b+eosLUekvCFvOUIasU2kHQG+Aa7B6nn79NlnVBsl8E8AiwgAZca4DNjdT5t7jwwc8rknBMKpx53vlpLN263io7W8Hjbnj81Ya3IzRpm43vRAplvRny3EHJYu8zsHBXOO62qObxKQe4LgeXUfTRQpp0062TszFcev3gt8lewQoXrJFboY9/m4FvsRi7+6yrZZDC9uYRT46sdOwZBHl8J3cblVotkZdPC72pSddC3u/HY7pQvVDvEIDt0w4KuWdEX8cIgMsOMUZ7lAtdM3dnKTOiklZq1N9f6YsP1ufa6CMu+ohL0OZs4tLM7oyZq/fryjuIzTbaULk2ZNN9+UKZZIPK7cPgwoUojq28rEmlN8d2565kgZuzqaOxXxYocne8iJ8LVK1aKAe4rkRXUU1Jm8vjYmx4QpgXbcNbEZ7HwikM5fbY87it/MQayd06uSsnl40PWJ2mas8R7ma46b1IKrvSKLmUPmfQtSzIgzFd2hl5QJP+Y81jt3jS9LvT1iuWYecqQ2e4eCfkAhd/r62un7iSmv1ig0fljB5iae1YRh8rJDaQrsDK1Xts2HjOLuhGWd0ErEqjURlFBxi2uCADT3brqzZhc334nykC9MkZe8ZjiDi7p9b2ywEursA35aIyIQNi4tkS1bZVTAxWPh9M4fvyZBWp4JslWl5LGUqrb3DWdlr0OYbPO/mJtZrHmOfpWoZ5ulC5b5HKfVYAxk3vRVFLbZ9ls1vMK4YHLm+gi8tSxhy7ruodOTEXOiyjrMlEPH0bTzbK3H3HlbF0BVv8Hi97ObhcczNkZq1wdqvyWoskQ2pvn6rCFtqhIqyIjTtriTNsnOmyb5vYRzbj8aeKVNOUHODiucict5+7u3EhknWvK98NT2yceblN70YSd+t13j5Pr7mQCoOxlN/ydlkeG8bj9KR2W+bqjVs/iNZ0W3lfVzwbSMtQMh7QZVHo4rFbYXvzyTZ1F8BlT3cZ9dGbLFddWRdtQDcmzS9A3l5w8X3fQtVi8ecKZ3nxNZKMG5tOHtuy2HrxmbQ2P7spi+QUn2ir79M0W+GpXdlcc/l4qeN2GBTYkK9/U52xZ3KAyxW81Ja2E1fu8hQHtT/n409qxogBkotZqL1trtbP0xCkh92kifEnS+K7irH9Pc7cJpwp1nx7F8Z0IdMF6LIgdH3/t3NUXWTNUvCOXGWKDJc3Wa652TkK3Jyj+QnY1QUE70kzlIiXPuPFc+xw90C7yRHzODE2KczTgzZVpk05W3HreovkMtoD3SN0blsOcfcyPbXF2tfDhSyQlKwp644hLf5kkSpjopQALh5XdG5rjirbJ6X9tn8ULTmLyHOxpZwr1awQhav94S6vPA+ZmHOMfZk7lZ1CNs/V+tR+DyXj9T/WyArd+7Tex6N+l2l2Zs7S2S3mFMsDF2fHOMvFd+XVPtli/cqYScRR33Hc/H4U3cxrkmSCxkcn6OiP8spYQw9P6oEzQlzWW5i3aFr8GBeG3syIClr7Wpguz4U8H1NjdbckXbHJvl3Wrspk2koAF1ck5Pm1fKlhntcr5XwpjY+JzxTZpmzCpMRbP9S+e55zrLh8Pmeu7EDl6ZEhlwuyOK9Hq9ePSsajeqHWph+/5xvYXf5vpyw70bFjdgvAde+eUHTDNnkXEyGrVPVKq4sYfudJ0+3LeHDpVy5D7sn4OH7O5bD3fpHgMxPky3gp/dvr37xI11JqJXcP4/E7euja5i4e/i+FCN3BWCuO2vH0vL9rWJiHzN165b7vLXDx5MD7dKD5HZ/G0O3SdkkxZZg/9VOGLo5XzuYyRHnSgf1znscrI7yCuHS+3Lb35nsL3QufAXQBgnwDQVrGfe+XCTQ5Pm357JapgIt3Ru5Yrvm5eSrObPDZCdibkze+qx/QQFs8aosdn8RQTbHr0td20+P8yCZaz2bfSG378zeJ1NsxJNqACm1hm6ZLRwq9mvtJixht+zCamiRmuTgbkxVZqXjXN2+BqyTrjs/jzUVJzu+4QsOD0uY8u5Fep6tiUwVJtZL0zjeE+MaQFpp19RsoGW9+0NASavT6W1/8+TRdS6kjHrrjnO2x4mvTdCn0BrgY1IZ6x+n0hiyfnYBdnZTxHmDKiBrYtSyOuEy0M1Qt9hrApYzWeewVV3tcLNauPmut6zXMDaeLB/Il719TTTftWR6v6PndG+DiSZ0P/+D7LrQ875bU8Za87Xs/VzaW3p7njvqlEneJdaVtV+/1dQ0Tf8fb3/X2+zymCyXjAV96BSZvtmvpHwPo0Pcp1N81CtianxdiYCrg8ga65mbnKS++lta9cdHnJ2FvT+L4vjLmFXGUF0cBuMoAXL7Qz6qXQqi1vle08WQzyoUoog5f83m2RWy8GBKkTqrNc5GdXJdBPy6Rp2lX2+YNcJVfbVJlXJmr7VzsvT2fx0vqjsd6uZZym9b4eNyZ8z5x5rO5pke07jnrGbYvj/x0UBwGJeMBXN6AjV6/+81fz1LmxUqanZkFcAG4Ho3fcuyG2N8xSge/TQZwYTwXNOCFBniy2doSaWNCOMOldAbC2ZRZ4TXDLo9RcXVX3917nP3Zvdz3ZcmltM+V2FuS9pH3PSmwhLhAhJTfWWxZucDFmZjoY9dp5Qu+rwQZuidP0lg/LgPPBSe4MMtisdH6M66MWpAsrVthzqUqWu2jcVyO8VkY04WS8SgZb6KS8Vs+uEQ9rcOArd9hixNCpstweZPl4u9mRVbpqm+644kZz5W7O41YqhdLjOFSL7aedBsbcEMSiPCdfi4g4OtKeZ72y/lz7g4mtXgG3wRQcj/lAhcXJ9F6omDn+Nlfl+U2StJLdVEbcSl2+/f18sjwytqXMo9Y9Y1Wn0827Rg/lIxHpkuv2Sqp28UTHV++UI6xWw6wBeD6vUqhY5ZrdHCStn2kvwuK44kZz31naBF7z7GXBVzDKJrhrbZ4/JbU6pB9ncN0ZkOm7gy0p1hs/eCS5MIsI8Pjik6CLAu4bNPE3Qk5I+NpH9X+nOc2G+ofFQ1c3PWUJxrmapFqb5uc9Z/fliNpou+e9iHi7qlyfkut76BkPKBLKtzocXk+Rwz3TyC7BeB6uiuhI3Dx85Rz5bo6Cat1csd6PcMDYiQ9RkKXQollpseGJ4i7wyHe0uNtjxnPf9bR2C/aQHM3Oy5uwvBiX4dRHle/EiqYf3fdJN29v++rRMX2VQ5wTY5P0eUQfVxfjvyQIkwM7S5Wzu8P9o7ShR1XFIuf0lo7sSadGKKct9vda54U25eVCl3t/0L3QpSMR/dCA3cv5GwzZ3Tw/2QMTNmlkBvZGaKkvO5qHiI9TOjo6oSM9+QbUsROm9jJGcM1OjxBO5fG6tbMGUE73M2ut3NYtOHk7oQ87oUzY0bYP+dtDN2bR6wbd4ba1fvBu3IV21c5wMVjoM5tzVFsG5xjIuU1F0qRMmFwe0Mf8T5L+Q0tl+VumryNrtrd3Xt6HLONkvHIcukxayV2mzi71X5nALDlAjgBXC66Fd6dnqWMsAqM5fKicIKWF1r8ljYgJTbOPMaDx0e4Mzmu3ufxOHo2c2L33ZfLRR4qkNSlimMesvuqbg20p1ge/j6FeDyUKz25ey8rokKx/ZUDXDwJ83Yfzv/kGFOuNihlzNPtMmXHwDluixLPD3ydSM214isVskZOr9fH5M2u9h8l4wFeYiFHL8vx2K2kwFKanpoBcFkJuLzNcrXW9dP+r5MUuzi7OqHiPX2BAtpDmfbgLmqV15olGeHx0UniLkFoA/ltwONrpFQoFOZT+iLBsDFnnUmthlmceUex/ZUDXJ1N/bq4kbfm1TCqldDtl8GM5+vS8/Eppz1CFMx4qhEblIwHdOkFpsRsx8Z3I6m5phew5QK2mElMm+HyFrju2mYp8WypYSYDVeNkj3XKN79Wjt2mdyOp7Iq06mdcKvvCTv2OD9F7e/q/EEz5iTWSILe/e5jYeOt939xtH4/jkl5lr1Wx/ZVj8GuK2hT7fXdxEfP+1g+iiacDcJcJfOp92zQ13uqmtNByt/8Z4Tcp+1IVcbl1uf+5sdWUn1Qr65+1MNQ/Jn6fpqeJs8Ji4uWrZRbGdKFkPMZ06XxM1+d/PkVRhwuR3XIDW6YHLm+hq6NhkHYuxUB+X11s8LvGBL51r4fT9ct1kowPD2CPCbiha/OjZz2ueyOcOHvzlFGennb7Xv3NTsPHOzf2lqRxSC11veSn0OTHcoArP6lGFzHf91WC5PFOPN6Lj9PF/rmSoVf/Uzay2eT/S9E/Lxt5+Jou2sPTuWXFc0G0FNAF6NIxdK15LQxjtxaBLQCXi/FbzsU1Us7ro6KUpxMyPjcmnJix3fxfDCGpE9OymeO74maMhxb7xBUKKwqkdeO8kVZn+HgnB5XSxPikW6h0NuDcpW/NK8pk9eQAV3r4TV3E/Lh/GnW3DYqOm3MczfL64oF8XbSHmHMESsaje6GYbn2+WgaVCZ+sSMiA5fxv6i6F9p11higprwe6xmjTO5GGOSmLOXFjGcCZ2hpIOV8qqeQ0GzgGhlUvheJYk1Gshuc+qy1pk2SgzQC4McevE4//EwsAnc0DtPY13wFX4tkSXej77KYs4gIeYuNm1uXC9ubpoj3EnI8Xuhc+cxKZHh1nenwFPL783e//do76O0efAgy7B8fjI/gCcHnIcs3NzVP8qWLDnJTFnLixDIBLbQ1EHpRWMY8NXUNVF237MBrHmgzgkjP3GWeH1NaB2usP358vqTR8Z9OAYuPW5GS44k8V6SLmQVtzaKBnBMBlIODiYwkl45Hl8iVYufvtiIMFNDs7B+BykdVyhE1LABfvsJSslvOynY2DtOfzeF1cKNU2MFg/YEwJDZxcm059EuaEYuDqahkk7uqkxO9bbR1yMlx6Mf/etFXYPmlzcXU09dOql0IU0Zgc4NJLhuvcNgAXn3Mu/qzvohnujg0uGY8xXYAvdwCk5fsb3omktvp+wJYH2GIOAXB5yHAxfN21zVBayE3iqljuToB4H6ACDTzWwK5lsZIH5Y8MjRvWAPm67Rm4aoqldSlMPKOP7m3exC7i5wLi+cTEdnlj4OIxht78pv27coArKUgfMQdwPSomw1XV7O1ptMdHY7rQvVBLuMBvPQm5X/zlNCWcKSHb1F0AF4Dr8aA156yV1NcdjYN04BvMy2W0ixK29zEEaRkLLjd+p6JTtBFmw8xz/eRE31Ksy5eW++vr3+LJprnkuFjw4OWSdWL+vYld1KFr0oCr0bfAlXxOL8B1BV0Kp6cp+th1wwLX4zFdJzCmC2O6fKIBLtbEc9Y6dpvD88fc4RwLy2S4eMelQpbj8nOz85QRXol5uWSML/HGUOG7vgEmJeJ+Nb5aEgAwBNwubacdn8Qa1gQpETc562DgqpYIXEmB+jD/cvbX/h3JGS4Al3BsXdhxhQZ7RyUfn1KA3gjLxp3Ux5g6u56lPmJM15MZF2SgtIsHz7uVHFSGsVsiMlt28LIUcHkLXRMjNtr/VSLMIKALGhChgfPbr0g2dCOD4xSwGuO4pBovAbgkdilMOGP8YkCSx3ABuIRzV/CuXBrsA3DpZUyd1OPdeXmep2sZ5unySZbHqpC38d1IGh+xIbsF4HKf0nPMWsl5fi25jlY+HwzDLcJwO18U8Nq42So5bbf1g0uSJqW13xFPvVCm2DgbOdttxO8IXQolAleiBYGr/U6fYudvOWO49NKlMHTPVRrqH5N0Q6S5todSzpWa6v/Ij6mmuZaveDaQlqFkPKBLg+6VDPd9OgnKAAAgAElEQVRXYqoBWxJgixM+lstweZvlGu6boIPfJpvmJG1Ec4ltNga4+S0JprY7fZJMHUNXe2M/rXs9HMeYhJsa2z6KpuobrZJinRZq/Endow5LG8NVf7NTMV0ZGbhCdjNwic9w8fjKaym1isUO53Dlz+ELY7qQ6QJ0qQxd2z+JocGeMQAXgMt9dsvej1JOZsv+HZ6Xqyijgda9fhEXHwmGEBdY5S+wRojp5ZBySRDAwMXmLmhLDo4vCcfXxrcjqSy3UVKs85OMb6C5S9jEmPiJj0uyGxTTlZGBK1DixMcCcCUbXy9GOGd6u40oGa/dOCYrdif8+q9nqSC5DmO3JMKWZTNc3ma5hvomKGjLFeI7+N6eHPF9a4KIVdr96I+pNDo0LgkEGLpu5jUpNl+SFWLNU1Zcv1wnKc6V15oNf/7Kiqykyckp0fudE12l2D4bGbgCVqVRd9ug6LgxcBVl1isWOysck77cx0cl41G90IpApOY+89xvR/xSaaAb2S17AkfKoyW7FHoLXPz90uxG4gnffHlSxW8D1vSuga0fRlNtSbtoY2cfx9XfPULHVl7G8SUyy8U3f3JjbwnZQXsMPT3ynFRGHo/K82kxBEzbHs2p5Gl/+fPYgBuKacrIwMXd4rn9xcTMvsyt6624ySjyePT1eXmhe+EzgC41AcRq6/7+v8/RjbQ7NDc7h+6EyHB57k5op1F7F0G5j7bJu3Ru6xXFLt6+PkHj9wFvamhg1UuhlBxUKrl4xtSkjQqSamnta2E4xkSavKTAUknd67hK3ZZ/XDJsfDe9G0m3JI5bC1idrtj+Ghm4eKLslts9koCLx7+tfQ1jK9U4T6qxTpSMR9dCpYHwmH8aTU1MA7ZkwBazh2UzXN5muRjUettHMJZLpBlU44KCdRoDErkSWEejtLvpfFe9r2uYzm7Kwl11kccYj3uTMrfS6PAEndmQpRiAaH08/rwiiVrqekVDA4/12vBOhGL7a2TgWvVyqOTMc2t9L+1eHqdY/LTWi1V/j8d0oWQ84Mtb+Prmr2eps3EQsCUTtiwPXEpAV/SxG+S3xBjG16oXHOy3b/W57o1wupFRT7Ypm2hzbO/GdCOtjta/iQI1YjS876sESeNyJiemKD30pmEN9LltOTQkYS6pltu9tOZV5TKmRgYu1tO1lNuSuqD2dgzRqXUZhtWLmGPIrMugZDyAyxvgWvrHAArbmw/Y8gK2AFzz8yS3S6H9e231A7T7s3hchETehTfrBQ37tTjUndueQyMyimfwd3gCZcR38fhyfNa+Hi65m1hFQTMxEBstvjx+iysUSoF47qLKXVyV2lejA1fC6WJJXX3HRibo0tFCxeKnVDtgPZ7PDQtjulAyHiXjZZSM/+nNi9Rc0wfgAnCJH7fFhOnq3w5Pch5n7s5SdtQtRe+c4gLi+QKCGBkrRmteCaO68g7JGS7OdHW1DNBGFKgRZXTzEmokxbizeYCOGrA4yeb3oqgiv1n0vk5NTgngrmRlWaMD11G/y8RZTns2WcwjTyWAOfKMde51vFaiZDwyXVIzXV/8+TSlnC+naduMS//sylPjPdesYekxXHZRyAEtx+/0dYxSwKp0dC1ElkuUKXa8AFrpedCWbMkGj02gzWYjLuetZHcws8b91E8Zkgw0G+6kwBLijJGRYnLo+xQa6h8Tva/tDX3EXS6V3EejAxdPJSBlzB8fiw1VXbRnOXp0KKkjrdeFkvGALrHQxV0J936ZQD2tw4AtNwkbO0eIeQRw/R5ER4CS+pwDfT21HgU0AFyKGjqtL8Rq/x6PxZJTIp6NHpeJv7DjCq18wVhgoHZMnde//s0IGh4QDyIcW670x+X7ndel59cMibztYv+LMu8oniU1OnBx+/J8d2JjyMtxt8Jz2zAHpZ6PDU/bttC9ECXj0b3QQ/dCnuT4alwNysArAFvMCQAuBYCLAW1q/C4dN2DXHE8nZ3xu3O4jems7v+eDBWiSMxEyT7zaXNtDXJlOb/ulp+1hIC2/2ijNRI9OUODmbMNk6Dkb19UiftJehoToY9eJ9adkW5kBuKKPX5ekFYYuLrbBXYSVjCXWpe11BiXjkeUSk+Xa83kcTYyhDLyY7JWYZQBcDuQqNbPlvHzL7T7iO8y4eGh78UC8jRNvPj54HAjPsyXlzrp9WR4HtvUD484dpYVWT6/PpPHRSUnxvVPRaZgum2F78yTtG3eD2/lprOLnZTMA1+5lcdTXOSwpngyw+75QtnumFscFfuPp6wRKxgO83IEXdz1FoQzXY7HEwJWrZQBcCgLXXdssxZ0oopUvKHsnFReKpy8UiIlxY3L0x1TqbJI+L5cduq7GVyvePcxMetr+UbTkrps8Tu78thzFoUTpuHLxlJqiNtGAwGCfHVmpeHaL98sMwMXdfAsv14mOp/0Y5OIsSmcMldYK1ifuGoGS8YAuZ+j67JmTdPFAAdmm7mLslgMjuIIoKe8BuJyC6Zy1kvq69Xa/cCHGyV7cyR5xsl6cuEtYclCppJLedqPHj+Njk3Ql5hZxpTro52n9rHopRCiEIbUCHWe5tn6g37FcXGEw4mABDQ+KH6PG0woc+DpRFZ2YAbgYmsL35wljsxyPMU/PezuH6eC36N5rhvPPwpgulIzHmK7fx3Rtei+Kmqp7aW5O2QyPFDgx47IALoWBa3ZmjnKiq1FAAwU0VDF5ZrjA8z7wnFFs8D0ZO3efT4xNEs+rhO6FTwMXx/fAN4nCmDd38XP1Psc0LbScuHqdHnW2+7O4R5k7m/hiGQXJtbRS4bFb9tiYAbh4X/Z8Hi/5WJyaslFRRj0mJTfRdW7Fc0G0FNBleejiQhlpoRXEUx6ZEXp8uU8ALifg4saQmtVyXn5saIrObMgyzCB0u4HAo2vzirioE5fD/0yhnrYh2dDF0MBV1tiIo3vTk23E2SCeGHhiXNo8S1wNMnhnru6qQTIEpofflDRRb1/XMO37Sp3sFp8TzAJcfOxw1UfOHLsCcXfvcTXMqEPXiDOqej9Hcjd/dPV/8hzhqs1QMt7a3Qu5DDxPuTE6NAnYcsEG3sIagMtFUJ0BSs7rurJOWvtquO4vRK5OunjP84UJMfI+RmyiYwNuSC5j7mwAb5e1ExeKWPWSPjMzYrXCXS3XvRFOSk3Ou+Ufl6i9UfpYucbqbt0VRTi5NoMG+0ZFAwGP3cq4WKFqIRCzABfrc+fSWFnjKlvre4lvnIjVuC+W43F/PKXEto/0213WF3Fx9ZsL3QufOWn5TI/zuCYrvP7y/56h6uttgC0XXOAtbPH3AVxuAisHshy/Mzs7J9wpdnVSw3vem3XE0Bwx3PB2BBWm3qapSWmZGEfosk3ZqLt1kOJOFhm2XPVPb16kzIsVlHC6SNFJiKOPFoqGFHtMuYBG9Y1W2vRupC6M9K5lcdRU3S1pPxgauVvlj0vUO07MBFwM+ZxBtGtA7CNP18Bz663WaZn47R9HU/nVJrpd1oGx1SK7P6JkvHWzXKfXZ6EroRsmAHCpGBgOriNAyXne3TJMuz6L14VpAaCoZ7wQW+9iy8a+6nqLZLPnbAp5XEn9zU467n+Z1r6m/+wyZ/i4O2TC6WLq7RgSiojkxt4ifwUnd/7p7xepOPOO5AIlDF1cDXDflwk+64rFc4px9oTLurOxd25vd685ExayK1f1Lt1mAi4+h214K0JWRnTaNk1V11oELas1Xk7KOdZvyQXa/H4UXTp8jbrbBgXtNNX0ALhEApc91lwyHmO6rANffNOvs3EQ2S0VuQIZrkWCKweyHL/Dgw55lu51b1wEdEk82dtP+nj0DmaMEj8euN9yu0e0qXZntvn9gZ4RyoqsJC4/76/D8SXcbfDID6mUFlJOHY39xHBj3x+uvqjoWJMlF+jwDynUdqdv4Tfsv+XpkTOHDLBnNmQqu00izgVs3IO2ZFPDLYatx/HxtM38eX5irSYZF7MBF8f84oF8Gh2ekKwVvtlRU9JO3PWTu8b66rzDx9apnzKoIq+ZJsYfj0kDcMm7jjwa04XuhWbvTsiFMjIvVtK0bQbAtQgTeJvlAnB5CK4jQMl5PtQ7QWc2Zis2LsNXFzL8rrwLFuImLm48cJ+NUmtdr2Sz58qE8xgehpkr0VV05IcUn5pAuwY2vRNJ4fvzhepuvG1sUp23PSe6SvECIKtffjRWbmRw/Knfc/59V6+7WgYo+lihML7Mvi9qPq57PZyijhTKKqjCY4q2fxyjieE3G3Bxm3JmqCy3UVJG0a4ZzkJ2NPVTbMB1WvNamCZtYNchF+4IWJ1GXJWyp+PpQjwALnHnYXs87Y+Px3SdwJiu30ummw2+OIt5+IdUGugeA2x54AEAl8oBkgNZjt+Zn79HtcUdmDNIxF1t+0kej/IujkaPG3el4zvkQjZGQhcyu+Fz9chjw/o6h6k0p4HOb7silLHm4hpKFaZwFXPu0sT7wl0GN70bRee25dC1lFqhuxbPC7VYxibnUpUq28Zl+HnC6MV+21X87O+NDo8LFSEZXnm/1BgbterlUDr4bbJg+DlO9t8W+9jbPkSn1mWo3pXQ3uZmBC4+Lk6sSafO5gHJ8be3E2ulqrCFAtakC0VL+Hiwx0zJR6HIzOvhdNw/jUqyG4TMNt9osW+H4yOAS34bYEyXubsV/vC/F6iqsA1zbqnMEgxryHCJCLIjQMl9nnK+XDMjoORFDeuSf6FC7OTF7sCKJFldyRwNlrvnDF88f1fI7qt06PtkIRvC45y86cbHAMKV0HZ8EkM/r0iiwM3ZlHKulCrym4jNp7ttcfV+dlSlKuaUtcjbWV3UKhu6eHt5ri7OgHA2gedA87b7GHdj4zF8PFYrL7FGVnc23q7+nhEK25vn9fZIOWbNCFz2/ecJpsdGpHctdNT0+OikAOlcQXT7R9HEQG1fv5xHhkG+cbDj0xg6sTqN0kJvEmc0XWWKHbeDnwO45J2LHduJ5+lahnm6TJXp4+xW3IkiZLZEcIC32S0Al8ggy4Usx++N9E9i0C6yXF4ZDseLn9mfM7jwXfLJCfnVC51Nl/NrnqeppqRN6IbEE/5GH7suFFvgMUucKQlYlfb0/+p0Orsxi0J2XaXIQ9co/lQRcVaKC1NwtTaulijGADpvi/01jz1Ts20PfJ1IdeUdXkEXb+tQ/yhVXmum5KBSoSQ/w6bY+ZgEyHovio76Xaa4EzeoNLuBuC24+II9DlIeecwRV6jkrohqxs553WYGLu6Gev1ynaz2cG47bh8Gfa6CeH5bjlCIhW9yeMp88fhLntpg/1eJgsbiTxZRXkIN3S5tp1GJGVAAl/fAxfpf8WwgLUPJeNNAF3chHuodB3CJZAFvoQsZLpGBdoQnOc/n5+apOKMBBTQAXZqaQmeTaJTXPKaL5wbirIfUCVmdDZ/Y1/w7Q32jQhfEnvYhAZ4YoJ74bxsU4GCof4zGhifIXRcmsb/puBx398uMqFBVH5zJ44kt6ys6ZY3Tcdxefs5AzBUWG291U2VBM+Un1QqT6EYfKST+5zFrYfvyKHx/HsUE3KDsqCqh+1f9zQ6h2xpnQZzXKeU1/37i2WJaq/GYIT6OzAxcvH+7lsZRdVGbV+3j2JZ8I4IL2vA4TYYm7ubLVTn5Zof9n/XPUFWUUU+3rrfSncpOIYvV2zEseRJvx98GcCkDXAtjupDpMjx0ffPXs1SQXEdzs3MALpEcAODSKFAcaDmg5fidiVEbXTpcSFzu2CjGF9upzIUKcZQXR+4GF3n4GvV3j0gube5ouIzwnKsCZoSrC1ysQ+6axRmp2tJ2r7JxrmLK+8AQZP+fGJ8SjDI/8ntsuqWUeHf1G/wer4PNO2cl1/hoDiizAxdnoHYtjRXAiNvOXVvIfZ/bkPXANy0c/1lDSmjEcbsAXPLOv+6uWygZb+xxXZ/9y0k6vyOXxoanAFsaMgQyXBKC7QhPcp+31PbR/q+TAFzIdEEDIjXAxu/4qjSqKGj2elyJownT23M2mulhNzXTBUNXcdYdyd2z9BC35ts9FLwr91EBD5E6cmce5b5vduCyx2XbR9FC98JJLyYn97Vmmmq6ha6J9n3Co/cA9qhkPKoXGq1q4dI/BtCm96KouboXsCXB/3ub3eLvA7gkBlwuaNm/Nzc7L6Rx9Tg/EC5C3l+EEEN1YshZGTZ+PFaHu7D52sCp8ft8t5+7Vmmpoc3vRVFyUAnxZMFq7JPS6+TMB49B4yIb3hQ6USLGVgEujtWW96OEue2GB8cMoRNH3XHxD+6qyIVtlGh3rOPROX6he+EzgC4jQdfyfzsldO2eRVdCzYETwKUxcDF4TU/N0Ol1GTj5++jONC6Y6kCRFnHlSmdcUIOLVLCRUrrrkaNR0/I5wxaPFePS9VrE0fE31rwaRoGbsoTf5yyblvst5beGB8Yo+1KVMLbPcft99dxKwMUx5kmFIw8VCDc8jHDc8THFVQy5yI2YIh2+0pGRfxcl443XtZDH8E5NTGsOG0pkiIy+DgCXRODiBrdnq7x57GoZoh2fxGpurox8cse2GxeUlG47Hgd51C9V6BInjO+y6RcU3EEFww1ve21JG106UijMWaR0nKSsjzMA3KWxu21QV+PleE4urljJVQ050ylln9Rc1mrAZY8lF7O5kVFPg72jsitLujsmlHh/bHSC7lR0CuP71r95UTd6scfPjI88pgsl4/UPX6tfDaO2+n7AlgzfrwTsAbhkBt4b2OLvzkzPUm5MDf30Bi4IZrwAYZ+0gUPOeAVtzaH8xBrqaOrXFSi4M48TE1PC5M5coY3n7NJTVycuB84T3/JcZUKp9ml5pdrd7buU97lqJJft58IYG96O0J1xtipw8bltzWthFLrnqgDC3s7XJUUTiy3LpeL55gVP1cDjEz2Vncc5WtlzNErG6xu4uCphemgFTdtmAFwyfb+30AXgkhl4b4GLv89zc7FZ1NNdW1yElL0IIZ4axHPJo+5OB79NooQzxcIkp0qWa1/M5En5jAGmILlWMKoHvkkUTKte9cFdsE6uzRC2l7vySdlPb5flrmD15R3CnGg8ya2/Tqu6Whm4WLc8ho4nND6//Yowrs5XxxxPLl6YepuCtmTTjk9jUQXYR131F8Z0oWS87krG8wTHR/xSabBnDLAl0/N7C1v8fQCXF8H3Frrm5+9RY1UP7fw0Tnd3b/VqBLFdGgCMjy7YSrSt/4shtP6tCKGowuWQcmHOH+76xHfh2ch7CwMev2+bFsqgczc47i7YeKtLKDbAEylvejdSKGHOc4wpsa9qr4MzBFxyfduH0UKWiYtVcCx57izFxvD8Hi+Gus7mfsqNraYjP6Y+GnOj8zjtWR5PFfnNQhdM7oYp5j/6WKEh2l6KtljP3HWPK4lejaumrpYBYv0rXkrefmwNjgvjyG5ebRLmedv+cYzQHRc3LvVxbUDJeP1lunicbv3NLpqbmwdweeH5vYUuAJcXwfcWuOzfvxpXi7tyBjb5UswJltXWFKx6KZQOfJNEkQcLKC++RugC1VTdTV2tA8QmX26pawaOibFJobofG8zmmm5hkliesDXlfCld2HGFdi2LI6PAlRhd8pxoh75PppjjN4SJaW+XtVN7Y78wHxbHYtrmufshm3CuiNjVMkgNVV3CJMgp58vozO+FDcRsB5bR9hiSGm/u/slZr8yLFVSe20h8vHFBGJ5UnOdjE3PTgnXC0MYVSYWJksvaqSTrDqVeKBMyWVs/jDYduEqNs56XR8l4/UDXZ8+cFOZ39BYW8H3vYRXA5QVwsQDt0OTN49T4NJ1A1UJcQAGd6mpgyQVhLNC+LxMoYFWaAEWRh64J3RC5WERWZKWQYeEsi6v/nEtVQtn2pMASigm4ThcP5Atdgo/7pwlz/Gx+P4o4w6ZnI6TUtq16MUToTnbkh1RhHBrHIuF0sWCIMy5WCGW4s6IqhceM8Jt0ObiMkoNKKeJgAZ3bmiPEnzNEfOdVqW3CevQHYuteDyc+3k6sTqNz23Io4ucCYYwVd/11/E8OLBG0kxT06NhinYTsyqVTP2UQdxXmros8vhBtrL82dtUmC90LUTLe590L+Ybj+CgmONYDMAK4vAQuRaBr/h79//bO/D2qKl3Uf9Hp9j63z3Nv93nuPfc+OIGitn28x1bBFm306JEpCSAtkxpREJVZQDIDIRAgQCAEGYUAYSYhgZCQhJA5ZK4Kv333+TanQrGtQJLaq2oP7w88VbtI7apa691rfe+3hl1Z3iiL3synQ0E6YCDBDOhaFB290eBfA8SR/qW+lGUFfSpVLMj/beCn5Tj7hQxrGqKWZeSflq2ONAZFRmMFoLz2iBcd9VVWov8pG8oO19ajcvI6M2wZn/xRLr3f69XTdUwldCDOd0LYEC4HKiKe0a3Ie8OhsJwsqpS5bGOLcCRYOLzesfP9/ROkUZfUJQz4iwG2jE+OeE3/0wYp2XpZBgdDrNtyIM5HuFxSiI6Mcj14IF3tvZKVfpT1XAgH0gkDMAADMAADvmCALeMTK126bmvDghLpbOtBtlzkCYxwOVgZkdGqeB7rb7ZyQ2Q6WV90smSq/ZWppj6pTxiAgfEwMLymiy3jE7Kma/bETKm70YJsORjfM8LlssKMR7Qi79VKPVty01pTMp6GjffQIcIADMAADMAADLiNgQ//ZaPoPaHe+afEjvgE6fOm/WGdnNhbwbotl/mBxvaMcDlcKRFxiuexr2dA8n/4lUXmjHQx0gUDMAADMAADvmGALePNyebf/vtayUo/Jj33+xndcji2Z4TLhQWqlRKPbEXe23CrTb7/dB+7odHR+qajdVu2le/DCAAMwAAMJJaB4emFz6xhpMvBkb4pv1slS6fskLobzciWS92AES4DFRORpngew6EhOXu4Wj57PY+AG+mCARiAARiAARjwBQNsGe/8KNfH/2eTnNpfya6EBmJ6J0a3mFJosGLika3Ie8PhITmQeUFmPrvFF40smcTEZhIpb8obBmAABmDArQzolvGs6Ypfvqb+frUUbigTvb2QU3LAeYYcL0tGuFwuXf19g7I2rRjhIrMJAzAAAzAAAzDgKwYeruliemE8G3ss+3uh9HazbsvtkohwuVy4dLSr+tJd+fLdnb5qZN2aceN7kQ2GARiAARiAgcQw8GhNF7sXjke65r6aK5XnGhwfjXG7vHjx+yFcBoVLgYhMD4znMTQYlpN7K2Xea7lIF9lNGIABGIABGIAB3zDAmq7xTSvUKZml2y7L4EAI4TIcyzsheAhXAiopHtmKvLe/d1AK15fJ7BczfdPIkkFMTAaRcqacYQAGYAAG3M6A3qdL1yONZ6QnaO/RLeBzvz0uehshJ2SAczi/ZstepgiXR4RLxav9Xrf8MHM/wkVmEwZgAAZgAAZgwHcMfPinn2QqW8Y/VTq/em+nNDd0IVsJiOHt4jTeY4QrQZUVGamK97HqQqPMe5WphW7P1PH9yCbDAAzAAAzAwNgYGF7TxUjXiNL10f/aKNfP1iNbCYrfxytY9vchXAmssHhlS9+v67mOFV6XtFeyfZfZomMaW8dEeVFeMAADMAADfmSALeNjr+ua/scNUrKVdVt2mfHCMcLlMeFS6epq75X8H3+VORNZz+XHjobfRAAFAzAAAzAQdAYebhnPmq7I+rRpf1gnWelHpautl9GtBMbuTskcwpXgSnNilEvPce9Oh6xKOSAzJtApBb1T4vdzDcAADMAADPiNgeHphc8gXVN+t0rSp+2Sxpp2ZCvBcTvC5dEC14pzQrqGhh5IbUWzzHs1h6mFLJyGARiAARiAARjwHQNsGf9waqFOsbx1tUnCYfO76TklGJzn8bpihCsJ4uaEcEXOUVZSLfNeYRMNv2X2+D1kq2EABmAABmDgIQMqHEHdMl6nVp7cW8HIVhLidSelEeFKUgVGhCnex977/VK47qykTMryXWaLjoZgAwZgAAZgAAZgQBkI4pbx0/55neQuPyHdnX0IV5LidaekC+FKYgXGK1uR97c0dMm6+YdkxoQtSBdTSmAABmAABmAABnzHwPCaroBsGT/l96tlxcd7pamuA9lKYqyOcPmg8LUSI9IUz6Ou57pT3WotqCQTSCYQBmAABmAABmDArwwEZcv4ea/lyu1r91i35ZN4nxGuJFdkPKJlf+/lk3Uy/8+s5/JrJ8PvIoCCARiAARiAgZ/F71vG/8f/3ijlR2sY2UpyjO7U6JaeB+FyQWXaxWm8x3pT5OKsC5LyEuu56JAISmAABmAABmDAnwwMTy/04ZbxH/zPDbLnp7MyOBBCuFwQozslXQiXSypzvJJlf19nW4/kfntCZj6X4bv523Sc/uw4qVfqFQZgAAZgYKwM+HHL+HefWSM/fX5YOlp6kC2XxOcIl88qQivULk/jPe5o7pFNC0vZRINF00g3DMAADMAADPiaAb9sGa+bZKycUSRtTfeRLR/G+IxwuahSxytYsd53p4pNNMaaLePvybDCAAzAAAzAgPcY8MOW8bpJRm1lM7LlorjcqdEtPQ/C5bKKjSVP433twrEaNtEgs+nrzCaBkfcCI+qMOoMBGHCageE1XR7dMl5H6c4crEK2XBaTI1w+rhAnpxYO9IfkyPYrkjY5h6Ab8YIBGIABGIABGPA1Ax/+y0bRqXnv/NMqz/yb/scNsj/zgvT3DiJcPo7vGeFyaeWOd1TL/r6ern4pXF8mKZMyfd3IOp0t43xkYGEABmAABmDAewx4acv4af+8TnKXn5Duzj5ky6XxuFOjXAiXSyvYLk7xHHc0d8uWpb8gXGQ2YQAGYAAGYAAGfM3A8PTCZ9a4fpRrdcoBaWnsQrZcGos7JVt6HoTLxZUcj2TZ39tc3yXp03b5upElE+m9TCR1Rp3BAAzAAAw4zYAXtoyf/3qeNNW2I1sujsMRroBUjla0XZziOa693izLPiiUGRNo3J1u3DkfTMEADMAADMCAuxjQzSjctqZLv4/KVtWlu8hWgOJ5Rrg8UNnxSFb0e8OhIUBD5PIAACAASURBVNGdC5e8vYORLqaUwAAMwAAMwAAM+J6Bh2u63DO9cNYLGdaOhIODIYTLAzG4U6NcCJcHKjtamuJ9PtAXkuO7KyR1UpbvG1kyje7KNFIf1AcMwAAMwECiGXi0piv5uxd+8D/WS8nWy9LXO4BseSD+dkq29DwIl0cqPF7Rin6/Stfu9Wdl5nMZSBfZTRiAARiAARiAAV8z4IY1Xe8+s0a2rjzJ9u8eibudlC2Ey2OVHi1N8T7v7R6QvOUnZfaLbBef6Gwbn0eGFwZgAAZgAAYSz4Dep2tqEu7TNe0P6+Snzw+z/bvH4m4npYsRLo9VfryiFf3+e3c6ZePCUpn1PCNddHyJ7/goc8ocBmAABmAg0Qx8+KefZGoCt4x/97+tkZWfFkljDTsSOikwXjsXwuUx4VLAoqUpnud6rvqbbbLik72+nkqQ6MaczyOAgAEYgAEYgAF3MjC8pitBI12L3sqX2xXNEg4PsW7LgzG3U2KHcHmw8uORLPt7h4YeSFNdp7VzIdvFu7NzoNOmXmAABmAABmDAWQZMbxk/5XerZM6kLGtkC9lCNhEuDwqXk6NcEQG7XnZHvvjbTka6WDgNAzAAAzAAAzAQCAYebhlvZvfC1Jez5dKJ24xqeTTOdmpkK3IehMvDIERkyYnHwYGQlJVUy6I38wPRyJIpdDZTSHlSnjAAAzAAA15jYHh64TPOSteM57bI8cLrMtA3iHB5OM6OyJITjwiXx0FwQrYi5xjoD8kvO65K2uQcpIvsJgzAAAzAAAzAgO8ZcHrL+Ol/3CDF2Re415bH42snJCv6HAiXD4CICJMTj7qm61DeZUmdlO37RtZrmTi+L9ljGIABGIABGDDDgK7pinfLeL2x8e4NZ2WIDTIY2bP5BcJlK5BoG/XScydkK3KOvp4BKVh9RtJeZqSLjs1Mx0a5Uq4wAAMwAANuYyCeLeNVtrLSj0rP/X5kwyextZMegHD5CIqIMDnx2NnaI3kruDGy2zoDvg8BCgzAAAzAAAyYYWB4TdcYt4x/7w9rZdPCUmltuo9s+SiuRriozJgXtBOiFX2OzrZeyUo/JjOf48bIdG5mOjfKlXKFARiAARhwGwNj2TL+3WfWyPr5h6SjpZt7bRGfx4zPVdwY4fIZHNHC5MTzns5+2bDgsMx8dgtrulg8DQMwAAMwAAMwEAgGRrNlvK75+u6TIunu7Bsx0HZylIRzefd+XgiXz4RLL0YnRCv6HHdvt1vZmxkTkC63ZeH4PmSGYQAGYAAGYMB5BoanF46wZfyU36+Wb6bvlrobLciWD2Npp+UW4fIpJNHCFO9z3W2nrrJFVn5aJDMmON+o0VFQpjAAAzAAAzAAA25jYKQt46f8bpUsfjtfbl5uknAojHD5NJZ2UroQLh9DEq9o2d/fVNsu339aFIipBG5r9Pk+BCIwAAMwAAMwkBwG7FvGL3knn5EtH8fPTopW5FwIl8+BsUtTvMc1V+9ZQ+g0+slp9Cl3yh0GYAAGYAAGEs/Awy3jV8tnf8mT6st3GdXyefwcESWnHhGuAAATr2RFv1+nF14/Wy/LPihkpIuF0zAAAzAAAzAAA4Fg4JN/3SQL/7pdLh6/zTTCAMTOTolW5DwIV0CgiZameJ+HQ0NSea7Bki7WdCU+y0ZmkzKHARiAARiAgUQysFmWvL1DLp2slcHBEKNbAYmdI7LkxCPCFSBo4hUt+/tvXmmSr97bGYjMFh1bIjs2PgveYAAGYAAG3MHAf/7fzbL4rXypOFuPaAUoZnZCsqLPgXAFCB67MDlxfPlkrXz5N6SLjtEdHSP1QD3AAAzAAAw4xYDuUqiyVf5LDbIVoHg5WpSceo5wBQwgJyQr+hyhwbBcOFojS6cUMNLFPH4YgAEYgAEYgAHfMPCPN7ZJ2aFqGRxgGqFT4hHU8yBcARMuBT1amJx4rue8XlbP9EI6Wd90sk5lRzkPmXYYgAEY8CYDumbrwrEaNsgIYJxsQgoRroCC5IRo2c9x9fQdWTplB0E34gUDMAADMAADMOBZBha++XA3QhOBN+ccCuT0TIQroMKlF7xdmOI91nNqNoiNNLyZzSMLS73BAAzAAAwEnYElb+fL2ZJqRrYCHB+bkGKEK+BAxStZ9vfrmi4d6UqftkvYMp6OO+gdN7+fawAGYAAGvMGAxixfTC2Q8l9usWYr4LExwgUARoZh7dLkxPHNy02y7H1ujkxH642OlnqinmAABmAg2Ax8Pa1QKs6x9bsJ2eCcQ8IIFxJnSZwTkmU/R+X5Bln+4R7PzuGm8w1250v9U/8wAAMwEAwGvn6/UK6duWMkqY1sBHPNlr3eES6Ea7iBsQtTvMfh0JBUnGuQb6bvRrpYPA0DMAADMAADMOA6Br6etkuu/ForoUG2frdLAsfOySLChXANC5deWPFKlv39Q+Ehqbl2T1b+ZxFruuhoXdfRkr0ORvaaeqaeYQAG7Azomq0VnxTJrStNEg6HH4uFEA3nRIOyfFiWCBfC9ZtGxi5NThw31XXIyhlFMvPZLQTdiBcMwAAMwAAMwEDSGJgxYYus+LhI6m+2/SYGQhCQLRMMIFwIV8zGxgnJsp+j7kaLrJ9/SGY+h3TZM20ck32FARiAARiAAfMMaOJ37dyDcvtac8z4x0SwzTmROIQL4RqxwbELU7zHOr3wbm2H/LTgsMx8LiNpmS06NPMdGmVMGcMADMAADLiNAY09NnxWIg232rjPFvHviPGvCUFGuADuicDFK1mx3t/T1S/Zy47J7BczkS6mlMAADMAADMAADBhnQGOOzK+Oyv2O3ifGPSaCbc7JCBfChXA9teGJJU3xvtbV1iu5y09K6kvZxhtZt2XY+D5kfWEABmAABmAgcQxorJH77QnpaO15asyDHCFHJhhAuBCuUTU+8QpWrPd3tPRIwZrTkvpSFtJFdhMGYAAGYAAGYMBxBlInZcmOVael/V73qOIdE8E250TiEC6Ea9QNUCxpive1vp4BOZhzUeZOznG8kSV7mLjsIWVNWcMADMAADLiNgbSXc+RARrn0dg+MOtZBjpAjEwwgXAjXmBqheAUr1vuHhh7I8d0VsvDNbUgX2U0YgAEYgAEYgIG4GVj05nYpzb8qumGXiQCac1KuY2EA4UK4xtwQxZKmeF8b6AvJmYNV8sW7O7lBMh1t3B2t27KsfB8y/zAAAzCQGAb0hsZfTC2QMwerZaA/NOYYZyxBNH+LdI2WAYQL4RpXYxSvYMV6/+BASCrONcjSdwoIuJEuGIABGIABGICBMTOw5O18uV52Rwb6BscV34w2gObvkK2xMIBwIVzjbpBiSZMTr9270ykrPtkrs57nXl1kRBOTEaWcKWcYgAEY8DYDeo8tjR2a67vGHdeMJYDmbxGusTCAcCFccTVMTgiW/Ry6pqv+ZptsWlgqcyZyry6CAG8HAdQf9QcDMAADZhnQWGHjPw5LfXWrhFmzFVdcNxaJ4G9HL50IF8IV94VpFyYnjlW6mus7Jfeb46JZKzors50V5Uv5wgAMwAAMeJEBjRH0Hls6OyYcDscd0yARo5cIymr0ZYVwIVyONE5OSFasc/Te75e9m8+L3kfDix0B35kABgZgAAZgAAbMMKCxQcHaM2z7TizrSCxrUiARLiB1DNJYwuTEa7qD4YndFbLk7R0yY8IWxItF1DAAAzAAAzAQYAZ0J8LFb+XLiT0V7ERIHOtYHItwAZMnYFJQnRCsWOfQrV0vHr8ty94vpJMNcCdLlthMlphypVxhAAa8xED6tF1y4WiNaELWZJDMuUc/ZY6yenJZMcKFzDneWMUSJideC4eG5Pb1e5I+DenyUsfIdyWQgwEYgAEYcIqBZR8UWrFAKMR6LSTnyZLjpvJBuBAux4UrArgTkhXrHC2N9yXjq6OSwrouRvsY7YMBGIABGAgEAykTM2Xz4iPWhlqROINH7whH0OsK4UK4jAmXXlyxhMmJ19qbe6RwfZmkTs4JREfjVGaQ85BlhgEYgAEY8BoDc1/Jsfr8tqZuozFL0KWA329OYBEuhMt44+WEYMU6R09Xv5TmX5H5r+chXWR4YQAGYAAGYMCHDMx7NVdKt1+Rnvv9xuMVhMOccAS9bBEuhCshDVgsYXLiNd1M48Kx26ILaNnBkKyt17K2fF+YhQEYgIHYDGif/tV7O6X8l1vsREismpBY1aQUIlxAnDCInRCskc7RWNMumxeXcpNkH2Y3CUZiByOUC+UCAzDgVwZmPp8hmxYelrobLdbSBJOBMOdmVCsRDCBcCFfChEuBHkmYnHi9s7VH8laclDTWdTGtBvGEARiAARjwJAOpL2dLzrfHpaOlB9kiRk1ojGpSvBAuYE44zE7I1Ujn6GrvlUN5l+Qz1nV5sqP1a7aW38VIBAzAAAw8nQFdk30w+6J0tfUiW8SnCY9PES6g8xV0pke6QoNhuXyyVtLfY10XHfzTO3jKiDKCARiAgeQyoOu1vp62S67+Wifah5sMfDk3UwiTwQAjXMhcUhu2kUaqnHi9vrpVfvqsRFImZTLaw9QaGIABGIABGHAhA6mTsmT9/EOs1yIeTWo8alrCEC4ATzrgTshVrHMMDT2QloYu2b3hrMx9lft1kcFNbgaX8qf8YQAGYOBxBua9kiu71pVJS2OXaJ9tOujl/IxuJYsBhAvhckUDF0uYnHqtt7tfzh6+KfNey5UZEx5v7On8KA8YgAEYgAEYSCwD2hfr/bXOHKyW3vv9rNciFnVFLGpSxhAuIHcN5E4J1kjnqa1oltUpB5hi6MIpJQQ7iQ12KG/KGwZgIFkMzJmYKavmHJC6yodbvmufbTLQ5dyMarmBAYQL4XJVQzeSLDny+tADaa7vlILVZ2QuW8ezlgHxhAEYgAEYSCgDaa9kS/6Pv0pTXQdTCIk/XRV/mpYyhAvgXQe8I3L14MGI9/zq7uyT44UV1nSGZGX4+FyyyzAAAzAAA0FiQKf1H99TIffb2fLddHDP+d03qodwIVyuE65IQ2FSvHTb2ZuX78qa1GKZ/SK7GAap0+e3EuTCAAzAQOIYmPVChnw/c79UXbxrbfmufXukn+fRfWJAnZipE4QL4XJ1w2dSuvTc7fe6ZfdPZ2X+n3MTOq2Czj5xnT1lTVnDAAzAQHIY0FGtwvVl0tbUPTzrhIDeTEBPubq7XBEuhMvVwqUNiGnp6u8dlFP7bkj6+7uQLtYzwAAMwAAMwIADDHwxtUBO7qkU7WMj/ThS4G4poH7M1Q/ChXC5XrgSIV0Ppxg2ybq5B2Xms1vobB3obMkoJyejTLlT7jAAA8lkQPvQ1anFUn2JKYQIjDmB8VrZIlwIlyeEK3JhRbJkph77+walOOeCLHg9j3t2IV2INwzAAAzAwCgZ0HtrLfhLnhzIvMCoFrGlp2LLSIxp8hHh4qLw3EVhSrYi5w2Hh+RsSbV8/+k+mfV8Bp3tKDvbZGZU+Wwy+jAAAzCQPAa0r1z5aZGcK70l2odG+lOTASznZvTISwwgXAiX54RLL7BIY27qMRwaksaadilYe0bmTGIXQwKZ5AUylD1lDwMw4GYGdKffbd+fkvqbbRIOha3+2UuBMN8VcUsEAwgXwuVJ4YpcHKaEK3JeXex7vvSWLJ1SIDOfY7TLzZ0+342gFAZgAAYSx4Cu1Vry9g4pO1QlfT0Dw4nQSP/MIyIDA48YQLgQLk8Ll17METky9aif0VDTJjnLjnOzZKYXMsUUBmAABgLPwNxXcyQz/Zg1qhXdDxNgPwqwKQvKIpoBhAvh8rxwRTf2pqRLz3u/o09OFlXKor/mB76zJYucuCwyZU1ZwwAMuImBhW9ukxO7K6SrvXc44RkdWPIc0YCB3zKAcCFcvhCuyMVtUrj03KFQWG6UN8qa1GK2jyfLjXjDAAzAQGAY0CmEa9KKpfJ8g+itVCL9baT/5fG3QTZlQplEGEC4EC5fCZeCHekEjD0OPZDe7gE5vrtCvpxaIDMmcN8uN2Vf+S6MBsAADMCAcwxoH6drtY4WXJWe+/3yYOjBcD8bCSZ5RCxg4MkMIFwIl++EKyHS9eBhh3P7+j3ZtLhU5k7OCUyWk0DGuUCGsqQsYQAG3MxA2uQc2fj5Yam6eHdYsjSZSXD95OCa8qF87AwgXAiXrxtOY6Nc/yVcQ0MPpKOlR44WXJOl7xQgXUwvggEYgAEY8AUDOqpVuv2KtN/rFu3rIv2pPZDkGLmAgaczgHAhXL4WLm0EIp2EycfBgZDcvd0hmxYdEb0nyYwJZG3dnLXlu8EnDMAADPyWAe27Zr2QIWvnHpSGW20y2B96rA8lsH56YE0ZUUaxGEC4EC7fC1eipEuFrr9vUE4W3ZBv/r6H+3aR5fZFlpug9LdBKWVCmfiRAb3X5LfT91jrk/UelNFJylgBJK8hFjAwegYQLoQrEMIVaRSiOxBTz8OhIbl9vVm2rTwpc19hbZcfAxN+EwE3DMCAnxhIezlbtn13SmormiUcfnxmSKT/5HH0wTVlRVnZGUC4EK5ACZdeAKZEy37e7s4+OVtyU5Z/uIcphox2MdoFAzAAA65jQHcg/Gb6HjlTXGXdazK6H7MHjBwjETAwfgYQLoQrcMIVaTCiOxZTz4fCQ9LZ2iv7t5TL529sZQt5Ai7XBVx+ytLzWxh1goHRMaCi9Y9/2yp7N52XjuYe0b4quh+M9JM8jj/Apuwou2gGEC6EK7DCpRdCdAdj+rneMFm31537KtMMCYpGFxRRTpQTDMCA0wzoVu8bFpRIxdn6mH1gdJDIc6QBBpxhAOFCuAItXJGGxLRs6fkjW8gf23VNvvzbTkY6GO2CARiAARhIKANfvrdLfim4Jm1NutX740nHSH/IozMBNuVIOUYzgHAhXAjXfzGQCOnSz7C2kK/tkKz0Y5I6KZv1XQRcCQ24nM6Wcz5GYGDA3QzoVu9zJmXJ5sVHpPF2u9UH2fu76MCQ54gCDDjPAMKFcCFcNgbsHZGp41AoLFUX7j6cZjiZaYYEbe4O2qgf6gcGvMeATh9cP79EKs83ivY59v6MwNr5wJoypUxjMYBw2YLtWIXEa8G7eOydksnj++29crTgqiz/iHt3EdB5L6CjzqgzGHAfAzOf3SLLPiiUw9uvSFdb729ES/s0YpvgxTbUefLqHOFCuGh0n8CASdGKPnc4FJa6qlYpXF/GphpMMWSKIQzAAAyMmwG9/2P+qtNSc/2ehAYZ1UIykicZlP2jske4nhBsA8ojUIJcFtFiZPr5QH/IuvHkqtkHJO3lHNZ3EXSNO+hi1MF9ow7UCXViigFdp6V9xuqUYqmtbJGBvkFGtYjvSKi7iAGEy0WVEWSp8cJvNy1b0efv7R6QU0U3rM4zZVImQTfiBQMwAAMwEJOBlIlZ8uOsA/Lr/huifUd0XxJ57oU+lu9IktvPDCBcCBcZkDEwEOm8EvGo28i3NHbJ4W2XJf29XYx2EWzFDLZMZcw5L6MxMOBuBnRU68t3d8qh3EvSVNdh9eWx+iY/B7H8NiTNKwwgXGMItr1SqXxP8w1QrE7N1GuDA2G5U9Uiu9aWybxXcgm6ES8YgAEYCDgDaS9ny7bvT1lT0PVWI7H6H2IB87EAZUwZj5YBhAvhYoRrnAzE6uBMv6ZZzJ+XHJEFr+fJjAlbCLoCHnQxAuHuEQjqh/pxkgFt8+e/niebFpZKw622mJKlfdBoA0D+DlmAgcQxgHCNM9gG0sRB6vayNi1Z9vP39w7K+SO3ZOPnpaJZTic7dM5FgAgDMAAD7mNA76e1aeFhOVtSLX09sddpIVvEJW6Pl4L8/RAuhItsmEMM2MXI5LE2Wu33uuXMwSr57pMi0XuuECS5L0iiTqgTGICBeBjQtl3v0Xi6uEram7tZp+VQfx3kwJ/fnhwxR7i4eBEuBxkwKVmxzh0OD0lHc7e1O9U3H+6RORPZ0TCe4Ib3EhzDAAy4gYHZL2ZaNy4+ubdSOpp7RNv6WH2AvkYAnZwAmnKn3MfCAMLlYLA9loLnb/19oY7UMZp8vaerX0rzr1rZ0NRJWYx4sb4LBmAABjzGgCbNvpm+W4qzL0p3R9+IkoVo+TuGIEb0X/0iXAgX2TGDDJgUrFjn1ixoQ02bHMy+aGVH3ZCp5TswYgADMAADT2dAb/+xb0u53KlulXCIES2kw3/SEeQ6RbgMBttBBovf/qihjCVGpl8b6A9Zu1jt3XRO/vHGVrLcHstyE5w+PTiljCgjvzCgu84WrD4j9dWtMtA3OOKoFv3qo36VsqAsvMYAwoVwMcKVIAZMS1as8+uIl26ucSCzXL6cWiC6LsAvQQq/g4AbBmDAqwzMeTFTlr5TIHs3nZfm+q4nrtHStt1rwSXfFyGCgccZQLgSFGwD3uPgBbk8YolRIl5rrGmXPRvPWesDZr2QgXgx6gUDMAADCWZg1vMZsuz9QilcXya1lS0jjmZF+oQg95X8duImPzGAcCFcZM6SxECkQ03k42B/SOputMih3EuydEoBwVaCgy2vZuP53owkwUD8DCz8921SnHVBbl9vFp32/aS230+BJr8FcYKBIUG4khRsAx8NkDLwpA7X5P8NDoSk8Xa77N18Tha/lS+MeMUfTBGQUoYwAAN2BnRES9vYop/PS+OtNkSLmIskd0AZQLgCWvEIn7uEz6RcPe3cna29w9vJz52cIzMmEDTZgyaOYQIGYGAsDKS9nCPLP9wjB7IuSEdLz6iSa/TL7uqXqQ/qw0kGEC6Ei2yLixh4mhyZ+n9tVJobuuR4YYVsWHCYGygz1ZDppjAAA+NgQDcmWpN2UI4UXJWmuk6rf31au+1kUMe5kAQYcCcDCJeLgm0uEndeJMmol6d10Kb+X3c1bLvXLWdLqmV1SjG7Go4j4BpLFpy/ZdQEBvzBwKwXMuX7GfvkTHGVtDR2PfE+WpH2Oxl9C59JnAEDyWEA4UK4GOFyMQORjjnRj9og9/UMSuX5Btm4sFQW/CWPdV7IFyMeMAADUQzMfC5D5r+eJ5sWHZEb5Y3S1zMgQ+Gnr80l4E1OwEu5U+7JZADhcnGwnUww+Gx3NUyJFq7oz9NRr6qLd6VgzRlZ/tFe0UXgZOX9kZWnHqlHGBg7AzN1a/e/F8r2709Jxdn6UY1maZtKv+qufpX6oD4SyQDChXDRCXiIgWgRSvRz3VL+TlWrHN5+RVZ+WsSIV1Smm6B17EErZUaZeY0B3c11+X/slYO5l+R2RbMM9A2yGYaH+s9EBtd8FjJnZwDhorFAuDzIQKJlK/rzQoNhaWvqlvNHbsnqOcXWiBc7GxI8ey145vvC7GgY0LZNR/W//3SfnD5QJS0NXaK31YhuE0d6bg+4OCYIh4HgMoBweTDY5oIN7gVrr/uROvpEva7fR9cuZH99TL56b6ekTMxkuiEjXzAAA55nYM6LmfLl1AKrbas832glJkfbrtrbaY7ps2EABhAuhIsRLh8wMNpAwNTf6aiXTjc8mHPR2hJ57qs5ng+4RpP95m8YJYEBfzGQ9kq2/Dhzn+zPKJeaa/dEp1KPtt0kqCaohgEYGIkBhMsHwfZIlcvrwbvwRxsYmPq7cGjI2hL54rHbkrPsuKRMyka8GO2AARhwPQNzJmZK5ldHpfyXW9JU1yGhUBjRIj4iIQ0DjjGAcAGTYzAheO4QPFMyNZbzKgv9vYNy93aHHMgsl2UfFEra5BxhrZe/RgMY3aE+vcrAjAlbrDZJp0IXri+T+putVpulbddo2zr6PHf0edQD9eAFBhAuhAvh8jEDow0cTP/d/Y5e64agPy85IunTdrHWixEP1494eFUk+N5PlmDdafCLqQWyefEROXOwWu539I1asCLtpBeCO74jEgID7mIA4fJxsM3F5q6LLZn1EQkUkv2oN1O+dfWeHMm/KmvnHrQyzASITw4QKR/KBwbiZyD1pSz5YdY+Kcm7bN1XsOd+P6JF/EPCGQYSxgDCBWwJgy2ZwsFnP5TPZAtX5PPDobC03+uWyvMNkv/jaZn/51xGPBj1ggEYcJyBea/lSu7yE3L19B1pvXtfdIOfSDs02kf6D5KXMAAD8TKAcCFcCFcAGRhtoJGov+vvHZAzB6pkw4ISWfpOgaS+xGYbjGrEP6pBGQavDFMmZsnit/Jlw2cl1n2zdC3peNuxeAMs3k+QDgMwEGEA4QpgsB2pfB5pCMYbiJh630B/SGorW+Tw1svy04ISWfTXfJn57BbHs94E4sELxKlz/9a5boDx+RtbZf38Q3Ig64LcvNIkA33jEy36RfpFGIABEwwgXAgXI1wwYDFgSqLGc96h8JB0tPRYay0Ob7ss331SJLNfzEK8mHIGAzAwzIBugPHtR3vkYM4lqTzXIG1N3RIOj36Xwei2yUSAxTkJ3GEABiIMIFwE2wgXDDzGQHQQ4obnuuaiq61Xbl9vlqKfy2Xp1AJJezlHZj6XMRx4MXrh39EL6pa6jTCg17xe+zplsGDNGbl5uUk6W3tlcGD0Nye2t2mRYIhHAmMYgAGTDCBcBNuPBdsmYePc3mrM7IGJW477egbkyqk6KVh9Rn6cdUAW/vs25ItRD+TbpwzolOIFf8mTH2bss675K7/Wia75jKc9oi/yVl9EfVFffmAA4UK4EC4YeCoD8QQ3pt6rDbBOO7x8stYa+Vo375DMfTWHwNungXdklIPHYIx4pb6SLatmH5C9m85J+dEaabvXbbVT8bQnfgja+A3IBwx4kwGEi2D7qcE2F7c3L24T9RZPsGPyvTqlSAOy6kt3ZX9GuSz/eI/o+g6C82AE59SzP+pZr9llf98tu9aflcryBmlp7JKBvvFPF4y0OSbaQs5JvwgDMDAWBhAuhAvhgoExMxAJZNz4qBtu6LqvloYu+aXgqrVz2ZK3d1ijX7qbGcG5P4Jz6tHb9Thjws8yd/LD9Vg6kqW7CzbeapPBgfC4N76Ibo/GEgjxtwTOMAADphlAuAi2xxxsm4aS83ur4YsOctz4XOWrqbZDfj1wQ/JWnJAfZ+2zHQCWLgAADRBJREFU1oRowEfQThnAQOIY0GtOb3K+4pO9krPsuJzYWykNlmTFP4oVaXvoP7zVf1Bf1FdQGEC4EC6ECwYcYyAS9Lj1Uace3rvTKVdP35Gin8/L6pRimfdqriBfiQu6EZxglbVeW3qNrU45IPu2lFsb3qhkjfc+WbHalqAEbPxO5AQGvMsAwkWw7ViwTUPg3YbA6bqLFRS57TW9yXJna4/crW2X80duSfayY7L0nQJJfSlbZj2fgYSx+QYjoGNkQOVKr53USVmy8P9tk00LS+X0/hvSUNNmXWt6zTnVDjjdZnE++i8YgAGTDCBcCBfCBQNGGXAqwErEeXQE7E5VqxzJvyobPz8syz4olM9ezxPWfgVrVIZRuNHXt14bum27XivrPyux1mLdvNIk/X2DjslV9LVvMiDi3ATcMAADphhAuAi2jQbbpsDlvN5sFKMDJ7c/12x8462Ho197N5+XLUuPyLcf7ZWUl7IY+RjjyAcCM3qB8UJZpUzMkvT3d8nGz0tl78Zz1ghxY02bODmCFd0+0N57s72n3qg3GHjEAMKFcCFcMJAUBqIDKrc/D4fC0tnWK4017XK9rF4Ob70smxYdkQVvbEW+kK9AMKDrsNakHZR9P5fLtdN35E51q3Q091g7gpq4fgnUHgVqlAVlAQPeZwDhIthOSrBN4+H9xsOpOjQRrJk+Zzg0ZGXze+73W/f+Ks6+KOvnl8iXUwvkH/+2VdJezpGZz7IFvRdGa/iOj0bfdHpg6qRsmf96nrWeccOCEjmYc1GqLzWKsq7TBHXXT1PXl1NtCuehf4EBGHAbAwgXwoVwwYBrGDAVyCXqvBqU3rzcJCd2V0j+j7/Khs9K5Jvpe6x1YAjYo8AeyXFHWahg6cjVV+/tlLVpB2XripNyePsVqThbb21ykYjrxm1BEd+HQB0GYMAEAwgXwbZrgm0TgHNObzeciQj4TH2GstfV3iu1lS1y6WStlOZflexlx+W7T4qsexGxFb07pCNI8qfM6eiVMqgslm6/Yq2/0iSBTg/Um4abuh6iz0u77O12mfqj/mBg7AwgXAgXwgUDnmAgOmDz4nOdhtjd1SdtTfel8fbDtWAqYTnfnJBvPtwjs1/MtLbU1pEwZAwZG68IKjvK0MznMmTWCxmy9J0dsnnxEdmfUS4XjtbI3dvt0tbUbbGoTCbqWiJAG3uARplRZjDgHwYQLoJtTwTbNDr+aXScqMtEBYmJ/Jz7HX1SdfGuHN15XfJWnJQfZu63ttpe+vYOa1RChQwRQ8SiRWz2Cxky99UcWfTX7fL1+4Wy8tMiyVl2XEq2XpYrp+9IZ2tvwoQq1rXixLXOOWj7YQAG/MAAwoVwIVww4GkGYgV6fnhNt9huru+Sm5fuSlnJTTmUe0l2rDotPy85Yk0JW/xWvsyZmBmIHfKiJSOoz1WudEOWb6fvFt3MYtt3J+VARrmc2ndDKs83SFNth/T1DCBYtOeebs/9EFjzGxDEWAwgXDTONM4w4CsG/CBbI/0GvTFzZ1uPNS1Mby575VSd/LLjquxce0Y2Lyq17hOmmyAwEubdkTCtO63D5R/tseq0YM0Z+aXgmlw+UWuNgOp27O33uqW/d9C6bkdiJVGvxwoseI2AEwZgAAYeZwDhItj2VbDNBf74BR708khU0JnMz9F7hOlomI5udHf1W0Kmox3Xyu5Y0xN3/Hja2rI+fVqhLHxzmzVKMu+1XJk7OUdSJ2VZ63wQNHOCpmWr66l0NFJvF6Ay9dnrefL5G9usaYA6WqV1pFNJ9R5vTXUdVh1qXWqdat1qHSeTMftnB71d4ffTz8AADIyVAYQL4UK4YCAwDNgDx6AdD/QNSktjl3XvsPKjNXJ01zXZ89M5yUo/Zm1h/+Os/dbISvp7u6x1QSoG3FPsyTKmG1RoGWlZLfprvmjZ6eiUlqXeFiAz/ZjoKNXB3Ety+sANS6oabrVZO1gODT1wlUiNdD2MNbDg7wlGYQAGYOBxBhAugu3ABNtc/I9f/JRH4nZoGymQdc3rQw+kt3vA2kFRZUCnK+poi+5qp5JwdOc1Kc66KIXryiRv+QnZtLBUVqcUy4qP98rXHxSKrifT7cZTJmX7Zk2Z/hb9Tfrb9Dfqb9XfrL9dy0DLQstEy+ZMcZVVVlpmt642iZah7gSoZfrAI1IVzSJtA20lDMAADDjLAMKFcCFcMAADQ8hXdMAd67lOa9N1QzrVraOlxxKKloYuawqcCsadqla5XdFsjZ5d+bVOyg5Vy7Fd1y0pKdp03hrl2bbylDXio9uUr5t/SH6YtU+Wf7xX0qftkqVTCqxpdjrVTv8t+EuepL2SLamTH/6b81KmzHh2y7DQ6XN9LfL/+rf6nsj79VHPqefWz9DP0s/Uz9YRPf0uOvKk3604+6IcK7xufWf97tWX7lq/RX9TY02b9Rv1t6pE6W/XMtCycNtUv1j1NprXCKycDawoT8oTBmDAzgDCRbBNsA0DMAADMAADMAADMAADMGCIAYTLUMHazZZjsh0wAAMwAAMwAAMwAAMwEDwGEC6Ei2wGDMAADMAADMAADMAADMCAIQYQLkMFS/YieNkL6pw6hwEYgAEYgAEYgAEYsDOAcCFcZDNgAAZgAAZgAAZgAAZgAAYMMYBwGSpYu9lyTLYDBmAABmAABmAABmAABoLHAMKFcJHNgAEYgAEYgAEYgAEYgAEYMMQAwmWoYMleBC97QZ1T5zAAAzAAAzAAAzAAA3YGEC6Ei2wGDMAADMAADMAADMAADMCAIQYQLkMFazdbjsl2wAAMwAAMwAAMwAAMwEDwGEC4EC6yGTAAAzAAAzAAAzAAAzAAA4YYQLgMFSzZi+BlL6hz6hwGYAAGYAAGYAAGYMDOAMKFcJHNgAEYgAEYgAEYgAEYgAEYMMQAwmWoYO1myzHZDhiAARiAARiAARiAARgIHgMIF8JFNgMGYAAGYAAGYAAGYAAGYMAQAwiXoYIlexG87AV1Tp3DAAzAAAzAAAzAAAzYGUC4EC6yGTAAAzAAAzAAAzAAAzAAA4YYQLgMFazdbDkm2wEDMAADMAADMAADMAADwWMA4UK4yGbAAAzAAAzAAAzAAAzAAAwYYgDhMlSwZC+Cl72gzqlzGIABGIABGIABGIABOwMIF8JFNgMGYAAGYAAGYAAGYAAGYMAQAwiXoYK1my3HZDtgAAZgAAZgAAZgAAZgIHgMIFwIF9kMGIABGIABGIABGIABGIABQwwgXIYKluxF8LIX1Dl1DgMwAAMwAAMwAAMwYGcA4UK4yGbAAAzAAAzAAAzAAAzAAAwYYgDhMlSwdrPlmGwHDMAADMAADMAADMAADASPAYQL4SKbAQMwAAMwAAMwAAMwAAMwYIgBhMtQwZK9CF72gjqnzmEABmAABmAABmAABuwMIFwIF9kMGIABGIABGIABGIABGIABQwwgXIYK1m62HJPtgAEYgAEYgAEYgAEYgIHgMYBwIVxkM2AABmAABmAABmAABmAABgwxgHAZKliyF8HLXlDn1DkMwAAMwAAMwAAMwICdAYQL4SKbAQMwAAMwAAMwAAMwAAMwYIgBhMtQwdrNlmOyHTAAAzAAAzAAAzAAAzAQPAYQLoSLbAYMwAAMwAAMwAAMwAAMwIAhBhAuQwVL9iJ42QvqnDqHARiAARiAARiAARiwM4BwIVxkM2AABmAABmAABmAABmAABgwxgHAZKli72XJMtgMGYAAGYAAGYAAGYAAGgscAwoVwkc2AARiAARiAARiAARiAARgwxADCZahgyV4EL3tBnVPnMAADMAADMAADMAADdgYQLoSLbAYMwAAMwAAMwAAMwAAMwIAhBhAuQwVrN1uOyXbAAAzAAAzAAAzAAAzAQPAYQLgQLrIZMAADMAADMAADMAADMAADhhhAuAwVLNmL4GUvqHPqHAZgAAZgAAZgAAZgwM4AwoVwkc2AARiAARiAARiAARiAARgwxADCZahg7WbLMdkOGIABGIABGIABGIABGAgeAwgXwkU2AwZgAAZgAAZgAAZgAAZgwBADCJehgiV7EbzsBXVOncMADMAADMAADMAADNgZQLgQLrIZMAADMAADMAADMAADMAADhhhAuAwVrN1sOSbbAQMwAAMwAAMwAAMwAAPBYwDhQrjIZsAADMAADMAADMAADMAADBhiAOEyVLBkL4KXvaDOqXMYgAEYgAEYgAEYgAE7AwgXwkU2AwZgAAZgAAZgAAZgAAZgwBADCJehgrWbLcdkO2AABmAABmAABmAABmAgeAwgXAgX2QwYgAEYgAEYgAEYgAEYgAFDDCBchgqW7EXwshfUOXUOAzAAAzAAAzAAAzBgZwDhQrjIZsAADMAADMAADMAADMAADBhiAOEyVLB2s+WYbAcMwAAMwAAMwAAMwAAMBI8BhAvhIpsBAzAAAzAAAzAAAzAAAzBgiAGEy1DBkr0IXvaCOqfOYQAGYAAGYAAGYAAG7Az8f4f2jEDhvmn9AAAAAElFTkSuQmCC;" parent="1" vertex="1">
          <mxGeometry x="320" y="394.9" width="45" height="47.1" as="geometry" />
        </mxCell>
        <mxCell id="ZZ-KA2M3GGoIeQwi2uxn-28" value="Databases" style="rounded=1;whiteSpace=wrap;html=1;verticalAlign=top;" parent="1" vertex="1">
          <mxGeometry x="840" y="362" width="130" height="90" as="geometry" />
        </mxCell>
        <mxCell id="ZZ-KA2M3GGoIeQwi2uxn-30" value="" style="shape=image;verticalLabelPosition=bottom;labelBackgroundColor=#ffffff;verticalAlign=top;aspect=fixed;imageAspect=0;image=data:image/png,iVBORw0KGgoAAAANSUhEUgAAAggAAAFmCAYAAAAI6mLUAAAgAElEQVR4XuydBXhUV7eG1w+ECCS4u7u7F/fgboXiUrwUKFKgQHEvhUKB4i4tWrwtFHco7q4JEvw+3+bOzDkRJjJzMpP51nNzKZNz9l773fNz1ll7yf8+fvz4USgkQAIkQAIkQAIkoCHwPxoI/D6QAAmQAAmQAAkEJkADgd8JEiABEiABEiCBIARoIPBLQQIkQAIkQAIkQAOB3wESIAESIAESIAHrBOhBsM6IV5AACZAACZCAyxGggeByW84FkwAJkAAJkIB1AjQQrDPiFSRAAiRAAiTgcgRoILjclnPBJEACJEACJGCdAA0E64x4BQmQAAmQAAm4HAEaCC635VwwCZAACZAACVgnQAPBOiNeQQIkQAIkQAIuR4AGgsttORdMAiRAAiRAAtYJ0ECwzohXkAAJkAAJkIDLEaCB4HJbzgWTAAmQAAmQgHUCNBCsM+IVJEACJEACJOByBGgguNyWc8EkQAIkQAIkYJ0ADQTrjHgFCZAACZAACbgcARoILrflXDAJkAAJkAAJWCdAA8E6I15BAiRAAiRAAi5HgAaCy205F0wCJEACJEAC1gnQQLDOiFeQAAmQAAmQgMsRoIHgclvOBZMACZAACZCAdQI0EKwz4hUkQAIkQAIk4HIEaCC43JZzwSRAAiRAAiRgnQANBOuMeAUJkAAJkAAJuBwBGggut+VcMAmQAAmQAAlYJ0ADwTojXkECJEACJEACLkeABoLLbTkXTAIkQAIkQALWCdBAsM6IV5AACZAACZCAyxGggeByW84FkwAJkAAJkIB1AjQQrDPiFSRAAiRAAiTgcgRoILjclnPBJEACJEACJGCdAA0E64x4BQmQAAmQAAm4HAEaCC635VwwCZAACZAACVgnQAPBOiNeQQIkQAIkQAIuR4AGgsttORdMAiRAAiRAAtYJ0ECwzohXkAAJkAAJkIDLEaCB4HJbzgWTAAmQAAmQgHUCNBCsM+IVJEACJEACJOByBGgguNyWc8EkQAIkQAIkYJ0ADQTrjHgFCZAACZAACbgcARoILrflXDAJkAAJkAAJWCdAA8E6I15BAiRAAiRAAi5HgAaCy205F0wCJEACJEAC1gnQQLDOiFeQAAmQAAmQgMsRoIHgclvOBZMACZAACZCAdQI0EKwz4hUkQAIkQAIk4HIEaCC43JZzwSRAAiRAAiRgnQANBOuMeAUJkAAJkAAJuBwBGggut+VcMAmQAAmQAAlYJ0ADwTojXkECJEACJEACLkeABoLLbTkXTAIkQAIkQALWCdBAsM6IV5AACZAACZCAyxGggeByW84FkwAJkAAJkIB1AjQQrDPiFSRAAiRAAiTgcgRoILjclnPBJEACJEACJGCdAA0E64x4BQmQAAmQAAm4HAEaCC635VwwCZAACZAACVgnQAPBOiNeQQIkQAIkQAIuR4AGgsttORdMAiRAAiRAAtYJ0ECwzohXkAAJkAAJkIDLEaCB4HJbzgWTAAmQAAmQgHUCNBCsM+IVJEACJEACJOByBGgguNyWc8EkQAIkQAIkYJ0ADQTrjHgFCZAACZAACbgcARoILrflXDAJkAAJkAAJWCdAA8E6I15BAiRAAiRAAi5HgAaCy205F0wCJEACJEAC1gnQQLDOiFeQAAmQAAmQgMsRoIHgclvOBZMACZAACZCAdQI0EKwz4hUkQAIkQAIk4HIEaCC43JZzwSRAAiRAAiRgnQANBOuMeAUJkAAJkAAJuBwBGggut+VcMAmQAAmQAAlYJ0ADwTojXkECJEACJEACLkeABoLLbTkXTAIkQAIkQALWCdBAsM6IV5AACZAACZCAyxGggeByW84FkwAJkAAJkIB1AjQQrDPiFSRAAiRAAiTgcgRoILjclnPBJEACJEACJGCdAA0E64x4BQmQAAmQAAm4HAEaCC635VwwCZAACZAACVgnQAPBOiNeQQIkQAIkQAIuR4AGgsttORdMAiRAAiRAAtYJ0ECwzohXkAAJkAAJkIDLEaCB4HJbzgWTAAmQAAmQgHUCNBCsM+IVJEACJEACJOByBGgguNyWc8EkQAIkQAIkYJ0ADQTrjHgFCZAACZAACbgcARoILrflXDAJkAAJkAAJWCdAA8E6I15BAiRAAiRAAi5HgAaCy205F0wCJEACJEAC1gnQQLDOiFeQAAmQAAmQgMsRoIHgclvOBZMACZAACZCAdQI0EKwz4hUkQAI2JvDu3Tt5/fq1+nn79q3g7/h5//69fPjwQf1A/ve//5l/YsSIIaYfd3d3iRkzpuDP6NGj21g7DkcCJKD+9/fx48ePREECJEAC9iKAh/3t27fl7NmzcunSJbl27ZrcuXNHHjx4II8fPxY/Pz95/vy5vHjxQgICAuTNmzfKaDAZCDAKYATEihVLvLy8xNvbW+LFiyfx48eXRIkSSZo0aSRz5sySM2dOyZQpkzIaKCRAAhEnQAMh4gw5AgmoN17Y2qYfIAlse+NtOPBbsekN2WiEprd0/Im3djy0r1+/rh7ceFg/e/ZMokWLJnHixJHYsWOrH/x38uTJ1Q8ewtAd12j/xJox3qtXr2Tv3r2yevVq2bhxoxrXCIGO1atXl+bNm0upUqXE09PTrKMR83MOEohKBGggRKXd5FoMIQBX+NWrV+Xy5cty8+ZN9XPr1i31Noyfp0+fKtc53oTxgweoyR2OByseYvjBW3DixInVWzAeuilSpDA/gD08PGy+lhs3bsjRo0fVm/x///2ne5uHnqEVrAcGA3RPliyZ+oHueJPHHAcOHJBjx44pQyMyBVyLFSsmJUqUUMZCvnz5xB5cI3ONnJsE7EmABoI96XLsKEMAb8YnTpyQ3377TdasWSOPHj0yu8JhMERE8BYON7qbm5v6gSsdD7OyZctKtWrVJEuWLMrICI9Ab+g7bdo09dDGmz2MF3ucLGIdptiB8Ohqr3ugFzwJ4Ni/f3+pU6cO4xbsBZvjRikCNBCi1HZyMbYkgLPxI0eOyPbt25Wr/MyZM7YcPtRjJU2aVIoUKaLehvPkyaPO2VOnTq2MieAERgA8BevXr5fFixert3pHEBhBiBtImDCh8pqY/hvrw2dx48ZVP/CyaNcGg+bly5fq2OPhw4dy//59FdMAIw0em3v37qmf0HpBwLBt27ZSuXJlyZAhgzqCoJAACQQlQAOB3woSCEQAgXJLly5Vb90XL15UDyZHEXgX8HBNly6dOmuvXbu2pE+f3uxhgGHw3Xffyb///qsenuHxFOA4BK54xBKABf4MryRIkEDKlCmjfgoWLCj4O9aAIwoEHGKu8Ag8FTCEENjo7++vDAesedu2beoHRsXnBEYBjkSaNm0q/fr1U4GPFBIgAT0BGgj8RpDA/xOAx2Dfvn0yZMgQdY7+uYer6Rweb7yIJ/Dx8RG8CZvO5PEZ3Np40GIcPGgRmY+3XrwBm96C8YDD2zHmxoMOP2ERvJUXLVpUGjRooIyZGTNmfPaBjgeyKe4BRkauXLkkR44c6k0auuMBHvihjTdzGBvQGbEWV65cUTEMJ0+eVOsxvdnjOsRSwGCpWLGiMmBy584dluXY5Frw3LJliyxZskQdq8CDAv4hSdq0aWX06NFStWpVtY8UEiCBTwRoIPCbQAIi6vjg22+/la1bt3727TNJkiRSvnx5KV26tEqtw9/xUIW7PCSXf0iA8RaMQD4YB3gA42EL1/np06fl+PHjcvjwYfVQDo8XIPCcKVOmVGfv5cqVU8ZAqlSplDs/IgL9oTfSFWE44CGcMWNGZSCE1zMQEX0C3wv9kJkBQ2bFihWybt06xTo4gTGHYMZhw4apoxwKCZAADQR+B1ycAFzRixYtkvbt2wf75g1PAR6keBPu0qWL+Pr6GpZnjwcc3tQ3bNig4gngIYCHAW/IoRG48uFGh+HTsGFDw/QOjW645v37D/L2/Qd59/6DvFfFkT6qP1GZ5aOo//fpLSba/ySaSqn8n0RHQGf0aOIW/dOfYQneRNbJ8OHDFcsnT54Ea3jhqAFHS/Xq1VNHIRQScGUC9CC48u67+NqRmz9w4EBZtmxZsA9dvGW3atVKnfPDFR+Zb8XwIiCdEm/DyKbAUciePXtUSmVgwbFGrVq1pEWLFsrb4SipfY/8XsqVu4/l1oNncuuhnzx4+lyePA8Q/5ev5fmr1/Lq9VsJePNWGQ0wHkwV3NxiRBd3t+ji4RZDYnm6i7dXTIkX20sSxvGSlIniSurEcSVzyoQS38crVN9oHDtgz+fOnas8NMEJjmzGjBkjOH6gkICrEqCB4Ko77+LrRtR7zZo15eDBg0FI4Fy/Q4cOMm7cuHA/XEMqTxq+ZMXgNwvBg8hS+PHHH9URCYwIxBfg7B1HCaEV6Pru3Xt58PSF3H3iJ0+fB8jL128lRrRo4hHTTT2QE/jEksRxY4mne0yR/6n/C7Mcv3Rbfli4Qy7feRzme63dAE8CjATfEtmlRtFs4uUR06qOiE1AQSUYWsEJjo127twZKXEU1tbL35OAEQRoIBhBmXM4FAEUCsKRwl9//aXTC4bBF198oVzy+PNzNf7hFsdb8M0HT+XOI3+5+9hf7jz2k2cvAsTvRYC8CHgjb999cp1D4B6PET26xPaIKbE8Y0rcWB4S3yeWegtOGOfTn4nixpak8bwltpe71YebVnEYBvAsICWzRo0aKmUwJMFb+sVbD+X8zYdy6fYj9bC+9fCZPHz2Ut6++3y2Akox+Hh5SKK4sSR5Ah9JmSiO+kmTJJ6kTRpfGRDWXP7gsfv4FVn392n59+x1dbxga8HxQ96MyaVYjjRSIHNKZTjACxGcIHB0wYIFMmHChGDTWBG4OXbsWGnWrJmt1eR4JODwBGggOPwWUUFbEkAvALjfEQioFTzY+vbtq44cPhfJ/tj/pfyx76xsOXhe7jz2l9dv38mbt+/lQwRamuBc3S1GNIkZI7rEdIuhHrqFsqRUD7gcaZOoc/eICjwCq/aclPV/n1Gu/Vdv3sr7DxFvw4LYAPeYMcQj5ie9fYtll4oFM0tsz8+nL8JQOXXlnoxcvF1u3LdPGin2NJZHTMmRNrF08i0mOdMlDRYjDKy7d+9Kp06dVCBjYEE65tChQ6V3796smRDRLyLvdyoCNBCcaruobEQIIB0P5/II+tMKMhFgGHTu3DlYr8HLgDdy7OJt2XzovOw+dll5B4ySOLE8JHf6ZFIgSwrJmiqxpEjoI0nieSuPhDXB2/qVO0/kz8MXZOWek/L0+Strt9jk917ublIyV1opnz+TZEuTWJLG91ZBhsEJ4hJ+3XRQth2+IPhvewmMrDJ50kuDMrkkV/qk6ugksCBNc+TIkepoCemnWoGRgAyHnj170kiw1yZxXIcjQAPB4baECtmDALIVYBysXLlSF70ObwGC1RC1HljwZgk3+M+//6vc8S8DPnUYjCzB2zAC8ZLH95YKBTJJ5UKZ1Vl7cALX/cwN+2XTv+fk/pPn5oA/I3WP6RZdHZmUyJlWWlctJPG9PYOdHtkLJy7fkZGLd8rl24/sqiJ4Fc+RWrrXLSXJEgQtjgQjAUdPOFKAV0ErKO6EUs04gmL1RbtuEwd3EAI0EBxkI6iG/QjgQf/TTz9J9+7dRds3AcWM8HmTJk2CTI632UV/HpWlO4+pIwRHEryL58uUQiZ18RUvD/2bMB62Z67fk2Hz/7RLMGB4OcSIEU1aVSogNYtll+QJfYL1KMCoGbtst/yx/6wEvIlYfwtreuJIpGf9UlKlcBZ1DBFYdu3aJW3atFFFobSCWhdTpkxRMSw0EqxR5u+dnQANBGffQepvlQCi1VHYCB0YTYIcd7iSO3bsGOT+01fvyfgVe+TEJWNaFFtdQKAL0iWNL2M7Vpe0SePpfoOIguW7jsu8zYdURoKjCU4ZUiaMozwfTSvkUwGPgQVpjtuPXpLJK/fKY3/7HonAw1E0W2rp3bC0pEgYR8/y40dVhRFGAv7UCkpdI3ukQoUKjoaY+pCATQnQQLApTg7maATgMUBTnh07duhUw3HDnDlzdNUP4Wm4cOuhdJq4RmUjOKIkihNLFn3XROJ763P+37x7L3M2HpQ5Gw84otpBdEqfPL5836qSZE6VMNggzLPX7kv/2Zvk5kP7BDDqHvhxY8uP7auqWI/AcurUKRXUiiJLWkFNDPR+QOMna5kbTrEhVJIEgiFAA4FfiyhNAO2ZW7ZsqVtj/vz5ZdOmTapmgFb2nbkmQ+Ztk8d2DJaLCGy4woe0qiDl8mXUDYNgxGlr/pHlu06orApnEaynXumc0rpKIfH2cg+i9vkbD2Tc8j1y5MItuy8pSbzY0rlWMXXkoM0agdGIOgmol4BCVVpBaWa00oZHgUICUZEADYSouKtckyKAKoOogrh7924zERwtoPhNoUKFdJRQza/x8EVy78lzh6VXv0xu6df4C9EmBOABNn75Hlm267gqUexsgrXAK/JTz7qqnkJg8XsZIH1nbpTD5/UPZ3usE7USejcoLfXL5Aoy/P79+6VKlSpBOnt+8803qlAVhQSiIgEaCFFxV7kmReCPP/5Q2Qna1r/wJsycOVN1WjQJAhJ7TF8vcGs7quTLmFymdKslnu76oMS1f51WBgLqGjizpEoUR7rULi5l82UIcuSAehMjFvwp/567Yfclon5Dz3qlpEbx7BJdk0qKo6rp06erNEdt8ywcNcDDUKRIEbvrxglIwGgCNBCMJs75DCGAf8ThJUBHRK3g7zhiMInJPf/btiOG6BWeSXxiecj4TjUERoJWEC/Rfvwq1csgKggyC9pULSQtKxVQjZi0gjUO+GWT7Dtz3e5LRcEqBC7WLZVTF1+AFMgvv/xSlbLWSt26dWXp0qVh7uZp94VwAhKIIAEaCBEEyNsdkwDaNiM4USutW7dWNQ+0gvoGXSavlYfPHC/q36Snb/Hs0r9pWV25YByFdJiwSm4+sH8Qn5E7jIczaiY0r5AviLfkxv2n8s3PG1Ugqb0lgY+X/PBVFSmYJaVuKrS2LlCggCAzxiSpU6eWzZs3S7Zs2eytFscnAUMJ0EAwFDcnM4IA3MHIUsBbnUlQ8+Do0aOSLl06nQp9f/5Ddh69ZIRa4ZoDgXxLBzeTZPEtRX1Q62Dqmr9l4Z9Hg21ZHK6JHOim6NGjSa3i2aVHvVJB6jzcePBMek7fIFfv2r7hU2AE6DkxrVttyZAigflXaMHdq1cvmTx5svkz9Oz49ddf1XeOQgJRiQANhKi0m1yLIoDiNggoO3/+vJmIr6+vrFixQteyGdHxcNE7qqA8cbc6JaRFJcuRCHS9eu+JfDl6mTx/ZVzJZ6MZoZR0y4r5pX3NoqpHhVYO/XdTpUA+MaB0dPEcaeTH9tV03gzEttSpU0fQ6MkkjRo10hmkRvPifCRgDwI0EOxBlWNGKoEtW7ao7IWAgE+1DFDxDm98Xbt2NeuFzoVD5m2VrYcuRKqun5scBZFm9KitujyaBGmM7catkjPX7jms3rZSDOmGTcrlUemHaGJlEjSZWv/PaRm5aIfdMze8Pd1lSjdfyaWpkfDo0SPlifL39zfrhJTZ27dvf7YDqK24cBwSMIoADQSjSHMewwj06dNHxo8fb57Pw8NDFbXJnTu3+TOcZ3edsk61OnZUaVY+n/SoX1IXKPfH/nPKsHEVQbAiSiI3KpsnyJKRvbF0J9I77Zvf2bFmEWlbXZ+lUKlSJdm2bZtOJ3QIzZ49u6tsDdfpAgRoILjAJrvaEnPlyiWogGcS/KONcrmoo28SdDgcOGeLIIvBEQXHC6iYmClFQrN6OFL45uc/5IAB6X6OxMQnlrsMbVVRSudOr1Pr0bMX0vfnjarRkz0F2SOz+9TXTTF69GjVuEkr8+fPD1KUy556cWwSsDcBGgj2JszxDSVw7do15f7VvlWiTe+gQYN0enw3Z7NsPmiJUTBUyVBMVjJnWpnY1Ve0TZJPXbkr7cavEhyPuJogBXJ27/qqfbRWYBy0GbPCrjgw957JnXQNplBsq1y5crp5WTTJrtvAwSOBAA2ESIDOKe1HYN68eYJ0RpOgTv7Zs2clS5Ys5s/QnbFa/7ny1IAgt/CsFG71OX0bSI60Scy3w+DpNWOD7D1paTgVnrGd+Z4i2VKrngmxPfVlmRduOyLT1v4j6AZpL9nww5eSLIGPefg7d+5I8uT6uhQNGjSQ5cuX20sFjksChhOggWA4ck5oTwIoZANXr0nwjzhq6Gsb6jh69gLekuf0aSDoNmiSCzcfSvORSx32SMSee2oaG5kNDcvkkT6NSuumw9FL35l/yMH/7FdpcVbvepI/UwqdwYYqitr24SVLlpS9e/cagYJzkIAhBGggGIKZkxhBAP9YFyxYUI4fP26eDsFkyGrQyqzf/xX8OKLgSKFFxfzSrW4Js1ED78GEFXtlyQ5922FH1N8InZB2WC5fBp3R98+pq9JjxgZBjQh7yLiO1eWLvBl0Q8eLF0/1+zAJYl/w3WN3R3vsAMeMDAI0ECKDOue0CwG4fYsXLy5Xr1rc8EhtnDp1qm6+LpPXyL9n7fe2GZHFoWHQ6HZVpUweS0DeE/+X0m3qOjl3/UFEho4y92ZJlUgmdfVVTZ5MguOFUYt3yLq/z9hlncNbV5KqRbLqxk6SJIncv2/p35E1a1Y5efKkxIhhScm0izIclAQMIkADwSDQnMb+BE6cOCHwGNy7Z6kRMHHiROnRo4d58hcBb6TV6GVy9e4T+ysUjhnQ9njFkOaSUPPwQyDe11PXRenCSGFF1bZ6YelQo4jubR01IuoOXmCXjpzff1lRqhfVl1JOliyZ3L1716w6DAR8B7XZMmFdF68nAUciQAPBkXaDukSIANo6o0CSye2LNznEIzRt2tQ87q2HfqqHwd3HliI3EZrUxjejch+6Nmrlt61HZPLqv2w8k3MP5xHTTRUw0sYFYEVzNx2UmRv22/yoAX0ZKhfKrIOG4kjozWASGgjO/Z2i9kEJ0EDgtyLKEFi7dq0yBl69eqXWFCtWLFVeuWrVquY1nrt+X76eul4e+790yHUPb11ZqhaxZFxAybbjVsqxi7cdUt/IVCp3hmQy/evaujLIKHzVavRym2eojO9cQ8oEqsPg4+Ojq6aYI0cOdcTAGITI/FZwblsSoIFgS5ocK1IJLFq0SLXjNUWWI4hs3bp1UqpUKbNeh8/flN4//SHPXzlei2T0HNgypq3gmMEkMGRq9P9V3rhg7QNrXyZPdzdBbEDg4EGkPM7bfMja7WH6/S996kteTbvt9+/fi7u7u+BPkxQpUkT2798fpnF5MQk4MgEaCI68O9QtTAR++eUXadeunfmeRIkSqQyGfPnymT/76+RV+Xb2Rgl48y5MYxtxcdbUiWXhgMa6qTbuPyeDXai0clg546GNh7dWXr15KzUHzLOpF2H19y0kdZJ45mkQnIggRa1Uq1ZN0MiJQgJRhQANhKiyk1yHzJ49W9q3b28mgSCy7du3S7ZsluCy7UcuCqoovrVjUZ3wbkWdkjlkYPPyutsHzd0imw78F94hXeK+cR1ryBd59WWYp8OLsOWQTZo54chg98QO4uUR08zz8OHDKqVWKyjQNXfuXJdgzkW6BgEaCK6xzy6xysAGQooUKQSBixkyWPLXNx/4T72R2ytfPiKgv2lURhpqmhLhTbjlyKVyxUEzLiKyVlvemyllQpnbt4EuFuHEpTuq8uTTF586ekZE4sb2lD/HWTxTGGvp0qXSpEkT3bDfffedDB8+PCJT8V4ScCgCNBAcajuoTEQIBDYQUqVKpSrbpUmTxjzs7/vPytB5+i58EZnTVvei3v+otlWlVO505iGv3XsiHSeslgfPXthqmig5DmIRUDuiRM605vUhnbXL5LWC/hURFZS8nv9tI90wQ4cOle+//173GbwH2jLfEZ2X95NAZBOggRDZO8D5bUYgOAPhr7/+ktSpU1sMhH1nZeh8xzMQ4nl7yuSuvpI9jeVc+9B/N6XPzN9Z/yAU35CGX+SWbxp/obtywdbDMmX136G4+/OXVCmcRUa0qay7qF69erJ69WrdZ7t27ZIyZcpEeD4OQAKOQoAGgqPsBPWIMAFnNhDQCGhWr7q6hkA4DoExY88mRBGGbsAAiAFAhgeqTKKRVfRo/zOnEn74+FE+fvgoiePFloUDmsj/NO0v7zz2k1rfzY/wcVLHmkUFhZlMgtLXGTNmlMuXL5s/g44omoTaCBQSiCoEaCBElZ3kOoIEKaZMmVL27Nmj2j+bZOO/52TIvG26dtCOgC5d0vjKje3l4WZWZ8G2wzJllfU3YM+YbpIsgbckihtbfLzc1UP0/YcPyvNw55G/3Hz4VN6+s1+nQ3vxSxIvtuTLlEKypU4syRP6SAIfL/Hx8hBP9xjiFj26oOsCWl+/fvteXr1+I5lSJlLGg1ZQNfP0VUtlzbDqitHGdKguZfNZ4lgeP36svFIvXliOfhIkSKCKJrEGQlgJ83pHJkADwZF3h7qFiUBgDwI6Oe7cuVMyZ7ZUwNt66LwMmrvV4boi5smQTLV41sq4Zbtl6U5L4ynT7/CWHDe2l2pYhOp+udMnU0ZBSIK21mv+Oi1oi+z3IkA9WB1ZYnvEVM2qahbLJjHdItbXAEcMOGoIr8TyiCnTu9eWnOmSmoc4evSoFCtWTF6/ttTSKFGihOA4i0ICUYkADYSotJsuvpbABkLSpEnlzz//FFS4M8nOo5dkANIcHazwUM1i2WVIqwq6HUT8wa5jn9zYcK8jWA6lhYtlT61iFdxjhu3h6f/ytcCDsmzncbl+39KF0FG+NvCENCybW5qWz6e8BbYQdMAcv3xPuIdKkTCOTPu6lqRKHNc8xpo1a6RRo0by9u1b82cdO3aUn376Kdzz8EYScEQCNBAccVeoU7gIBDYQEiZMKBs3bpRChQqZx9t3+pr0m7VRXr62/OMerslsfFM7NB+qWVQ3qsk9XihrKulcq6hkSJZAPNzdJJr2oD2MeuD8/N6T5zJwzmY5fulOGO+23z3FU2sAACAASURBVOU4GhnfqYbksuINCasGP2/4V2b/Ef7W3vAcTOnqKz6xPMxTjx07Vvr166c7ppo+fbp07tw5rOrxehJwaAI0EBx6e6hcWAgsXLhQlVo2lb9FrXxEmpcvbyk+dPLKXek5fb08fR7x/Piw6Gbt2v7Nykq9Url0l41ZuktK504vRbNbsjCsjRPa39988ExlSFy89Si0t9jtOgQgfteivFQtnCXYM3x0abz/5LnqnwEvCKpgBrx9J4gPwBGEu1t0QfOmOF4ekiV1Ip2eM9btUw2cwivl82dU6afR/j+2Ad+tLl26yM8//2weEiWXYYiWK1cuvNPwPhJwSAI0EBxyW6hUeAhs2LBBGjduLC9ffmrEhH+4YTTUr28pxXv93lPpNGm1XVoCh0dn0z0TOteU0poaCPgcD0LUR/icoOAT6iWgJfTlO4/k9kN/wQMVRxIpE8WRfBmTKwMDD9DAgo6WbcauUA/fyJRWlQtIJ99iQeIosI4N/5yRrYcuyN0n/vL85Wt59eadvHv3XhdHgfgLrDdN4riycKC+eNHUNX/L/C3hj0H4um4JaVmpgBlPQECAoKQyYltMgliXzZs3S65cegMvMplybhKwBQEaCLagyDEcggCCxHx9feXJkydmfaZOnSpdu3Y1/93v5Wtp/eNy9VB1JAncDCgk3ZDW98T/ldIf8RS7j19SmQqfCzxMkdBHutUpoYowuQcK+kMAH5obRVZlyTRJ4sqKIc0lWjR9kCU8PaMW75TzNx5ITLfoEi+2pyp17BY9mkr7hAcocEfOLKkSyaJABsLoxTtl5Z6T4d7qwPvi5+enSnffvm3prpk7d27V8wMxLxQSiEoEaCBEpd108bX8999/ys2r/ce7V69eMn78eDMZPGDbjVvpUOfvUG7poKaSMUXCz+4gAgtX7z0lKKB09e7jYBtOIT4BpYERwPjE/6X5Grxho5hQZ99iuuBGeBFajloWKe2vkRLYpXYx+bKyvqfB4fO3ZPCvW5SXB2mO0DtD8gSCYlIwcN68fSe3H/mp4ENtHEXZvOllbMcaOobfztokfx65EK7/ZSCDYcuYr3Tel2PHjkmBAgXkwwdL2ijaiaNrqJtbUC9NuCbmTSTgIARoIDjIRlCNiBOA5wABiZcuXTIPVqdOnSAV735YuEPW/HUq4hPacIQ1w1rqIuVNQ8OgefD0uXKTr9h9IsTmQ8j/r1Ykq3StU8KcAfDu/Xs5e+2Bum/PicuqFsIPX1UO0h559JKdsnJ3+N+yw4sBgYkTutSUvBmSm4d49iJA2o5dKVfuPpbcGZKpTo0hBWVOW/O3zNMcH3xZpaB0rV1cp86XPy4Pd7llNIBCIyitoLwyyixrZdCgQTJs2LDwYuB9JOCwBGggOOzWULGwEsBbXfHixeXffy1R63ny5BG89Wllxa4T8uPSXWEd3q7XoxkQ3vy1Ahf6qj2nZP0/Z+TOI7/Pzp8uWXyZ9nVtQXGhwILjg+OXbsvgX7dKorixZE7fhrqKg5dvP5ZGwxfapPNhWCAlT+Aj8/o1lPialMbdxy+rDAvEXxTNllqmfl0r2MDFy3ceS5dJa3R9Kka1rSIVC1pqXkCXin1nqyOZ8MjQVhWlRjFLJ1BkgOD7dPKk3pjatm2bVKigT1ENz3y8hwQcjQANBEfbEeoTIQJt27aVOXPmmMeIFSuW+Pv76x4yZ6/dlxajlkZoHlvfHNhAQCXEL0cvl3PX74eqsBECEmEg4M+QxBTRP/ebBqq4klbqDF4gNwyujYAKiQv6N9YZK9qsA2RzNq+QX8VPmLIIoDMyML6eui5ILYe1w1vp1g9vRPnes8K1VTheWPJdU1XB0SQ3b94UNADTCo4V8P1CQCyFBKIaARoIUW1HXXw9KFYTOB8dle/y5s1rJvPm7Xsp1/vnYM/wIwvfb/0bS7Y0ljr+r9+8kxJfzwi1OniANquQT7rWKi7Rg6mqiODMblPWqrLDaCmN1tJaGfDLZkGVSSOlXL6MMqZDNd2U/Wdvkm2HLTEDODpBHEKpXOlURgeMmK2HLwTJvEBHx90TO+oMCcQnfDV2RbiWlDNdEpnStZau/sGiRYukefPmuvGqVKkimzZtCtccvIkEHJ0ADQRH3yHqFyYCMAby58+vu2fChAnSs2dP3WctRy2VM9fuh2lse148o0cdKZxV/3ZatMu0MDVqcosRTaoXzSa96pdSEf8meeT3UjV92n/6mvJGpE8aX5YObqZ7mCLGASmBRgrc93DjawWegX9OXwtWDQQ1ws0fnKRLGk9WDG2h+9Wavaflh0Xbw7WkWsWzy4Dm5c29HTAvDM+ZM2fqxkM9hPbt24drDt5EAo5OgAaCo+8Q9QsTAZS/jRs3rrkWAm5G6iOizLUyatFOWbXX+MC8kBaDhkDoraCVsr1+VoWBwiIoHpQ+WXwplz+TJPTxkpsP/WTbofOqjoBJUMYYHgt0QDTJruOXBBH/RnaOrFU8hwxqaSliBV26TV0r+05fD8uS1bXFcqSRqd1q6e6bsGKPLN6ujz8J7cCDW1YQ3+LZzZcjALZWrVqyd+9e82exY8eWgwcPStasWUM7LK8jAaciQAPBqbaLyoaGQNGiRXWBimjBi/NjbRoashiQzeAoEviBBL2q959rl4JOsT1jyuSutQQNokxySlWY3CBPnocvoC88HMvmzSBjO1bX3Rr4iCG049YpmUMGNg9kbExZK/vOhN3YwJzrRrQS9GEwyYULF1QA7MOHD82fwVOFAkmJEumrN4ZWZ15HAo5OgAaCo+8Q9QszATTO0ZbC9fT0lFOnTkn69OnNYx27dFs6T1qrcuodQXo3LC1NylniJKBT3cEL7NJUCTUR4NpHJ0iTIPCvy+Q1cuvh57MlbMkKgZLoYKltLYHaBmiwFFZpW62wdPS19LJAFkTbcSvk3PUHYR1KcqVLKr/2a6i7b/HixdKsWTPdZy1btpRffvmF9Q/CTJg3OAsBGgjOslPUM9QEZs2aJR06dDBfD88BjhhQ0MYkqETYdco6q+mDoZ40ghd2qVVMWle1NJXCcI2HL5aLtyxvrBGcwnw7jiG+rltSWlSyxGrgKKP9+FVywQ7zhaQ3OiQuHNBYkDFgEnSaHLtsd5iWCgOjd8My0rhsHvN9iLvoOGG1qqcQVhndrqpUKJBJd1v16tVVvwWt4HvWrl27sA7P60nAaQjQQHCaraKioSWwZ88eQXT5q1ef3OUo4ztu3DhdoCJS4BAQh6h+R5A2VQtJ51rFdKqYujnaQ79GZfNIX00mA4LwOkxcJUfOW0oI22Ne7ZiJ4saWWb3q6gpE/XXyqnw7e2OYMkyiR4smA5uX08UMhNcjgloUG0e1Vk2gTPLgwQNJkiSJLkASAZOo3Jkpk96QsDczjk8CRhKggWAkbc5lCIFz584pA+HaNUs0PDwKaMkbPXp0pQOKB/X/ZZNsP3LREJ2sTdKyUn71Vq+V1mOWy8nLd63dGq7fl8mTXrVX1orRFSbhOUAMgjZ749LtR9Jl8lp5+OxFqNeFI5PvW1WUSpojExRSQlonyjWHRSoWyCQ/tK2iq944Y8YM1cFRK4hz+eeff4It4hSW+XgtCTgyARoIjrw71C1cBB4/fiyVK1eWQ4cOme8vW7aschF7eHiYP/t18yGZvvafcM1h65uaVcgvPevrDYSvxqyQ45fv2HoqNR5qLiCTQSu/bjoo09fts8t8wQ2Kt/ABzcpKnZI5zb9GjQqkoF68Hfo21OjPMOKryoKgR5P8d+OBdJ+2PkyGBmpJfNP4C6lf2tKV8c2bN6p74/bt+nRJ1ERo2rSpYaw4EQlEBgEaCJFBnXPalQBKLqPF85o1a8zzpEiRQs6ePSve3t7mzw7+d0M6TbRcY1elrAzerHw+6dmglO6qr8aiqZR9XP5J43vL7yNb6+b7Y/85GTJvq6EYkEqIDA6thLVFs60MBHg05vZtIBlSJDCrE5w3ClkLyGqIEyfkqpWGQuRkJGAnAjQQ7ASWw0YugVGjRsmAAQPMSiAO4fTp07qc9Vev30rZ3j/Lu3eWznyRpTUCBrsHOmJoM2a5nLDTEYOHWwz5a2pn3XLRJbLjxNWGIkBpaJRI1srVO4+l/vcLQ61HzBjRZVibSlIhvyUe4OKtR9Jt6jrV6Cq0kj9TCpnZs66ugNTy5cuVp+D9+/fmYdAADJ/HiGGJUwjtHLyOBJyJAA0EZ9ot6hpqArt27RIcK2hl7Nix0qdPH91nnSetkQPnboR6XHtd+FW1QtLJVx+kiH4R6BthL9k9qYPE8rD0EEDGBDInjBY0bMqZLqlu2rB0YYwRPZryQqCbpUk+ZamslTuPLAWiPrcuZEJM6FRDSuW2pMLi+rp16+o8UTA0UZmze/fuRmPifCRgOAEaCIYj54RGEHj+/LkqYBMQEGCeDoVu/v5bX0548fajMmGFpTqeEboFN0dn32LSppo+zbHJ8MV2TTtcP6KVJNcUA0LHyJoD5xmOAIGBo9pZUlChwNr/L2QVfGFlvYqIZejXuIzUL5Pb/Iv7T5+r4yMYCqGRtEniydLBTSXG/wex4p7bt2+rLIWXL1+ah/Dy8pK//vpL8uXLF5pheQ0JODUBGghOvX1U/nME0IJXG1yGB8mjR48kXrx45tvw1txs5FJ5/z5yjxl6NSwtTQMVSqo35LdQP+DC801YNKCxZEltaRAVke6H4ZnfdA+aMK0e1lISx7WUfkb9gq6TQ5+FENjAev7qjbQbv1Iu3LReRwJ1IeDB6RjIgzNkyBAZNmyYbmkFCxZUVTrhSaCQQFQnQAMhqu+wC68PruDevXvrCGzZskUqVapk/gzpdO3GrZQbD55FKqlhrSvpXORQpkq/OWGKwg/rAn7pW1/yZkhuvg0xGaW6/xTWYSJ8PTo2okyytvcBshkGztksO49dCtX4qEKJapQmQbvstmNXyskr1tNEfbzcVconukaaBIZkiRIlVK0DrSDwtXbt2qHSiReRgLMToIHg7DtI/UMkgM6OhQoV0gWY4Y1w0KBBuodiv1kbQ+wgaBTeKd18pXiOtLrpSn49I0wFg8KqKyL2c2v6Mbx49UbK9NR3KwzrmOG9vmLBTDK8dWVBPIFJUDSpx/T1oRqyauEsMrxNZd21fWb+LruOXbZ6f9ZUiWR23/riGdPNfC1SYhs2bCgvXljqMaRKlUquXw9fbwerSvACEnBAAjQQHHBTqJJtCKBBU5kyZeTyZctDAumPCxcuFHf3T8F5qCA4YeVeWRLOrn+20VRUTQLUJjDJ67fvpGS3Gao9s71kQf9Gkj1NEvPwKLeMDpKRIXFje8iigU0liabD5Lv376X1mBWhCtQslDWV/NSjjk71iSv3yqI/j1pdzsBm5aROKUstBtyAIMQpU6bo7u3bt6+MGTPG6ni8gASiCgEaCFFlJ7mOIAT8/f2lXr16sm3bNvPvChQooAomocOjSTYd+E8Gzd0SqQS3jm0r8b29zDrcevBUag1aYFed1gxrJakSW3L57z95LtX6z7XrnJ8bvFmFfNKzvr4WxP4z11S64kcrlhJaXC8f0lw3/PJdx2XM0s/3dYjv7Sl/jGojqMZoEtTRSJkypdy5YylS5ePjI6tXr5by5fUdIyMNFicmAQMI0EAwADKniBwC+Ie+W7duglK5JokbN64qkZstWzbzZ6jbX3vQ/MhRUkQ83d1kz6SOurK9f5+6qioB2lP2TO4kXu4Wt/r5Gw+k6Q9L7DnlZ8d2d4suq75vKSjiZBK/l6+l+9R1VmMJ4sTykO3j2+vG/+vUVenxGYYIWu3kW1TQB0Mr06ZNU98breTJk0d27Ngh8ePHjzQ+nJgEjCZAA8Fo4pzPUAILFiyQVq30hXh+++03ad7c8rb54eNHqT/kN7u0Vg7NYtMljScrhrbQXWrv9EsYBjAQtPLvuRvSZVLkVpbsULOItKtexKwWjoDQ/tlaKioe9qjr4OVu6Qxpra5DorixZNrXtSVDckvlRD8/P8mcObPcu6dv4oVmX4EDXkOzt7yGBJyZAA0EZ9496m6VwPnz51X1RDxoTILgs2XLlununbPxgPy0fr/V8exxQbHsaWTq17V0Q49ctENW7z1lj+nUmMj7X/m93ihZs/eU/LBoh93mDM3AWVMnkilda0l8H8txC9Iv6w9dKE/8LfUIghtryaCmkilFQvOv/F4GSLles0Kctly+jDKiTSVd50Z8L1A5Ed4nk8BrgDgWllYOzQ7ymqhEgAZCVNpNriUIAZTIhYFw8aKlayOOGVAEx9PT03z97Yd+UmfwfHn/wZ5hgcFvEJoVoV2xVtqPXyVHLtyy244WzZ5avT1rZcrqv2TB1iN2mzM0AyOL4bsW5aVGUcsREO7bdviCDJi96bNBm0hVRJdKk8AoLN5thrx9ZymTrNVhevfaUiRbavNHaMwEb9PSpUt1qjI4MTQ7x2uiIgEaCFFxV7kmHYGBAwfKyJEjdZ8hcBGFlEzy7v0HafrDYrl8+7Hh9NpWLywdaxbVzVu13xx5EIaWx2FVulHZPNK3URnNw1Sk5/T1gnP7yJZk8b3VkQsKKJkkNHUN+jctK/U0nRhxb0i1JPJkSCa/9GkgKLFskhs3bghiDZ48sVRfhPdg69atguBWCgm4GgEaCK624y643jNnzkju3Ll19RB69uypauqbBHEIwxf8KRv2nTWcULc6JaRVZcsD6MOHj/JFz5ny8vVbu+iCtsYwDhpoShMjGBBeC5zbO4J8XaeEtNQwgU7r/j4toxbvFBhzwUnnWsWCBBzWHbwgSGwJDA8cY+TPbCmMhPE6deokM2fq60CgbfjKlSsldmxLlUdH4EMdSMAIAjQQjKDMOSKVwKtXryRv3ryCeASTFC1aVP7880+JFSuW+bMVu0/I2GW7BQ9oI6V7vZLSomJ+85R4AKIeASob2kPQ1hju+IJZUpqHv3LnsWpudO9J6Lsf2kM305gIHMQRCAIJTQIeDb9fKHceB9+AKbiGV42HLZKLtx/pVMWxwtiO1XUZHIgxyJAhQ5AlBQ5oteeaOTYJOBoBGgiOtiPUx+YE3r17p86WFy+2dCpEnvvmzZslR44c5vlOXbknnSetttube0gL61CzqLSrXlj364p9ZsuT569szgIDohjRwgFNJJ63JQYDVQtRURIFmhxBEIvQu0FpafCFpQET9Np35pr0mvF7sHEFYAiWWmk4bGGQY6NBLcpLrRKWfcf349tvv5Xx48fr7sV34+DBg7pYFUdgQx1IwCgCNBCMIs15IpUAjhMQbGaKTo8ePbqsWrVKatWyZA+g/j/qIaAToJESOB4Ac7cctVTO2KnVM9oio/eDVmb9/q/gx5EkYZxYsm5EK3F3s8QiIPBwwJwtsu2QxRtk0jnwUQ0+x36izoVJEvh4ydoRrXRllVE+uWLFijoPE9ImURiJfRcc6RtBXYwmQAPBaOKcL1II7NmzR6pUqSI4bjBJly5dBEVxtDJxxR5ZZHDZ5dK508uEzjV0etgrzRHxB3P6NpBc6ZLq5ms5apmcuabP/Y+UjQo0adMK+aRH3ZICvU2C7I4+P/0hSGPUyog2laVK4Sy6z8r1+lkQXwGBV2Jsh+pSKnc63TXTp09XhZG0qbBo54zgxIQJLWmTjsCDOpCAkQRoIBhJm3NFGoHnz59L+vTp5cGDB2Yd0qRJI1euXNFVMLx274mgzbKRkjJRHFk7XF/MafuRi8rlb2vJnT6ZoItjNE34PuIPGg9fLMgUcDRB+WnUiMiSKpFZNaQtDpm3TbYG8iLM/7aR5Ehr6S0R8OadlOo+w1ymuXDWVDL169qC7pEmefr0qUqDDVwYafjw4TJgwAC2dXa0LwT1MZQADQRDcXOyyCTw1Vdfydy5+l4De/fulZIlS+rUajpisZy/aVw0P57Vm39sK3B/mwQZDJX6zrZpN0e8hSMVEHUXTIL6UT8s2i5r/zodmVvz2bmbls8rvRpYWjnj4lsPnkmzkUvk+as36l70UkC5am1PhUu3H0mjYYvMvx/SsoLOw4DjpqFDhwqMAa0gY+H06dOSOrWlRoLDwqFiJGBHAjQQ7AiXQzsWAQScFS6sDwZs06aNzJkzR6fo9HX/yK+bDhmq/JBWFaRmsey6OZFVsP+M7doLJ0vgI9O+riVpksQzz3PnkZ98+eNyeeT3+SqFhsIINJm3l7vM+6ahpElq0RuX/Lr5oMxYt095CJD1sGxwM92dG/89J4N/3ao+Q9fKGT3qSGxPSynmS5cuSdWqVeXChQu6+0aNGqWCFikk4OoEaCC4+jfAxdafKVMmXVVFHDMcOXJE14Rn3+lr8s3PG+XVG/ukGQaHvFSutDKhc03dccfK3SdUN0LUaLCFVC+aVYa2qqibY/3fZ2Tk4h0h1hawxby2GCNnuiSqsBHiCEyC4MMuk9fKrYfPpGbx7AIPgVbGLt0ly3adkOjRo8msXnUlT4bkut+jnXOPHj10sQcZM2ZU3oOYMS2GhC305xgk4IwEaCA4465R53AT6Nq1qyAozSTBtfFFLYCOE1bJDU30e7gnDOWN6GA4s2ddQTyCSRAP0XHCaptUVITrfeGAxrrGRLA7ekxfJ3+fuhZKLSPvMhyPjGpbVcrnz2hWAvUixizdJev/OSPfNikrtUtaUhdRM6HjxNVy+uo9qQHD6Et91sb9+/elUKFCggwGkyCz5fvvv1exB8hioJCAqxOggeDq3wAXW/+KFStUJ0fU3TfJDz/8oB4KWuk/e5Oq/2+U4M34+y8rSeVCmXVTTli5Rxb/eSzCalQplEVGfFVZN86N+09VQKatPBQRVtLKAKVzp5PR7arqmitdvvNYVYCc3buepEtmacWM+INuU9epegmTuvjqghcxTXDxKOjRAW9SunT6LAd7r4vjk4CjEqCB4Kg7Q73sQgDVFMuXLy83b940j1+mTBnZtWuXbr5/z15X7msjpXiONDKlm76rI1L02o1bKXjghVc8UVq4Wy3Jl8lSWhgZC19PWSdo8ews4hnTTWb3qSdZUyfWqbzt0AXlWdCmQm7Yd0Z+WLhDahbLJv2alNUdTRw4cEBQQhkZDFoZM2aMqpVBIQES+ESABgK/CS5FAN0d8XDYvn27ed04b7569aokS5bM/BkeoA2GLgxSx9+esKJHiyZTuvnqOgxivn9OXxN4NF4EWLweYdEjZ9qkMqlrTYkb21I58eTlO9Jm7Erd+XtYxoysa4tkSyXTu9fRTY+jksAnAr1mbJCTV+7KyqEtJE4sD931HTp0kNmzZ+vWjl4dCGJl7EFk7SzndUQCNBAccVeok10JzJ8/X7788kvdHIGbN+GXczd9ipI3UtIkiauC8bRlkOEm/2n9Pvlt29FwPdCbV8wn3euWNJ+ro9fEtLX/yIKth41cms3mmtzVV0rkTBvieBduPJQ241ZIv8ZfSI1i+rbRJ0+elGLFismLFy/M97u7u6smTYG/EzZTmAORgJMSoIHgpBtHtcNPwN/fX5C9oG3rGy9ePEHaG/40ydlr96XLlLXi90JfsS/8M1u/EwWMOvkWky+rFNAFyiHoDsbK0p3HzIV/rI/26YrABYT8X75WxyeOWDkxNGtCwaPR7auJj5d7kMvfvv8g3aasVXEV4zrW0F2DYllo0oUsBa2gkRfaf7NqYmjo8xpXIkADwZV2m2s1E2jfvr1yM5sEEexo66utvY8Hae+ffheU9jVS4nt7ys+99EF3mB9pl+OX75EN/5yR96HsOJk5VSJZNKCxztg4c/WetBm7wuFTG0NijoDOwS0qSLWiWYNcghTVAXM2y6i2VaRo9jTm36OMMrJXvv76a50XJkaMGGrftT05jNxrzkUCjkyABoIj7w51sxuBLVu2KGMgIMDiHUBvhkmTJgkeGiaZt/mQcscbLThqmNjFV1InjqubGnEISOubs/GAPH1u3bPxw1eVpXIhfX+Cwb9ukY3//mf0kmw6H45gpn9dW2AAaeXc9fuy78x1aVW5gK6c9MOHD6Vs2bJy6tQp3fVNmjQRtHSGgRicoNoiUiJv376tviseHh6SPHlySZIkCVMhbbqjHMwRCdBAcMRdoU52J3Djxg1VRU/rbs6WLZv8888/gnQ3k9x74i++A+dHSp+CYjnSCB7wPl76IDvohgfhd3O3qE6FqAcQnCT08ZLlQ5vr7n/i/0oq9/tFEIfg7JIzXVKZ0tVXfAIFIQZeFx7yyE5AR0+tJE6cWLX8zp49uyB4FT9v375V/TlQghsNvvB9CNynAWOgfwO8EY0bN1bfF9ZNcPZvE/UPjgANBH4vXJIAHgaIZteWWY4WLZqsXbtWatasqWMy4rftsvZv43sV4KFTLl8G6dOojCSKEyvIPgW8eSs7jl4SNHY6fP6muS+B6cJPdQOqSUw3y9vxit0n5Mcl+pROZ/0C4KihWYV8gjbPn5NNmzaJr6+vvHv3TncZvAClSpVSHT6R8ghPwd27dwUxKqER7A+Mi++++07q1q3LDIjQQOM1TkWABoJTbReVtSWB3bt3yxdffKEbsmDBgirdTSuoaNh0xBJ5/Vb/gLGlLp8bq1qRTyWStXn+2uvhQXjx6o38deqK7Dp+WU5fuSsPnr6QttWLSIeaRcyX4rq+P/8ue09cNUp1u88DJiixXL2oPlvBNPHjx4/VURI8AvYSHDsgngUFuCgkEJUI0ECISrvJtYSJALwIBQoUkOPHj+vug+FQurSleyAyCNCbYd8ZY0sSI7e/SLbUMqJNZV0Ng9AsEkF5qA+gNSrQkGncst2qdDMKMKEjYmQZPaFZQ2iuQUHkLKkTqYwFlKsOLJMnT1bHCzg6sKckSJBA1q9fL8WLF7fnNBybBAwlQAPBUNyczNEILFmyRJo2bapTC2V4f/75Z13g2uq9J2Xkop2Gqp83Y3LVfyBR3KDHC+FRBMWf0B4ZqZRv3r0Xv5cBsu7v07J85wn1d2cTZHt0qlVMSuRIq+pGaFs9Yy0wkmAcIHtBG4wamnUiUDVLrK58wAAAIABJREFUlixSpEgRgVcpT548EidOHHUMsWHDBpk2bVoQowPX7dixQ7y9gxoqoZmT15CAoxGggeBoO0J9DCWAM2eUWkYJZpNkzpxZtm7dqmolmOTp81eqb8Ezg2oioGnTxM41df0FoMujR49k4MCBKkiuSpUqqm8ACv1ERK7efaKaHh0+fytSgjHDqrtb9GhSIldaVQgpUdzYn70dRgLqW/z555+qz8K1a9fk9evXKiARguwFLy8vVQMB+41un/hBbAEMgpDk6NGjKjUSwa4mwfWzZs2Shg0bhnVJvJ4EHJIADQSH3BYqZRQBBK6hwyM8BibBQ2PGjBmCWglaWbX7pIxaYn8vQqrEcWV8pxqSXtN8CHq8fPlSUPERDyHomDJlSsmXL5/Uq1dPlY9OlEif8hcWhjh+GLloh+w+fjkst0XKtRULZJIBzcqJdzCFkqwphIwGrYEATwEMrPBkIYwfP16++eYbwZgQBLkiq2HRokXW1ODvScApCNBAcIptopL2JIC+DBUrVtQV0MmQIYOgLK+np6V/AR4EjYYtlit3H9tNHW9PdxnWupKUyq3vKIiH2rhx42Tw4MHmB5JWCTc3N8mZM6dqYQyvQtq0aaVBgwYh5vcHtwDUWGj943JBh0RHFfRVWPxdU0kSL6jn4M3bT8cmsT1jikdMN7svYePGjcpboC3bjAwYxCJQSCAqEKCBEBV2kWuIEAG0fkYRHeS8awVehE6dOuk++23bEZm25u9QVzIMi2J4sA1qUUGlNmrfaGEcjB49WoYPH252jX9u3FixYimPCGIrtOOg9gHSIY9cuC15MiRTAZCBmxwdOHdDBWQ+f/U6LKobci10Hd66slQprC/8hEDLjf+eE1RRvHL3iaRKFEeaV8yv1ogGWPaSpUuXSqtWrXStw2kg2Is2x40MAjQQIoM653Q4AjhTRpCZyV0MBdHhD94FbY3+O4/9pdXoZfLY76VN1+AWI5r0blBa6pfJrRsXZ+grVqxQjYSQr29N4OYeNGiQDB06VD+OiOw4clGGzNsqAW8+pWuWy5tBhn9VWdzdLJUjkbHRd+Yfsv/sdWtTGf77lAnjyG8DGwu8LCZB6mbvGb/L36f1qZvI3sifKYW0qJhfEOyJAEYEZ+JHPv2fElUu6qOo3g1gjT9hSN157KdiMs5cuy8V8mcMtjlUcOW6sU+//PKL4Ww4IQnYgwANBHtQ5ZhORwCxCKisiGA2kyC/fe7cuYJyvFpZveeUikXAA8UWgrd8lAZuV62wuMe0PKwx/urVq6Vdu3a6xlKfmxNvsNBZa9RgHBRUGv7b9iCegbbVCku7GoV1b9qLtx+VCSvsVzcgvMzK5ssgP3xVRWLGsBR+WrrjmIxbvuezQ8aN7SEwLhDQiP+GQeTmFl0+fvioqlC+eP1WcXn2PEAePnuhfl6+fitZUyeWttUKSalc6SR6dL0nAtkKderUET8/P/PcaPQF9tp+HuFdK+8jAUcgQAPBEXaBOjgEgV9//VVVV9TmzAdXOAlvmJ0nrZFD52/aRO/6ZXJJ34ZlgjyEUOoXAYjoIxAaQadCGDg4YtDK6av3VNMpPPgCS7IE3vJb/ybqwWmSi7cfSeNhjhdoh6qJPepZ2lbjaKHPT7+r3gu2ljolc0rXOsUFMQ+BBf0cUCdD2w0U1yAGZP/+/UH421o3jkcCRhGggWAUac7j8ATwIC5ZsqT895++kdHUqVNVpoNWcFb/7ayNquBQRKR4jjQy9MuKEt/bSzcMdECQIQIlPyfwPqB5ULVq1VQAIzIbtIL0TBwZHL14O8RhFg5orN6WTYJOkUW7TLOZhyQifEz34kgAD+xWlQuah8MxT/dp6+Xs9fu2mEJ5FgplSSkNy+aRYtkRn2E6iLAMj/1o27atHDhwQDcnMiGWLVvGrpA22QkO4igEaCA4yk5QD4cgAJc+3tq1gocuXMrIjzcJXNOoSrhyz+cf4J9bVNqk8WRG9zqSOFBE/sWLF9VxB/4MSfBAgscAxx/lypWT1KlTB6mH8DIAFSCtxxPM7lNf8mVMrpuqUKcpqhKjowie1b3ql5Ym5fOaVbr/5Ll0m7pOLt1+FCE1EZ/wRZ70qq9DumTxJZZHzCDj4Zjmjz/+kI4dO8qtW0Hbf6MTKKo2htQVMkIK8mYSiCQCNBAiCTyndVwC5cuXVwaBSRD4179/fxkxYoROaZxbtx23Ui7eCvsDKnlCH5ncxTdIISQ0DWrZsqWq1mcSFOBJmjSpJEuWTKUxwr1drFgxQXnfkAQGzIx1/8jCP49+tnMjagksRdqgpkwxHoaFOk11qA3C23yfhqWlUdk8Zr1QuwEdLZGZEdrulGhche6YOFJJnsBHCmdNLWXzpZck8UKufojiVIsXL1YeGuxPYEF5ZWQ0pEqVyqGYURkSiCgBGggRJcj7oxwBvCkiRVAbgBY/fnzZuXOnymzQyonLd+TbWZvk/tPnoeaASPoxHasLui2qqPr/FxRCat26taxatUqlM+JMG8YCjAE8fGAgxIwZ9O028MSoZzB1zd/y+76z5oyFkJT7skpB6VizqKAzoklQdrl41+mhXo8RF4LTdy3Ki2/x7ObpYBTcevhMeRDO33woN+4/FRypvH77XmWjuMWIoWoixI3tqbw0yRN4S6I4nwIVE8TxknixvUJsgGWaBKmvMAx27doVbIpprly5ZPny5aqyJYUEohoBGghRbUe5nggTQN0BlNHdsmWLbqz06dOrcr3aErzwwq/afULGr9grb0PRzwBvsH0alpG6pXLqxkZgJEoojx07VhkCw4YNU6mNqPQXWkHQ3q2HfqqdM96qPyd4I8+dPqlM615bPAMVFXoZ8EZK95gZ2mkNuQ5pi6PaVpHy+S3HPPaaGMbFzZs3ZdKkSYL4k8Btok3z4ogHxhxiQCgkEBUJ0ECIirvKNUWYwNmzZ1UraDTn0cq3336rHt6oXGgSNEFateeUcumjGVJIgrf0r6oVVqlzgQPgkEGBMsrIQFi5cqWKLwht+V+0dj743w3Ze+KKIHjSWr8IvI1/kTe9KsoUXLli3F++96wIM7TlACh4NL1HbSmYWR+Eacs5YBigHsbChQvl999/Vz0cgktlhdHWokULVW8CVSspJBBVCdBAiKo7y3VFmMC8efMEnR21xZNQGwHxCXD7awUPko37z8mw37YH2/AID+WOvkWlddVC5iI9pvvRXhqVHDEGvBaVKlUKUXdTMR/k7P9z+qqs++esnLh0J9RNlnCiUThrKhnbobp4BROMh4lxtl/5G8cq9gPjauHAJpIxechxF2Hd8E8tsT+q3gzgjlLWOFL4XH0LHPGMGjVKevTooXovUEggKhOggRCVd5drixCBx48fqywBdHbUSpIkSVR1Q6REBn7LP3XlrspsOHL+lnrQ4gw8Z7qkUq9UTimeM20QfY4dO6bq+V+4cEG5quHaDjzmE/9XcvLyHTl/66FcuvVILtx6qM7e37771CQotIL+BU3K5VWBfoFbI2vHQHZAtf5zQzusIdehg+OGka0lYRxLjQdkE+AnY8aMgiJFn/O44KGPAMMHDx6oDozXr19X6azHjx9XXoN79+59dh3wGMFwQ3OmUqVKhdq7YwgcTkICdiJAA8FOYDls1CBw5swZ1TER/Rq0gpbQcENrUx9Nv0csAirxvX//QQXBebq76coZm65DECQi4DEHHmB40MFQCCyr9pyUGev2WT06CIk4jIEaRbNJ+5pFJIG39cA8lJOuOeBXh9pArGHv5E66YMrZs2dL7969BV6dxIkTq3bNMLLQYMvkGXj27Jncvn1bGV5oqoR4AuwlvAYhxRYEXjgMwilTpkiNGjVUa2gKCbgKARoIrrLTXGe4CaAADurua7MaMBgyGvCQQrXFsLqbUY0PQYiHDx8264WzbbzNInshsNx88Ex2Hb8kxy/ekbuP/ZV34tmLTxH7WkFOhKeHmyT0iSWokpgrXTKpVCiTpEsaP9i3Xrw5w22ON3CT3HnkJzUHzgs3L3vcmDpJXFn9fUvd0AMGDFDufnsI9iJLliyqnDKKZMFIoJCAqxGggeBqO871hpkAMgyGDBkS7MMIRZTQabFZs2ahHhfn3G3atJHz588HOe9GnYNt27bpMiW0A8M74f/ytQqGhJfC/2WA8iwgUDKmWwzx8XIXby8P8faMKXFie4qXe8htj/F23bhxY7WuvHktBYhuP/ITXwczEMrmTS9jO9bQMYbuMN5sKTimKFy4sHTv3l0dJcAjEVbjz5b6cCwSiEwCNBAikz7ndhoCcEkjcn3t2rW6Xg1YAB4q8AbgoYJ8eFQ5DCxwa+Pce/78+TJy5Ehd4KP2WjyMUMoXRZkSJUpkFz6otwAjBE2gcCaP1E0co5gE8Q21vptvl7nDO2ibqoWkcy19YGiRIkWClDwOy/jYNxwZoLEVPAQIFIXRoTWWwjIeryWBqEaABkJU21Gux24E0G4Z0etz5swJUjQHDxtUO8SDFsGLeMigXgLOvRFXgEyFQ4cOydWrV0M0DkyKo1wvPAl9+vQRX19fXUplRBaH4ktoADVhwgT1p+nIBMca2ocijjNqD3IsA+GHNpWlcuEsuuUj7gAGTmgFhluKFCkE9SxgyOGICGmKKEKFH8YXhJYkr3MVAjQQXGWnuU6bEAgICFAdH+HahlchogKPAYLs8FYfWGB0wNjo16+fMhi8vb2VdyIsLm94Lp4/fy6nT59WRwnIyIChoBVkUuTJYylhfOPBM6njYAbCku+aSKaUFo+Kv7+/+Pj4mJdhyixBTIVpX8AJdSVgSKBXBf4MS+GpiO4t7ycBZydAA8HZd5D6G04A0e8ITkTBpLt370ZofqRR4gcFmJDNEJzgQYcHHIIXkemA4Dn8HRUX0Y8Bb74wJlCvAcYAijsh/Q9pfCj4hCME/HdIUftI9dOWkEbJ4jqDF0RoXba8GZkgeyZ1FA9NxUforPV6FChQQHloKCRAArYjQAPBdiw5kosRwEMYD/e9e/eGeeXIGvjpp59UDQQ83JGKh5bNePCFRkw5/8Hl/psK/Xyu4I92DkePQYjv7Slbx7bTYQncdRPdLzdu3BgadLyGBEgglARoIIQSFC8jgeAI4MgBzZ1QHhnZCQhEDElwPIA33YoVK6qAxwwZMuguvXPnjqrmh86AMBiMkgMHDqgjDJM4Wh2EzKkSyuKBTXU4wKlv377mz5COCKOBQgIkYDsCNBBsx5IjuTABnPWj8iLO+tH1Ea59pBHCKEAAHFLnypQpoyLmcXYeUtU/xAdcvnxZNW1asGCBTeIcAm8LsiO0wX0wbLSlox2tkmKJnGlkctdaumV06tRJZs60NJRC9sGSJUtc+BvIpZOA7QnQQLA9U45IAjYhgIwHlHRG74crV64IPAwIzgvt0YFJCRgEadOmVXEGzZs3V7EI8GKYBBkNyPk3ycNnL6RKvzk2WYMtBqldIodq9WwSrL9KlSq6EthIM0XDKwoJkIDtCNBAsB1LjkQCdiGA9EpE5z98+FB1GEQVxnPnzimjAZ/BaEAxJ6RHIrUSBgHS95DKh6MDlCBGQCO8F/Bc7Nu3T5V4NgkMENQAMMljvxdS6RvHMRA61Cgi7WoUMeuHjA/or43X6Ny5s0yfPt0u/DkoCbgqARoIrrrzXLfLEgicAYDUR61H4Zn/Synf1zG6OcKgGdCsrNQpaSk/jfgMtOLW9q1APMKYMWNcdk+5cBKwBwEaCPagyjFJwIEJ4MGKZlMm2bBhg2pEZJIXr15LmZ4/O8QK3N1iyIivKkvZvJaATsR5VK5cWaVymgQpp4MGDXIInakECUQVAjQQospOch0kEEoC165dU9UEUTcBgqyJRo0ame9+9+69FO3qGO762J7uMrFzTcmXKblZv7/++ktq1aqlgkJNMmnSJFXqmkICJGA7AjQQbMeSI5GAUxBAKiY8CKaKg3PnzpXWrVvrdC/aeaq8+/Ax0tcT39tLfu5VV9Ili6/zeKB+BFJMIYi9mDVrlmqARSEBErAdARoItmPJkUjAKQjcvHlTsmXLpqouQqZNmyZdunTR6V6m50x58epNpK8nSTxvWTigscTz9jTrgmwFrTGAVNLffvtNGjRoEOn6UgESiEoEaCBEpd3kWkggFAQQ5IfeC8iAgCC4T1t0CJ9V+eYXeegXtD9EKIa36SVpk8aTpYOaSYzo0czjfv/99zJ06FDz32PHjq0KVSEugUICJGA7AjQQbMeSI5GAUxBA/wikP8KTABkyZIjugYvP0M0RXR0jW0rkSCOTu+mLJMF7oK15EDduXNm8ebOg/TOFBEjAdgRoINiOJUciAacggCqKqCNw8eJFpS9aWE+cOFGne4tRS+XstfuRvp5mFfJJz/qWIk5QqEKFCrJ9+3azbqj7gGqQaGRFIQESsB0BGgi2Y8mRSMApCDx69EjVEUDBJUjLli1l/vz5Ot27Tlkr+8+E3FfCqIUOallBahXPrpsuU6ZMZuMGv0iRIoWcPHlS0ACLQgIkYDsCNBBsx5IjkYBTEHjy5IlUqlTJ3B65evXq8vvvv+t0H/jLZtly6Hykr2fBt40ke9okZj3Q8wIxB6gcaRIEXKI2Qkj9LSJ9EVSABJyUAA0EJ904qk0C4SXg5+cnvr6+snv3bjUEGjXBRa+VH5fskhW7T4R3CpvcFz3a/2TnxI7i5e5mHg+eAvSU0AqyF5YvX26TOTkICZCAhQANBH4bSMDFCLx48UJQR2Djxo1q5VmyZFG9HbQyc8N++eWPA5FKJml8b/l9pL4+w8KFC1WrbK2MGjVKvv3220jVlZOTQFQkQAMhKu4q10QCnyGAAkmtWrWSZcuWqatwdq+tSojPVuw6Lj8u/eRhiCwpki2VTO9eRzd9nz59ZPz48brPAjebiix9OS8JRDUCNBCi2o5yPSRghcD79+8F3Q9RfdAk6JDo6WkpRrT35BXpOX1DpLJsXC6P9GlYRqcDuk7u2rXL/BmqKD579kxixYoVqbpychKIigRoIETFXeWaSMAKgf79+8vo0aPNV129elW1hTbJhZsPpcmIxZHK8dumZaV+6VxmHVBaGW2sUcfBJIhH0LZ9jlSFOTkJRDECNBCi2IZyOSQQGgJobtSzZ0/zpQcOHFDFk0zy4OlzqTlwvrx7/z40w9n8Grfo0WRC55pSLIfFaLly5Yrkz59fnj59ap4PRZPmzJlj8/k5IAmQgAgNBH4LSMAFCaxYsUIFKpoEaY5IdzTJE/9X0nDYQsGfkSEJfLxkSrdakiVVIvP0OFqAjjgOgSCtcfbs2fLVV19FhoqckwSiPAEaCFF+i7lAEghKYN++faqaoklmzpwpHTp0MP/d7+VraTt2hVy+Y2mpbCTHDMkTyPTutSVhHEtsAcort2/fXt69e6dUQYnlDRs2SMmSJY1UjXORgMsQoIHgMlvNhZKAhcC9e/ckWbJk8vHjp5bOSBNEuqBJXr1+K71mbJCD/33q12C0lMiZViZ2rinRov1PTQ09ETfx448/mlXJmjWrbNu2TVKmTGm0epyPBFyCAA0El9hmLpIE9AQ+fPigghJNDZsaNWokixYtEmQFQN69/yAjFm6X3/edjRR0/Zp8IQ3KWAoiIfOiRo0aqimTSerWratSNWPEiBEpOnJSEojqBGggRPUd5vpIIAQCnTp1EhwtQMqUKSPr1q2TOHHimK/+dfNBmb52n+H8UEFxy5i2Eje2Je0StRvQcwF9JEyyePFiadKkieH6cUIScBUCNBBcZae5ThIIRAAdEdEZEYJOiFu3blVphCY5evG2tB+/ynwMYRTA2iVzyHfNy+umCxxUmSRJEjl//rz4+PgYpRbnIQGXI0ADweW2nAsmgU8E0PAoefLk8vDhQ3FzcxNUJNQG/L3/8FGajlgsl25b3trtzc7b011m9aknmVIkNE+F+IOcOXPKmTNnzJ/169dPV8fB3npxfBJwRQI0EFxx17lmEvj/wL/69evL6tWrFY+OHTvKTz/9pGNz4Nx1+XrqehWTYIT4Fs8uiD9wd7PEFezdu1dKly5tnj5BggTKmAnctMkI/TgHCbgSARoIrrTbXCsJBCIwZcoU6dWrlyAIEOWK4baHV8EkeHvvOmWt/Hv2ht3ZJYzjJfP6NRI0aTIJvBwoC/3LL7+YP0OwIoITvby87K4TJyABVyZAA8GVd59rd3kCBw8elIoVK6p+BpBvvvlGpTtGixbNzGb38csycM5mCXjzqf6APSRZfG+Z3NVX0idPoBv+1KlTKk4CaZkQFEdas2aN1KpVyx5qcEwSIAENARoI/DqQgAsTQHZAiRIl5PDhw4pChgwZZNOmTZIpUyYzlddv38mE5Xtl1d6TdiGVKlEcGdyqouTNkEwZACZ59eqVqpy4c+dO82c1a9aUlStXSsyYMe2iCwclARKwEKCBwG8DCbg4AfQyaNu2rfkN/YcfflBFibSCugldp66Tg+du2iyrwdPdTcrkSSeDWlTQxRxgXlRL/P7772XEiBFmNRIlSiRHjhxhYSQX/75y+cYRoIFgHGvORAIOSeD58+eSI0cOuX79utIvYcKEKuUxX758On3vPPaX8cv3yK5jlyK0jtie7lI6TzqpWiiL5M+cIohxgMFR46Br167y5MkTs+EybNgwZbiYijlFSAneTAIkYJUADQSriHgBCUR9AnhbHzp0qHmh6dOnl0OHDkm8ePF0i0dh5oXbjsjPG/aHOSYBDZgafpFbGnyRW3y8PEKEunz5clUACV4Lk6CsMrwHnp6W4klRf1e4QhKIXAI0ECKXP2cnAYcggGDAKlWqyK1bt5Q+eEtHK2WkPQZ+Y0dmw5W7T2THkYty+uo9ufHgqfi9CJA37z61hvaI6SZxYrlL4rixJXnCOJIxRQLJniaJZE6ZUNxifCrlHJygS+PEiRNVfQN4NUwCTwa6TWqzKxwCGpUggShOgAZCFN9gLo8EQkMAb+tw348ZM8Z8OXocNG3aVKUYopBSYIE34fWbdxLw5q2qk2Bq/IQMiBjRo0nMGNHV8YGp4dLn9Dh9+rS0atVKTpw4oQo4mQQ1D2AcFC1aNDTL4DUkQAI2JEADwYYwORQJODMBf39/KVu2rDmjwbQWPLhx/p86dWqbLg+GADwXyEpAT4jHj/WtpTNnziyzZs1SfSIoJEACxhOggWA8c85IAg5L4MCBA1KvXj1zl0coCo9AlixZZMCAAYKuj8F5E8KyoBcvXsjGjRtlwYIFyhi5c+dOkNvz588vc+fOlTx58oRlaF5LAiRgQwI0EGwIk0ORgLMTwDEBjhR69uwpeJBrBbEI5cuXV5UX0RsBaYfW6hEgXRFFmOAduHjxouoYuX79+mCNAszl7e0t1apVU7EPgQMknZ0t9ScBZyNAA8HZdoz6koCdCSAeYcmSJdKjRw/VyCmwwIMAjwKKKWXLlk11gkRqpKn0sZ+fn9y/f1+uXr0qFy5ckNu3b6sUyrt376qSziFJwYIFZeDAgSpY0sMj5CwHOy+fw5MACfw/ARoI/CqQAAkESwDHAM2aNVMeAFMAoq1RwQMBT8HgwYOlQ4cOrHFga8AcjwQiQIAGQgTg8VYSiOoE/vvvP/nxxx+VRyEgIMAmy0U55VSpUqkOjVWrVlU/PE6wCVoOQgI2JUADwaY4ORgJRD0COHKAodCtWzfVF0FbwCgsq8URBBpDoaxzuXLlxN3dnR6DsADktSRgMAEaCAYD53Qk4KwEEHCItMQtW7bIsWPH5Nq1ayrWADEHb968UccQiE9AoGH8+PElSZIkqm8CyjgXKFBAcuXKJXHixHHW5VNvEnA5AjQQXG7LuWASiDgBGATIcsCxA+oZwKsAAwEpkTASEFuAQEN4DbStoyM+M0cgARIwigANBKNIcx4SIAESIAEScCICNBCcaLOoKgmQAAmQAAkYRYAGglGkOQ8JkAAJkAAJOBEBGghOtFlUlQRIgARIgASMIkADwSjSnIcESIAESIAEnIgADQQn2iyqSgIkQAIkQAJGEaCBYBRpzkMCJEACJEACTkSABoITbRZVJQESIAESIAGjCNBAMIo05yEBEiABEiABJyJAA8GJNouqkgAJkAAJkIBRBGggGEWa85AACZAACZCAExGggeBEm0VVSYAESIAESMAoAjQQjCLNeUiABEiABEjAiQjQQHCizaKqJEACJEACJGAUARoIRpHmPCRAAiRAAiTgRARoIDjRZlFVEiABEiABEjCKAA0Eo0hzHhIgARIgARJwIgI0EJxos6gqCZAACZAACRhFgAaCUaQ5DwmQAAmQAAk4EQEaCE60WVSVBEiABEiABIwiQAPBKNKchwRIgARIgASciAANBCfaLKpKAiRAAiRAAkYRoIFgFGnOQwIkQAIkQAJORIAGghNtFlUlARIgARIgAaMI0EAwijTnIQESIAESIAEnIkADwYk2i6qSAAmQAAmQgFEEaCAYRZrzkAAJkAAJkIATEaCB4ESbRVVJgARIgARIwCgCNBCMIs15SIAESIAESMCJCNBAcKLNoqokQAIkQAIkYBQBGghGkeY8JEACJEACJOBEBGggONFmUVUSIAESIAESMIoADQSjSHMeEiABEiABEnAiAjQQnGizqCoJkAAJkAAJGEWABoJRpDkPCZAACZAACTgRARoITrRZVJUESIAESIAEjCJAA8Eo0pyHBEiABEiABJyIAA0EJ9osqkoCJEACJEACRhGggWAUac5DAiRAAiRAAk5EgAaCE20WVSUBEiABEiABowjQQDCKNOchARIgARIgASciQAPBiTaLqpIACZAACZCAUQRoIBhFmvOQAAmQAAmQgBMRoIHgRJtFVUmABEiABEjAKAI0EIwizXlIgARIgARIwIkI0EBwos2iqiRAAiRAAiRgFAEaCEaR5jwkQAIkQAIk4EQEaCA40WZRVRIgARIgARIwigANBKNIcx4SIAESIAEScCICNBCcaLOoKgmQAAmQAAkYRYAGglGkOQ8JkAAJkABLvoEXAAAC4ElEQVQJOBEBGghOtFlUlQRIgARIgASMIkADwSjSnIcESIAESIAEnIgADQQn2iyqSgIkQAIkQAJGEaCBYBRpzkMCJEACJEACTkSABoITbRZVJQESIAESIAGjCNBAMIo05yEBEiABEiABJyJAA8GJNouqkgAJkAAJkIBRBGggGEWa85AACZAACZCAExGggeBEm0VVSYAESIAESMAoAjQQjCLNeUiABEiABEjAiQjQQHCizaKqJEACJEACJGAUARoIRpHmPCRAAiRAAiTgRARoIDjRZlFVEiABEiABEjCKAA0Eo0hzHhIgARIgARJwIgI0EJxos6gqCZAACZAACRhFgAaCUaQ5DwmQAAmQAAk4EQEaCE60WVSVBEiABEiABIwiQAPBKNKchwRIgARIgASciAANBCfaLKpKAiRAAiRAAkYRoIFgFGnOQwIkQAIkQAJORIAGghNtFlUlARIgARIgAaMI0EAwijTnIQESIAESIAEnIkADwYk2i6qSAAmQAAmQgFEEaCAYRZrzkAAJkAAJkIATEaCB4ESbRVVJgARIgARIwCgCNBCMIs15SIAESIAESMCJCNBAcKLNoqokQAIkQAIkYBQBGghGkeY8JEACJEACJOBEBGggONFmUVUSIAESIAESMIoADQSjSHMeEiABEiABEnAiAjQQnGizqCoJkAAJkAAJGEWABoJRpDkPCZAACZAACTgRARoITrRZVJUESIAESIAEjCJAA8Eo0pyHBEiABEiABJyIAA0EJ9osqkoCJEACJEACRhGggWAUac5DAiRAAiRAAk5EgAaCE20WVSUBEiABEiABowjQQDCKNOchARIgARIgASciQAPBiTaLqpIACZAACZCAUQRoIBhFmvOQAAmQAAmQgBMRoIHwf+3WQQkAAAACsf6tbXEgLIEyPx6NpSoBAgQIEKgEHIRKWg4BAgQIEDgScBCOxlKVAAECBAhUAg5CJS2HAAECBAgcCQx1nxb6mL5dRwAAAABJRU5ErkJggg==;" parent="1" vertex="1">
          <mxGeometry x="855" y="380.58" width="100" height="68.83" as="geometry" />
        </mxCell>
        <mxCell id="ZZ-KA2M3GGoIeQwi2uxn-32" value="Messaging" style="rounded=1;whiteSpace=wrap;html=1;verticalAlign=top;" parent="1" vertex="1">
          <mxGeometry x="650" y="120" width="130" height="90" as="geometry" />
        </mxCell>
        <mxCell id="ZZ-KA2M3GGoIeQwi2uxn-34" value="" style="aspect=fixed;html=1;points=[];align=center;image;fontSize=12;image=img/lib/mscae/Service_Bus.svg;" parent="1" vertex="1">
          <mxGeometry x="690" y="150" width="50" height="50" as="geometry" />
        </mxCell>
        <mxCell id="ZZ-KA2M3GGoIeQwi2uxn-36" value="Authentication" style="rounded=1;whiteSpace=wrap;html=1;verticalAlign=top;" parent="1" vertex="1">
          <mxGeometry x="840" y="120" width="130" height="90" as="geometry" />
        </mxCell>
        <mxCell id="ZZ-KA2M3GGoIeQwi2uxn-39" value="" style="verticalLabelPosition=bottom;html=1;verticalAlign=top;align=center;strokeColor=none;fillColor=#00BEF2;shape=mxgraph.azure.azure_active_directory;" parent="1" vertex="1">
          <mxGeometry x="881.25" y="148" width="47.5" height="50" as="geometry" />
        </mxCell>
        <mxCell id="ZZ-KA2M3GGoIeQwi2uxn-41" value="FFC Platform Services&lt;br&gt;Components" style="text;html=1;strokeColor=none;fillColor=none;align=center;verticalAlign=middle;whiteSpace=wrap;rounded=0;fontSize=16;fontStyle=1" parent="1" vertex="1">
          <mxGeometry x="240" y="115" width="190" height="95" as="geometry" />
        </mxCell>
        <mxCell id="XttSB8-ySWwSTw9pb_Si-1" value="Service Index" style="rounded=1;whiteSpace=wrap;html=1;verticalAlign=top;" parent="1" vertex="1">
          <mxGeometry x="250" y="480" width="130" height="90" as="geometry" />
        </mxCell>
        <mxCell id="XttSB8-ySWwSTw9pb_Si-2" value="" style="shape=image;html=1;verticalAlign=top;verticalLabelPosition=bottom;labelBackgroundColor=#ffffff;imageAspect=0;aspect=fixed;image=https://cdn0.iconfinder.com/data/icons/black-box/64/grid-sorting-128.png" parent="1" vertex="1">
          <mxGeometry x="290" y="510" width="50" height="50" as="geometry" />
        </mxCell>
        <mxCell id="XttSB8-ySWwSTw9pb_Si-3" value="Development Guide" style="rounded=1;whiteSpace=wrap;html=1;verticalAlign=top;" parent="1" vertex="1">
          <mxGeometry x="450" y="480" width="130" height="90" as="geometry" />
        </mxCell>
        <mxCell id="XttSB8-ySWwSTw9pb_Si-4" value="" style="shape=image;html=1;verticalAlign=top;verticalLabelPosition=bottom;labelBackgroundColor=#ffffff;imageAspect=0;aspect=fixed;image=https://cdn3.iconfinder.com/data/icons/strokeline/128/10_icons-128.png" parent="1" vertex="1">
          <mxGeometry x="490" y="510" width="50" height="50" as="geometry" />
        </mxCell>
        <mxCell id="XttSB8-ySWwSTw9pb_Si-5" value="Standards and patterns" style="rounded=1;whiteSpace=wrap;html=1;verticalAlign=top;" parent="1" vertex="1">
          <mxGeometry x="650" y="480" width="130" height="90" as="geometry" />
        </mxCell>
        <mxCell id="XttSB8-ySWwSTw9pb_Si-19" value="" style="strokeWidth=2;outlineConnect=0;dashed=0;align=center;fontSize=8;fillColor=#c0f5a9;verticalLabelPosition=bottom;verticalAlign=top;shape=mxgraph.eip.composed_message_processor;" parent="1" vertex="1">
          <mxGeometry x="690" y="510" width="50" height="50" as="geometry" />
        </mxCell>
        <mxCell id="XttSB8-ySWwSTw9pb_Si-21" value="Cache" style="rounded=1;whiteSpace=wrap;html=1;verticalAlign=top;" parent="1" vertex="1">
          <mxGeometry x="840" y="240" width="130" height="90" as="geometry" />
        </mxCell>
        <mxCell id="XttSB8-ySWwSTw9pb_Si-23" value="" style="aspect=fixed;html=1;points=[];align=center;image;fontSize=12;image=img/lib/mscae/Cache_Redis_Product.svg;" parent="1" vertex="1">
          <mxGeometry x="880" y="274" width="50" height="42" as="geometry" />
        </mxCell>
        <mxCell id="XttSB8-ySWwSTw9pb_Si-24" value="Monitoring" style="rounded=1;whiteSpace=wrap;html=1;verticalAlign=top;" parent="1" vertex="1">
          <mxGeometry x="840" y="480" width="130" height="90" as="geometry" />
        </mxCell>
        <mxCell id="XttSB8-ySWwSTw9pb_Si-25" value="" style="aspect=fixed;html=1;points=[];align=center;image;fontSize=12;image=img/lib/azure2/devops/Application_Insights.svg;" parent="1" vertex="1">
          <mxGeometry x="920" y="517.1" width="25" height="35.8" as="geometry" />
        </mxCell>
        <mxCell id="XttSB8-ySWwSTw9pb_Si-26" value="" style="shape=image;verticalLabelPosition=bottom;labelBackgroundColor=#ffffff;verticalAlign=top;aspect=fixed;imageAspect=0;image=data:image/png,iVBORw0KGgoAAAANSUhEUgAAAOEAAADhCAYAAAA+s9J6AAAJRklEQVR4Ae3ZwYpcxxUG4EvA+AX0AH6CvIgIBLSJt3mH7AJ+By9MQFjSRiDIJkTBXgnLEgZvrIXIRiGE2AgMJmQRiFYDx9S0bHnsPqMu5vRRof4ELc2UuqqYc89X/709W/ijAlepwH+fRTz+Y8Sffx1xZ/PKanD3WsT96xFPb0ecvbhQ8e3Cd75RgZkKDHx/2iI+3iJuAfjaQ2jU6ObLWj1//GOlIfyxFL6YqsCnv9s1VHbyG8/vCgbGj7aIlxAhnOo8bz6vwD/+sktA0HJor6vNgDheZy8CQq7mKzCeb0YDva7R/P/lNRq3pk9vQzjfgSc+Y3wQM54DAbt6DcZBdv86hCdOav7H//cjz4KVB9DdaxDOd+GJz4Dw6gn4M8SeCU/c1PSPDyGE001jQm0FIISwtqOsNl0BCCGcbhoTaisAIYS1HWW16QpACOF005hQWwEIIaztKKtNVwBCCKebxoTaCkAIYW1HWW26AhBCON00JtRWAEIIazvKatMVgBDC6aYxobYCEEJY21FWm64AhBBON40JtRWAEMLajrLadAUghHC6aUyorQCEENZ2lNWmKwAhhNNNY0JtBSCEsLajrDZdAQghnG4aE2orACGEtR1ltekKQAjhdNOYUFsBCCGs7SirTVcAQginm8aE2gpACGFtR1ltugIQQjjdNCbUVgBCCGs7ymrTFYAQwummMaG2AhBCWNtRVpuuAIQQTjeNCbUVgBDC2o6y2nQFIIRwumlMqK0AhBDWdpTVpisAIYTTTWNCbQUghLC2o6w2XQEIIZxuGhNqKwAhhLUdZbXpCkAI4XTTmFBbAQghrO0oq01XAEIIp5vGhNoKQAhhbUdZbboCEEI43TQm1FYAQghrO8pq0xWAEMLppjGhtgIQQljbUVabrgCEEE43jQm1FYAQwtqOstp0BSCEcLppTKitAIQQ1naU1aYrACGE001jQm0FIISwtqOsNl0BCCGcbhoTaisAIYS1HWW16QpACOF005hQWwEIIaztKKtNVwBCCKebxoTaCkAIYW1HWW26AhBCON00JtRWAEIIazvKatMVgBDC6aYxobYCEEJY21FWm64AhBBON40JtRX45suIm1t5I8ad011zq71Cb/FqZ/+LeH4v4tkHEX//w+m+Hr0f8fHpgjnGYQHhIefGvz6MeLDtXp9tEaf6erhFfPJOxC0IKzFC+DqET27s8H3+boQXhEe4bYbwMoQ/JCB8rw4gSVj+PAxhhnA8A45bUAAv1gBCCDMz5ePjQxgILwIcBxKEEJZjyxYcn4KOD2Ak4cUaQAhhZqZ8fPwaAsKLACVhOcDxKatnwkwvhL8ECCGEmZejjEMI4RF+HbHv94uSMBMMIYQQZjqaxiGEEMImbNk2EEIIYaajaRxCCCFswpZtAyGEEGY6msYhhBDCJmzZNhBCCGGmo2kcQgghbMKWbQMhhBBmOprGIYQQwiZs2TYQQghhpqNpHEIIIWzClm0DIYQQZjqaxiGEEMImbNk2EEIIYaajaRxCCCFswpZtAyGEEGY6msYhhBDCJmzZNhBCCGGmo2kcQgghbMKWbQMhhBBmOprGIYQQwiZs2TYQQghhpqNpHEIIIWzClm0DIYQQZjqaxiGEEMImbNk2EEIIYaajaRxCCCFswpZtAyGEEGY6msYhhBDCJmzZNhBCCGGmo2kcQgghbMKWbQMhhBBmOprGIYQQwiZs2TYQQghhpqNpHEIIIWzClm0DIYQQZjqaxiGEEMImbNk2EEIIYaajaRxCCCFswpZtAyGEEGY6msYhhBDCJmzZNhBCCGGmo2kcQgghbMKWbQMhhBBmOprGIYQQwiZs2TYQQghhpqNpHEIIIWzClm0DIYQQZjqaxiGEEMImbNk2EEIIYaajaRxCCCFswpZtAyGEEGY6msYhhBDCJmzZNhBCCGGmo2kcQgghbMKWbQMhhBBmOprGIYQQwiZs2TYQQghhpqNpHEII3yjC//8z4rtHp/16ciPi4ba/ET9/93THP3kn4tYW0dSgp7DPdiFXvv1rxBfvRTzYvADcf9BAWH4AvUL49Pc7eJpvf/Odcvr99GeH8EgIx/PPSL+fFtvX6rGvByA8AsLx/AcgcPvA7RuD8AgIn30Q8ZkUdBdw4IdNEB4B4fggxnOgJNyXevvGIDwCwn2FNgZl1gMQQui28cDbxgzRVcchhBBCCN+2X+BvmvoNN/VVk6l7viSUhA6NN3xoQAghhBC6He2+/bHfWp/USkJJKAkloSSUTGslU/f1kISSUBJKQknYffLab63klYSSUBJKQkkomdZKpu7rIQkloSSUhJKw++S131rJKwkloSSUhJJQMq2VTN3XQxJKQkkoCSVh98lrv7WSVxJKQkkoCSWhZFormbqvhySUhJJQEkrC7pPXfmslrySUhJJQEkpCybRWMnVfD0koCSWhJJSE3Sev/dZKXkkoCSWhJJSEkmmtZOq+HpJQEkpCSSgJu09e+62VvJJQEkpCSSgJJdNaydR9PSShJJSEklASdp+89lsreSWhJJSEklASSqa1kqn7ekhCSSgJJaEk7D557bdW8kpCSSgJJaEklExrJVP39ZCEklASSkJJ2H3y2m+t5JWEklASSkJJKJnWSqbu6yEJJaEklISSsPvktd9aySsJJaEklISSUDKtlUzd10MSSkJJKAklYffJa7+1klcSSkJJKAkloWRaK5m6r4cklISSUBJKwu6T135rJa8klISSUBJKQsm0VjJ1Xw9JKAkloSSUhN0nr/3WSl5JKAkloSSUhJJprWTqvh6SUBJKQkkoCbtPXvutlbySUBJKQkkoCSXTWsnUfT0koSSUhJJQEnafvPZbK3kloSSUhJJQEkqmtZKp+3pIQkkoCSWhJOw+ee23VvJKQkkoCSXhW5WEd6/FFl/9JuLhttZpK/3WvR4PtohbW3kavFWw7hxYn1HH+9dji69vR4zCanw1OLQHDm0y77v8sLq5RTy9HVucvdgloTSE8FCEngsvx3XI4TNScLzOXsQW489/Hu7SEEQQD4V471duSw/Btu89A99HW8Tzx+f8dgjHl9892iXiuDWFEcZDMP4AcTTVvmYzdrEuo07jFnT8+xLgoPcK4fhu3Jo+vxfx5EbEF+9pxEMa8dTfMw7tgRG4y2tw91rE3357/gx47uw8A3d/fQ/xSZt1qgaxUwAAAABJRU5ErkJggg==;" parent="1" vertex="1">
          <mxGeometry x="860" y="522.9" width="30" height="30" as="geometry" />
        </mxCell>
      </root>
    </mxGraphModel>
  </diagram>
</mxfile>
